# Blender v2.90.1 OBJ File: 'dice4.blend'
# www.blender.org
o HealDice_1_Cube.034
v 0.042690 0.894889 0.170780
v 0.068796 0.933212 0.196887
v 0.056858 0.897585 0.184948
v 0.066960 0.912414 0.195050
v -0.037404 0.894889 0.170780
v -0.063510 0.933212 0.196887
v -0.051572 0.897585 0.184948
v -0.061674 0.912414 0.195050
v 0.042690 0.894890 -0.173927
v 0.068796 0.933212 -0.200034
v 0.056858 0.897585 -0.188095
v 0.066960 0.912414 -0.198198
v -0.037404 0.894890 -0.173927
v -0.063510 0.933212 -0.200034
v -0.051572 0.897585 -0.188095
v -0.061674 0.912414 -0.198198
v 0.042690 0.894889 -0.041620
v 0.068796 0.933212 -0.067727
v 0.056858 0.897585 -0.055789
v 0.066960 0.912414 -0.065891
v 0.068796 0.933212 0.064580
v 0.042690 0.894889 0.038473
v 0.066960 0.912414 0.062744
v 0.056858 0.897585 0.052641
v -0.037404 0.894889 0.038473
v -0.063510 0.933212 0.064580
v -0.051572 0.897585 0.052641
v -0.061674 0.912414 0.062744
v -0.063510 0.933212 -0.067727
v -0.037404 0.894889 -0.041620
v -0.061674 0.912414 -0.065891
v -0.051572 0.897585 -0.055789
v 0.201103 0.933212 -0.067727
v 0.174996 0.894889 -0.041620
v 0.199267 0.912414 -0.065891
v 0.189165 0.897585 -0.055789
v 0.174996 0.894889 0.038473
v 0.201103 0.933212 0.064580
v 0.189165 0.897585 0.052641
v 0.199267 0.912414 0.062744
v -0.195817 0.933212 0.064580
v -0.169711 0.894889 0.038473
v -0.193981 0.912414 0.062744
v -0.183879 0.897585 0.052641
v -0.169711 0.894890 -0.041620
v -0.195817 0.933212 -0.067727
v -0.183879 0.897585 -0.055789
v -0.193981 0.912414 -0.065891
v -0.585097 1.000000 -0.907382
v -0.907382 1.000000 -0.585097
v -0.585097 1.000000 0.907382
v -0.907382 1.000000 0.585097
v 0.585097 1.000000 -0.907382
v 0.907382 1.000000 -0.585097
v 0.585097 1.000000 0.907382
v 0.907382 1.000000 0.585097
v -0.063510 1.000000 0.064580
v -0.195817 1.000000 -0.067727
v -0.195817 1.000000 0.064580
v -0.063510 1.000000 -0.067727
v -0.063510 1.000000 -0.200034
v -0.063510 1.000000 0.196887
v 0.068796 1.000000 0.196887
v 0.068796 1.000000 -0.200034
v 0.068796 1.000000 -0.067727
v 0.201103 1.000000 -0.067727
v 0.068796 1.000000 0.064580
v 0.201103 1.000000 0.064580
vt 0.000643 1.000836
vt 0.000643 1.000704
vt 0.000643 1.000704
vt 0.000248 1.001099
vt 0.000643 1.001099
vt 0.000643 1.001099
vt 0.000643 1.000836
vt 0.000643 1.000836
vt 0.000565 1.000862
vt 0.000326 1.000941
vt 0.000565 1.000941
vt 0.000248 1.000967
vt 0.000248 1.000967
vt 0.000248 1.000967
vt 0.000248 1.000862
vt 0.000248 1.000941
vt 0.000248 1.000862
vt 0.000643 1.000941
vt 0.000248 1.000704
vt 0.000248 1.000704
vt 0.000565 1.000730
vt 0.000326 1.000862
vt 0.000248 1.000836
vt 0.000248 1.000967
vt 0.000326 1.001073
vt 0.000565 1.001073
vt 0.000248 1.000836
vt 0.000248 1.000836
vt 0.000248 1.000836
vt 0.000643 1.000967
vt 0.000643 1.000967
vt 0.000643 1.000967
vt 0.000248 1.001099
vt 0.000643 1.000836
vt 0.000625 1.000955
vt 0.000607 1.001087
vt 0.000643 1.000966
vt 0.000640 1.001098
vt 0.000251 1.001098
vt 0.000326 1.000730
vt 0.000266 1.000848
vt 0.000283 1.000716
vt 0.000248 1.000837
vt 0.000251 1.000705
vt 0.000640 1.000705
vt 0.000625 1.000848
vt 0.000607 1.000716
vt 0.000643 1.000837
vt 0.000266 1.000955
vt 0.000283 1.001087
vt 0.000248 1.000966
vt 0.000643 1.000862
vt 0.000643 1.000955
vt 0.000643 1.000848
vt 0.000643 1.000966
vt 0.000643 1.000837
vt 0.000248 1.000955
vt 0.000248 1.000941
vt 0.000248 1.000848
vt 0.000248 1.000966
vt 0.000248 1.000837
vt 0.000643 1.000967
vt -0.004110 -0.005235
vt -0.004116 -0.005228
vt -0.004136 -0.005270
vt -0.004116 -0.005222
vt -0.004110 -0.005215
vt -0.004136 -0.005180
vt -0.004062 -0.005254
vt -0.004062 -0.005196
vt -0.004097 -0.005228
vt -0.004097 -0.005222
vt -0.004103 -0.005228
vt -0.004103 -0.005235
vt -0.004078 -0.005270
vt -0.004151 -0.005254
vt -0.004110 -0.005228
vt -0.004151 -0.005196
vt -0.004110 -0.005222
vt -0.004078 -0.005180
vt -0.004103 -0.005215
vt -0.004103 -0.005222
vn -1.0000 0.0000 0.0000
vn 0.0000 0.0000 -1.0000
vn 0.0000 -0.0000 1.0000
vn 0.0000 1.0000 0.0000
vn 1.0000 -0.0000 0.0000
vn -0.1869 0.9824 0.0000
vn -0.8264 0.5630 0.0000
vn -0.9961 0.0879 0.0000
vn 0.0000 0.9824 -0.1869
vn 0.0000 0.5630 -0.8265
vn 0.0000 0.0879 -0.9961
vn 0.1869 0.9824 0.0000
vn 0.8264 0.5630 0.0000
vn 0.9961 0.0879 0.0000
vn 0.0000 0.9824 0.1869
vn 0.0000 0.5630 0.8265
vn 0.0000 0.0879 0.9961
vn 0.0000 0.5630 0.8264
vn 0.0000 0.5630 -0.8264
s off
f 18/1/1 64/2/1 10/3/1
f 6/4/2 63/5/2 2/6/2
f 33/7/3 65/8/3 18/1/3
f 17/9/4 25/10/4 22/11/4
f 41/12/2 57/13/2 26/14/2
f 45/15/4 25/16/4 30/17/4
f 37/18/4 17/9/4 22/11/4
f 10/3/3 61/19/3 14/20/3
f 9/21/4 30/22/4 17/9/4
f 46/23/5 59/24/5 41/12/5
f 22/11/4 5/25/4 1/26/4
f 29/27/3 58/28/3 46/23/3
f 14/20/5 60/29/5 29/27/5
f 21/30/2 68/31/2 38/32/2
f 26/14/5 62/33/5 6/4/5
f 38/32/1 66/34/1 33/7/1
f 1/26/6 24/35/6 22/11/6
f 3/36/7 23/37/7 24/35/7
f 4/38/8 21/30/8 23/37/8
f 5/25/9 3/36/9 1/26/9
f 3/36/10 8/39/10 4/38/10
f 4/38/11 6/4/11 2/6/11
f 13/40/12 32/41/12 30/22/12
f 15/42/13 31/43/13 32/41/13
f 16/44/14 29/27/14 31/43/14
f 9/21/15 15/42/15 13/40/15
f 15/42/16 12/45/16 16/44/16
f 12/45/17 14/20/17 16/44/17
f 9/21/6 19/46/6 11/47/6
f 11/47/7 20/48/7 12/45/7
f 12/45/8 18/1/8 10/3/8
f 5/25/12 27/49/12 7/50/12
f 7/50/13 28/51/13 8/39/13
f 8/39/14 26/14/14 6/4/14
f 34/52/6 39/53/6 36/54/6
f 36/54/7 40/55/7 35/56/7
f 40/55/8 33/7/8 35/56/8
f 34/52/15 19/46/15 17/9/15
f 36/54/18 20/48/18 19/46/18
f 35/56/17 18/1/17 20/48/17
f 37/18/9 24/35/9 39/53/9
f 39/53/19 23/37/19 40/55/19
f 40/55/11 21/30/11 38/32/11
f 45/15/12 44/57/12 42/58/12
f 47/59/13 43/60/13 44/57/13
f 48/61/14 41/12/14 43/60/14
f 42/58/9 27/49/9 25/16/9
f 44/57/19 28/51/19 27/49/19
f 43/60/11 26/14/11 28/51/11
f 45/15/15 32/41/15 47/59/15
f 47/59/18 31/43/18 48/61/18
f 48/61/17 29/27/17 46/23/17
f 2/6/1 67/62/1 21/30/1
f 62/63/4 59/64/4 51/65/4
f 58/66/4 61/67/4 49/68/4
f 18/1/1 65/8/1 64/2/1
f 6/4/2 62/33/2 63/5/2
f 33/7/3 66/34/3 65/8/3
f 17/9/4 30/22/4 25/10/4
f 41/12/2 59/24/2 57/13/2
f 45/15/4 42/58/4 25/16/4
f 37/18/4 34/52/4 17/9/4
f 10/3/3 64/2/3 61/19/3
f 9/21/4 13/40/4 30/22/4
f 46/23/5 58/28/5 59/24/5
f 22/11/4 25/10/4 5/25/4
f 29/27/3 60/29/3 58/28/3
f 14/20/5 61/19/5 60/29/5
f 21/30/2 67/62/2 68/31/2
f 26/14/5 57/13/5 62/33/5
f 38/32/1 68/31/1 66/34/1
f 1/26/6 3/36/6 24/35/6
f 3/36/7 4/38/7 23/37/7
f 4/38/8 2/6/8 21/30/8
f 5/25/9 7/50/9 3/36/9
f 3/36/19 7/50/19 8/39/19
f 4/38/11 8/39/11 6/4/11
f 13/40/12 15/42/12 32/41/12
f 15/42/13 16/44/13 31/43/13
f 16/44/14 14/20/14 29/27/14
f 9/21/15 11/47/15 15/42/15
f 15/42/18 11/47/18 12/45/18
f 12/45/17 10/3/17 14/20/17
f 9/21/6 17/9/6 19/46/6
f 11/47/7 19/46/7 20/48/7
f 12/45/8 20/48/8 18/1/8
f 5/25/12 25/10/12 27/49/12
f 7/50/13 27/49/13 28/51/13
f 8/39/14 28/51/14 26/14/14
f 34/52/6 37/18/6 39/53/6
f 36/54/7 39/53/7 40/55/7
f 40/55/8 38/32/8 33/7/8
f 34/52/15 36/54/15 19/46/15
f 36/54/18 35/56/18 20/48/18
f 35/56/17 33/7/17 18/1/17
f 37/18/9 22/11/9 24/35/9
f 39/53/19 24/35/19 23/37/19
f 40/55/11 23/37/11 21/30/11
f 45/15/12 47/59/12 44/57/12
f 47/59/13 48/61/13 43/60/13
f 48/61/14 46/23/14 41/12/14
f 42/58/9 44/57/9 27/49/9
f 44/57/19 43/60/19 28/51/19
f 43/60/11 41/12/11 26/14/11
f 45/15/15 30/17/15 32/41/15
f 47/59/18 32/41/18 31/43/18
f 48/61/17 31/43/17 29/27/17
f 2/6/1 63/5/1 67/62/1
f 56/69/4 54/70/4 68/71/4
f 54/70/4 66/72/4 68/71/4
f 68/71/4 67/73/4 63/74/4
f 51/65/4 55/75/4 62/63/4
f 55/75/4 56/69/4 63/74/4
f 62/63/4 55/75/4 63/74/4
f 59/64/4 52/76/4 51/65/4
f 62/63/4 57/77/4 59/64/4
f 56/69/4 68/71/4 63/74/4
f 50/78/4 52/76/4 59/64/4
f 58/66/4 60/79/4 61/67/4
f 50/78/4 59/64/4 58/66/4
f 53/80/4 49/68/4 61/67/4
f 49/68/4 50/78/4 58/66/4
f 53/80/4 61/67/4 64/81/4
f 66/72/4 54/70/4 64/81/4
f 54/70/4 53/80/4 64/81/4
f 64/81/4 65/82/4 66/72/4
