# Blender v2.90.1 OBJ File: 'dice3.blend'
# www.blender.org
o HealDice_2_Cube.030
v 0.894889 0.492689 0.628683
v 0.933212 0.518796 0.654789
v 0.897585 0.506858 0.642851
v 0.912414 0.516960 0.652953
v 0.894889 0.412596 0.628683
v 0.933212 0.386489 0.654789
v 0.897585 0.398428 0.642851
v 0.912414 0.388325 0.652953
v 0.894890 0.492689 0.283976
v 0.933212 0.518796 0.257869
v 0.897585 0.506858 0.269807
v 0.912414 0.516960 0.259705
v 0.894890 0.412596 0.283976
v 0.933212 0.386489 0.257869
v 0.897585 0.398428 0.269807
v 0.912414 0.388325 0.259705
v 0.894890 0.492689 0.416282
v 0.933212 0.518796 0.390176
v 0.897585 0.506858 0.402114
v 0.912414 0.516960 0.392012
v 0.933212 0.518796 0.522482
v 0.894889 0.492689 0.496376
v 0.912414 0.516960 0.520646
v 0.897585 0.506858 0.510544
v 0.894889 0.412596 0.496376
v 0.933212 0.386489 0.522482
v 0.897585 0.398428 0.510544
v 0.912414 0.388325 0.520646
v 0.933212 0.386489 0.390176
v 0.894889 0.412596 0.416282
v 0.912414 0.388325 0.392012
v 0.897585 0.398428 0.402114
v 0.933212 0.651103 0.390176
v 0.894890 0.624996 0.416282
v 0.912414 0.649266 0.392012
v 0.897585 0.639164 0.402114
v 0.894890 0.624996 0.496376
v 0.933212 0.651103 0.522482
v 0.897585 0.639164 0.510544
v 0.912414 0.649266 0.520646
v 0.933212 0.254182 0.522482
v 0.894889 0.280289 0.496376
v 0.912414 0.256019 0.520646
v 0.897585 0.266121 0.510544
v 0.894889 0.280289 0.416282
v 0.933212 0.254182 0.390176
v 0.897585 0.266121 0.402114
v 0.912414 0.256019 0.392012
v 0.894889 -0.492690 -0.628682
v 0.933212 -0.518796 -0.654789
v 0.897585 -0.506858 -0.642851
v 0.912414 -0.516960 -0.652953
v 0.894889 -0.412596 -0.628682
v 0.933212 -0.386490 -0.654789
v 0.897585 -0.398428 -0.642851
v 0.912414 -0.388326 -0.652953
v 0.894889 -0.492690 -0.283975
v 0.933212 -0.518796 -0.257869
v 0.897585 -0.506858 -0.269807
v 0.912414 -0.516960 -0.259705
v 0.894889 -0.412596 -0.283975
v 0.933212 -0.386490 -0.257869
v 0.897585 -0.398428 -0.269807
v 0.912414 -0.388326 -0.259705
v 0.894889 -0.492690 -0.416282
v 0.933212 -0.518796 -0.390175
v 0.897585 -0.506858 -0.402114
v 0.912414 -0.516960 -0.392012
v 0.933212 -0.518796 -0.522482
v 0.894889 -0.492690 -0.496376
v 0.912414 -0.516960 -0.520646
v 0.897585 -0.506858 -0.510544
v 0.894889 -0.412596 -0.496376
v 0.933212 -0.386490 -0.522482
v 0.897585 -0.398428 -0.510544
v 0.912414 -0.388326 -0.520646
v 0.933212 -0.386490 -0.390175
v 0.894889 -0.412596 -0.416282
v 0.912414 -0.388326 -0.392012
v 0.897585 -0.398428 -0.402114
v 0.933212 -0.651103 -0.390175
v 0.894889 -0.624996 -0.416282
v 0.912414 -0.649267 -0.392012
v 0.897585 -0.639165 -0.402114
v 0.894889 -0.624996 -0.496376
v 0.933212 -0.651103 -0.522482
v 0.897585 -0.639165 -0.510544
v 0.912414 -0.649267 -0.520646
v 0.933212 -0.254183 -0.522482
v 0.894889 -0.280289 -0.496376
v 0.912414 -0.256019 -0.520646
v 0.897585 -0.266121 -0.510544
v 0.894889 -0.280289 -0.416282
v 0.933212 -0.254183 -0.390175
v 0.897585 -0.266121 -0.402114
v 0.912414 -0.256019 -0.392012
v 1.000000 0.907382 -0.585097
v 1.000000 0.585097 -0.907382
v 1.000000 -0.585097 -0.907382
v 1.000000 -0.907382 -0.585097
v 1.000000 0.907382 0.585097
v 1.000000 0.585097 0.907382
v 1.000000 -0.585097 0.907382
v 1.000000 -0.907382 0.585097
v 1.000000 -0.386490 -0.654789
v 1.000000 -0.518796 -0.654789
v 1.000000 -0.518796 -0.522482
v 1.000000 -0.386490 -0.522482
v 1.000000 -0.254183 -0.522482
v 1.000000 -0.254183 -0.390175
v 1.000000 -0.651103 -0.522482
v 1.000000 -0.651103 -0.390175
v 1.000000 -0.386490 -0.390175
v 1.000000 -0.386490 -0.257869
v 1.000000 -0.518796 -0.390175
v 1.000000 -0.518796 -0.257869
v 1.000000 0.651103 0.390176
v 1.000000 0.651103 0.522482
v 1.000000 0.518796 0.257869
v 1.000000 0.445877 0.257869
v 1.000000 0.386489 0.257869
v 1.000000 0.518796 0.390176
v 1.000000 0.386489 0.390176
v 1.000000 0.254182 0.390176
v 1.000000 0.254182 0.522482
v 1.000000 0.518796 0.522482
v 1.000000 0.386489 0.654789
v 1.000000 0.518796 0.654789
v 1.000000 0.386489 0.522482
vt 0.001425 1.000900
vt 0.001425 1.001809
vt 0.001425 1.000900
vt 0.001425 1.003627
vt -0.001302 1.003627
vt 0.001425 1.003627
vt 0.001425 1.001809
vt 0.001425 1.001809
vt -0.000764 1.002539
vt 0.000887 1.001988
vt 0.000887 1.002539
vt -0.001302 1.002718
vt -0.001302 1.002718
vt -0.001302 1.002718
vt -0.001302 1.002539
vt -0.001302 1.001988
vt -0.001302 1.001988
vt 0.001425 1.001988
vt 0.001425 1.002539
vt 0.001425 1.002539
vt -0.000078 1.000900
vt -0.000764 1.001988
vt 0.000887 1.001079
vt -0.001302 1.001809
vt -0.001302 1.001809
vt -0.000764 1.003448
vt 0.000887 1.003448
vt -0.001302 1.001809
vt -0.001302 1.001809
vt -0.001302 1.000900
vt 0.001425 1.002718
vt 0.001425 1.002718
vt 0.001425 1.002718
vt -0.001302 1.003627
vt 0.001425 1.001809
vt 0.001302 1.002636
vt 0.001425 1.002712
vt 0.001179 1.003545
vt 0.001406 1.003621
vt -0.001056 1.003545
vt -0.001283 1.003621
vt -0.001179 1.001891
vt -0.000764 1.001079
vt -0.001302 1.001815
vt -0.001056 1.000982
vt -0.001283 1.000906
vt 0.001179 1.000982
vt 0.001406 1.000906
vt 0.001302 1.001891
vt 0.001425 1.001815
vt -0.001179 1.002636
vt -0.001302 1.002712
vt 0.001425 1.001891
vt 0.001425 1.001988
vt 0.001425 1.002712
vt 0.001425 1.002636
vt 0.001425 1.001815
vt -0.001302 1.002539
vt -0.001302 1.001891
vt -0.001302 1.002712
vt -0.001302 1.002636
vt -0.001302 1.001815
vt 0.001425 1.000900
vt 0.001425 1.001809
vt 0.001425 1.001809
vt 0.001425 1.003627
vt -0.001302 1.003627
vt 0.001425 1.003627
vt 0.001425 1.001809
vt -0.000764 1.002539
vt 0.000887 1.001988
vt 0.000887 1.002539
vt -0.001302 1.002718
vt -0.001302 1.002718
vt -0.001302 1.002718
vt -0.001302 1.002539
vt -0.001302 1.001988
vt -0.001302 1.001988
vt 0.001425 1.001988
vt 0.001425 1.002539
vt 0.001425 1.002539
vt -0.001302 1.000900
vt -0.001302 1.000900
vt -0.000764 1.001988
vt 0.000887 1.001079
vt -0.001302 1.001809
vt -0.000764 1.003448
vt 0.000887 1.003448
vt -0.001302 1.001809
vt -0.001302 1.001809
vt -0.001302 1.001809
vt 0.001425 1.002718
vt 0.001425 1.002718
vt 0.001425 1.002718
vt -0.001302 1.003627
vt 0.001302 1.002636
vt 0.001425 1.002712
vt 0.001179 1.003545
vt 0.001406 1.003621
vt -0.001056 1.003545
vt -0.001283 1.003621
vt -0.001179 1.001891
vt -0.000764 1.001079
vt -0.001302 1.001815
vt -0.001056 1.000982
vt -0.001283 1.000906
vt 0.001179 1.000982
vt 0.001406 1.000906
vt 0.001302 1.001891
vt 0.001425 1.001815
vt -0.001179 1.002636
vt -0.001302 1.002712
vt 0.001425 1.001891
vt 0.001425 1.001988
vt 0.001425 1.002712
vt 0.001425 1.002636
vt 0.001425 1.001815
vt -0.001302 1.002539
vt -0.001302 1.001891
vt -0.001302 1.002712
vt -0.001302 1.002636
vt -0.001302 1.001815
vt 0.001425 1.002718
vt -0.004280 -0.003955
vt -0.004367 -0.003977
vt -0.004367 -0.004022
vt -0.004502 -0.003977
vt -0.004457 -0.003931
vt -0.004788 -0.003845
vt -0.004811 -0.004288
vt -0.004766 -0.004243
vt -0.004898 -0.003955
vt -0.001302 1.002718
vt -0.001302 1.000900
vt 0.001425 1.002718
vt 0.001425 1.000900
vt 0.001425 1.001809
vt -0.001302 1.002718
vt -0.004280 -0.004354
vt -0.004389 -0.003845
vt -0.004412 -0.003931
vt -0.004412 -0.003977
vt -0.004412 -0.004022
vt -0.004412 -0.004067
vt -0.004389 -0.004464
vt -0.004788 -0.004464
vt -0.004721 -0.004378
vt -0.004457 -0.004067
vt -0.004676 -0.004333
vt -0.004676 -0.004288
vt -0.004457 -0.004022
vt -0.004502 -0.004022
vt -0.004721 -0.004333
vt -0.004721 -0.004243
vt -0.004721 -0.004288
vt -0.004741 -0.004243
vt -0.004457 -0.003977
vt -0.004766 -0.004378
vt -0.004766 -0.004333
vt -0.004811 -0.004333
vt -0.004766 -0.004288
vt -0.004898 -0.004354
vn 0.0000 -1.0000 0.0000
vn 0.0000 0.0000 -1.0000
vn 0.0000 0.0000 1.0000
vn 1.0000 0.0000 0.0000
vn 0.0000 1.0000 0.0000
vn 0.9824 -0.1869 0.0000
vn 0.5630 -0.8264 0.0000
vn 0.0879 -0.9961 -0.0000
vn 0.9824 0.0000 -0.1869
vn 0.5630 0.0000 -0.8264
vn 0.0879 0.0000 -0.9961
vn 0.9824 0.1869 0.0000
vn 0.5630 0.8264 0.0000
vn 0.0879 0.9961 -0.0000
vn 0.9824 0.0000 0.1869
vn 0.5630 0.0000 0.8264
vn 0.0879 0.0000 0.9961
vn 0.5630 0.0000 -0.8265
vn 0.5630 -0.8265 0.0000
vn 0.5630 0.8265 0.0000
vn 0.5630 0.0000 0.8265
s off
f 119/1/1 18/2/1 10/3/1
f 128/4/2 6/5/2 2/6/2
f 122/7/3 33/8/3 18/2/3
f 25/9/4 17/10/4 22/11/4
f 129/12/2 41/13/2 26/14/2
f 25/15/4 45/16/4 30/17/4
f 17/18/4 37/19/4 22/20/4
f 120/21/3 119/1/3 10/3/3
f 30/22/4 9/23/4 17/10/4
f 41/13/5 124/24/5 46/25/5
f 5/26/4 22/11/4 1/27/4
f 46/25/3 123/28/3 29/29/3
f 123/28/5 14/30/5 29/29/5
f 118/31/2 21/32/2 38/33/2
f 127/34/5 26/14/5 6/5/5
f 117/35/1 38/33/1 33/8/1
f 24/36/6 1/27/6 22/11/6
f 23/37/7 3/38/7 24/36/7
f 21/32/8 4/39/8 23/37/8
f 3/38/9 5/26/9 1/27/9
f 4/39/10 7/40/10 3/38/10
f 4/39/11 6/5/11 8/41/11
f 32/42/12 13/43/12 30/22/12
f 31/44/13 15/45/13 32/42/13
f 29/29/14 16/46/14 31/44/14
f 15/45/15 9/23/15 13/43/15
f 16/46/16 11/47/16 15/45/16
f 14/30/17 12/48/17 16/46/17
f 9/23/6 19/49/6 17/10/6
f 11/47/7 20/50/7 19/49/7
f 12/48/8 18/2/8 20/50/8
f 5/26/12 27/51/12 25/9/12
f 7/40/13 28/52/13 27/51/13
f 8/41/14 26/14/14 28/52/14
f 36/53/6 37/19/6 34/54/6
f 36/53/7 40/55/7 39/56/7
f 33/8/8 40/55/8 35/57/8
f 19/49/15 34/54/15 17/18/15
f 20/50/16 36/53/16 19/49/16
f 18/2/17 35/57/17 20/50/17
f 37/19/9 24/36/9 22/20/9
f 39/56/10 23/37/10 24/36/10
f 40/55/11 21/32/11 23/37/11
f 42/58/12 47/59/12 45/16/12
f 43/60/13 47/59/13 44/61/13
f 41/13/14 48/62/14 43/60/14
f 27/51/9 42/58/9 25/15/9
f 28/52/10 44/61/10 27/51/10
f 26/14/11 43/60/11 28/52/11
f 45/16/15 32/42/15 30/17/15
f 47/59/16 31/44/16 32/42/16
f 48/62/17 29/29/17 31/44/17
f 21/32/1 128/4/1 2/6/1
f 58/63/5 115/64/5 66/65/5
f 106/66/3 54/67/3 50/68/3
f 115/64/2 81/69/2 66/65/2
f 73/70/4 65/71/4 70/72/4
f 74/73/3 109/74/3 89/75/3
f 73/76/4 93/77/4 78/78/4
f 65/79/4 85/80/4 70/81/4
f 114/82/2 58/63/2 62/83/2
f 78/84/4 57/85/4 65/71/4
f 109/74/1 94/86/1 89/75/1
f 53/87/4 70/72/4 49/88/4
f 110/89/2 77/90/2 94/86/2
f 113/91/1 62/83/1 77/90/1
f 111/92/3 69/93/3 86/94/3
f 105/95/1 74/73/1 54/67/1
f 81/69/5 111/92/5 86/94/5
f 72/96/12 49/88/12 70/72/12
f 71/97/13 51/98/13 72/96/13
f 69/93/14 52/99/14 71/97/14
f 51/98/15 53/87/15 49/88/15
f 52/99/16 55/100/16 51/98/16
f 52/99/17 54/67/17 56/101/17
f 80/102/6 61/103/6 78/84/6
f 79/104/7 63/105/7 80/102/7
f 77/90/8 64/106/8 79/104/8
f 63/105/9 57/85/9 61/103/9
f 64/106/10 59/107/10 63/105/10
f 62/83/11 60/108/11 64/106/11
f 57/85/12 67/109/12 65/71/12
f 59/107/13 68/110/13 67/109/13
f 60/108/14 66/65/14 68/110/14
f 53/87/6 75/111/6 73/70/6
f 55/100/7 76/112/7 75/111/7
f 56/101/8 74/73/8 76/112/8
f 84/113/12 85/80/12 82/114/12
f 84/113/13 88/115/13 87/116/13
f 81/69/14 88/115/14 83/117/14
f 67/109/9 82/114/9 65/79/9
f 68/110/18 84/113/18 67/109/18
f 66/65/11 83/117/11 68/110/11
f 85/80/15 72/96/15 70/81/15
f 87/116/16 71/97/16 72/96/16
f 88/115/17 69/93/17 71/97/17
f 90/118/6 95/119/6 93/77/6
f 91/120/7 95/119/7 92/121/7
f 89/75/8 96/122/8 91/120/8
f 75/111/15 90/118/15 73/76/15
f 76/112/16 92/121/16 75/111/16
f 74/73/17 91/120/17 76/112/17
f 93/77/9 80/102/9 78/78/9
f 95/119/10 79/104/10 80/102/10
f 96/122/11 77/90/11 79/104/11
f 107/123/5 50/68/5 69/93/5
f 100/124/4 111/125/4 112/126/4
f 109/127/4 105/128/4 98/129/4
f 117/130/4 119/131/4 97/132/4
f 119/1/1 122/7/1 18/2/1
f 128/4/2 127/34/2 6/5/2
f 122/7/3 117/35/3 33/8/3
f 25/9/4 30/22/4 17/10/4
f 129/12/2 125/133/2 41/13/2
f 25/15/4 42/58/4 45/16/4
f 17/18/4 34/54/4 37/19/4
f 10/3/3 14/30/3 120/21/3
f 14/30/3 121/134/3 120/21/3
f 30/22/4 13/43/4 9/23/4
f 41/13/5 125/133/5 124/24/5
f 5/26/4 25/9/4 22/11/4
f 46/25/3 124/24/3 123/28/3
f 123/28/5 121/134/5 14/30/5
f 118/31/2 126/135/2 21/32/2
f 127/34/5 129/12/5 26/14/5
f 117/35/1 118/31/1 38/33/1
f 24/36/6 3/38/6 1/27/6
f 23/37/7 4/39/7 3/38/7
f 21/32/8 2/6/8 4/39/8
f 3/38/9 7/40/9 5/26/9
f 4/39/10 8/41/10 7/40/10
f 4/39/11 2/6/11 6/5/11
f 32/42/12 15/45/12 13/43/12
f 31/44/13 16/46/13 15/45/13
f 29/29/14 14/30/14 16/46/14
f 15/45/15 11/47/15 9/23/15
f 16/46/16 12/48/16 11/47/16
f 14/30/17 10/3/17 12/48/17
f 9/23/6 11/47/6 19/49/6
f 11/47/7 12/48/7 20/50/7
f 12/48/8 10/3/8 18/2/8
f 5/26/12 7/40/12 27/51/12
f 7/40/13 8/41/13 28/52/13
f 8/41/14 6/5/14 26/14/14
f 36/53/6 39/56/6 37/19/6
f 36/53/19 35/57/19 40/55/19
f 33/8/8 38/33/8 40/55/8
f 19/49/15 36/53/15 34/54/15
f 20/50/16 35/57/16 36/53/16
f 18/2/17 33/8/17 35/57/17
f 37/19/9 39/56/9 24/36/9
f 39/56/18 40/55/18 23/37/18
f 40/55/11 38/33/11 21/32/11
f 42/58/12 44/61/12 47/59/12
f 43/60/13 48/62/13 47/59/13
f 41/13/14 46/25/14 48/62/14
f 27/51/9 44/61/9 42/58/9
f 28/52/18 43/60/18 44/61/18
f 26/14/11 41/13/11 43/60/11
f 45/16/15 47/59/15 32/42/15
f 47/59/16 48/62/16 31/44/16
f 48/62/17 46/25/17 29/29/17
f 21/32/1 126/135/1 128/4/1
f 58/63/5 116/136/5 115/64/5
f 106/66/3 105/95/3 54/67/3
f 115/64/2 112/137/2 81/69/2
f 73/70/4 78/84/4 65/71/4
f 74/73/3 108/138/3 109/74/3
f 73/76/4 90/118/4 93/77/4
f 65/79/4 82/114/4 85/80/4
f 114/82/2 116/136/2 58/63/2
f 78/84/4 61/103/4 57/85/4
f 109/74/1 110/89/1 94/86/1
f 53/87/4 73/70/4 70/72/4
f 110/89/2 113/91/2 77/90/2
f 113/91/1 114/82/1 62/83/1
f 111/92/3 107/123/3 69/93/3
f 105/95/1 108/138/1 74/73/1
f 81/69/5 112/137/5 111/92/5
f 72/96/12 51/98/12 49/88/12
f 71/97/13 52/99/13 51/98/13
f 69/93/14 50/68/14 52/99/14
f 51/98/15 55/100/15 53/87/15
f 52/99/16 56/101/16 55/100/16
f 52/99/17 50/68/17 54/67/17
f 80/102/6 63/105/6 61/103/6
f 79/104/7 64/106/7 63/105/7
f 77/90/8 62/83/8 64/106/8
f 63/105/9 59/107/9 57/85/9
f 64/106/10 60/108/10 59/107/10
f 62/83/11 58/63/11 60/108/11
f 57/85/12 59/107/12 67/109/12
f 59/107/13 60/108/13 68/110/13
f 60/108/14 58/63/14 66/65/14
f 53/87/6 55/100/6 75/111/6
f 55/100/7 56/101/7 76/112/7
f 56/101/8 54/67/8 74/73/8
f 84/113/12 87/116/12 85/80/12
f 84/113/20 83/117/20 88/115/20
f 81/69/14 86/94/14 88/115/14
f 67/109/9 84/113/9 82/114/9
f 68/110/10 83/117/10 84/113/10
f 66/65/11 81/69/11 83/117/11
f 85/80/15 87/116/15 72/96/15
f 87/116/21 88/115/21 71/97/21
f 88/115/17 86/94/17 69/93/17
f 90/118/6 92/121/6 95/119/6
f 91/120/7 96/122/7 95/119/7
f 89/75/8 94/86/8 96/122/8
f 75/111/15 92/121/15 90/118/15
f 76/112/21 91/120/21 92/121/21
f 74/73/17 89/75/17 91/120/17
f 93/77/9 95/119/9 80/102/9
f 95/119/10 96/122/10 79/104/10
f 96/122/11 94/86/11 77/90/11
f 107/123/5 106/66/5 50/68/5
f 104/139/4 100/124/4 112/126/4
f 100/124/4 99/140/4 111/125/4
f 99/140/4 105/128/4 106/141/4
f 106/141/4 107/142/4 111/125/4
f 112/126/4 115/143/4 116/144/4
f 99/140/4 106/141/4 111/125/4
f 112/126/4 116/144/4 104/139/4
f 116/144/4 103/145/4 104/139/4
f 102/146/4 103/145/4 127/147/4
f 103/145/4 116/144/4 114/148/4
f 125/149/4 103/145/4 124/150/4
f 114/148/4 113/151/4 110/152/4
f 125/149/4 129/153/4 127/147/4
f 121/154/4 123/155/4 124/150/4
f 125/149/4 127/147/4 103/145/4
f 103/145/4 114/148/4 124/150/4
f 124/150/4 114/148/4 121/154/4
f 114/148/4 110/152/4 121/154/4
f 98/129/4 120/156/4 121/154/4
f 109/127/4 108/157/4 105/128/4
f 121/154/4 110/152/4 98/129/4
f 110/152/4 109/127/4 98/129/4
f 105/128/4 99/140/4 98/129/4
f 102/146/4 127/147/4 128/158/4
f 128/158/4 126/159/4 118/160/4
f 117/130/4 122/161/4 119/131/4
f 102/146/4 128/158/4 118/160/4
f 101/162/4 102/146/4 118/160/4
f 98/129/4 97/132/4 120/156/4
f 97/132/4 101/162/4 117/130/4
f 119/131/4 120/156/4 97/132/4
f 101/162/4 118/160/4 117/130/4
