# Blender v2.90.1 OBJ File: 'dice3.blend'
# www.blender.org
o DiceFacesBullet_2_Cube.005
v 0.904286 -0.291835 -0.458506
v 0.882286 -0.322947 -0.458506
v 0.894150 -0.297669 -0.458506
v 0.886411 -0.308613 -0.458506
v 0.882286 -0.447398 -0.334055
v 0.904286 -0.447398 -0.302942
v 0.886412 -0.447398 -0.319720
v 0.894150 -0.447398 -0.308777
v 0.882286 -0.413038 -0.548596
v 0.904286 -0.399199 -0.565870
v 0.886411 -0.406662 -0.556555
v 0.894150 -0.401794 -0.562631
v 0.904286 -0.515562 -0.614069
v 0.882286 -0.517991 -0.592069
v 0.894150 -0.516018 -0.609944
v 0.886411 -0.516872 -0.602205
v 0.904286 -0.434189 -0.588077
v 0.882286 -0.444368 -0.568481
v 0.894150 -0.436097 -0.584402
v 0.886411 -0.439678 -0.577510
v 0.904286 -0.475118 -0.605031
v 0.882286 -0.481776 -0.583976
v 0.894150 -0.476367 -0.601082
v 0.886411 -0.478709 -0.593677
v 0.882286 -0.530492 -0.592069
v 0.904286 -0.534798 -0.614069
v 0.886411 -0.532476 -0.602205
v 0.894150 -0.533990 -0.609944
v 0.904286 -0.602962 -0.545905
v 0.882286 -0.580962 -0.541599
v 0.894150 -0.598836 -0.545098
v 0.886412 -0.591098 -0.543583
v 0.904286 -0.566203 -0.601286
v 0.882286 -0.553791 -0.582586
v 0.894150 -0.563875 -0.597780
v 0.886411 -0.559509 -0.591202
v 0.904286 -0.590179 -0.577310
v 0.882286 -0.571478 -0.564898
v 0.894150 -0.586672 -0.574983
v 0.886412 -0.580094 -0.570617
v 0.882286 -0.580962 -0.529098
v 0.904286 -0.602962 -0.526670
v 0.886412 -0.591098 -0.527980
v 0.894150 -0.598836 -0.527125
v 0.904286 -0.554762 -0.410306
v 0.882286 -0.537489 -0.424146
v 0.894150 -0.551523 -0.412902
v 0.886412 -0.545447 -0.417769
v 0.904286 -0.593923 -0.486226
v 0.882286 -0.572868 -0.492884
v 0.894150 -0.589975 -0.487474
v 0.886412 -0.582569 -0.489816
v 0.904286 -0.576969 -0.445296
v 0.882286 -0.557374 -0.455476
v 0.894150 -0.573295 -0.447205
v 0.886412 -0.566402 -0.450786
v 0.882286 -0.261190 -0.396748
v 0.904286 -0.230077 -0.396748
v 0.886411 -0.246855 -0.396748
v 0.894150 -0.235912 -0.396748
v 0.904286 -0.275313 -0.441984
v 0.882286 -0.275313 -0.410872
v 0.894150 -0.275313 -0.436150
v 0.886411 -0.275313 -0.425206
v 0.882286 -0.399764 -0.286421
v 0.904286 -0.430877 -0.286421
v 0.886412 -0.414099 -0.286421
v 0.894150 -0.425042 -0.286421
v 0.904286 -0.385641 -0.241185
v 0.882286 -0.385641 -0.272297
v 0.894150 -0.385641 -0.247019
v 0.886412 -0.385641 -0.257963
v 0.904286 0.589169 0.432870
v 0.882286 0.558057 0.432870
v 0.894150 0.583335 0.432870
v 0.886411 0.572391 0.432870
v 0.882286 0.433606 0.557321
v 0.904286 0.433606 0.588433
v 0.886411 0.433606 0.571655
v 0.894150 0.433606 0.582599
v 0.882286 0.467966 0.342779
v 0.904286 0.481805 0.325506
v 0.886411 0.474342 0.334821
v 0.894150 0.479210 0.328745
v 0.904286 0.365442 0.277306
v 0.882286 0.363013 0.299306
v 0.894150 0.364986 0.281432
v 0.886411 0.364132 0.289170
v 0.904286 0.446816 0.303299
v 0.882286 0.436636 0.322894
v 0.894150 0.444907 0.306973
v 0.886411 0.441326 0.313866
v 0.904286 0.405886 0.286345
v 0.882286 0.399228 0.307400
v 0.894150 0.404637 0.290293
v 0.886411 0.402295 0.297699
v 0.882286 0.350512 0.299306
v 0.904286 0.346207 0.277306
v 0.886411 0.348529 0.289170
v 0.894150 0.347014 0.281432
v 0.904286 0.278042 0.345470
v 0.882286 0.300042 0.349776
v 0.894150 0.282168 0.346278
v 0.886411 0.289906 0.347792
v 0.904286 0.314801 0.290089
v 0.882286 0.327213 0.308789
v 0.894150 0.317129 0.293596
v 0.886411 0.321495 0.300174
v 0.904286 0.290825 0.314065
v 0.882286 0.309526 0.326477
v 0.894150 0.294332 0.316393
v 0.886411 0.300910 0.320758
v 0.882286 0.300042 0.362277
v 0.904286 0.278042 0.364706
v 0.886411 0.289906 0.363396
v 0.894150 0.282168 0.364250
v 0.904286 0.326242 0.481069
v 0.882286 0.343515 0.467230
v 0.894150 0.329481 0.478474
v 0.886411 0.335557 0.473606
v 0.904286 0.287081 0.405150
v 0.882286 0.308136 0.398492
v 0.894150 0.291029 0.403901
v 0.886411 0.298435 0.401559
v 0.904286 0.304035 0.446079
v 0.882286 0.323630 0.435899
v 0.894150 0.307709 0.444171
v 0.886411 0.314602 0.440590
v 0.882286 0.619814 0.494627
v 0.904286 0.650927 0.494627
v 0.886411 0.634149 0.494627
v 0.894150 0.645092 0.494627
v 0.904286 0.605691 0.449391
v 0.882286 0.605691 0.480504
v 0.894150 0.605691 0.455226
v 0.886411 0.605691 0.466169
v 0.882286 0.481240 0.604955
v 0.904286 0.450127 0.604955
v 0.886411 0.466905 0.604955
v 0.894150 0.455962 0.604955
v 0.904286 0.495363 0.650191
v 0.882286 0.495363 0.619078
v 0.894150 0.495363 0.644356
v 0.886411 0.495363 0.633413
v 1.000000 0.907382 -0.585097
v 1.000000 0.585097 -0.907382
v 1.000000 -0.585097 -0.907382
v 1.000000 -0.907382 -0.585097
v 1.000000 0.907382 0.585097
v 1.000000 0.585097 0.907382
v 1.000000 -0.585097 0.907382
v 1.000000 -0.907382 0.585097
v 1.000000 0.650927 0.494627
v 1.000000 0.605691 0.449391
v 1.000000 0.495363 0.650191
v 1.000000 0.450127 0.604955
v 1.000000 0.433606 0.588433
v 1.000000 0.589169 0.432870
v 1.000000 0.481805 0.325506
v 1.000000 0.446816 0.303298
v 1.000000 0.326242 0.481069
v 1.000000 0.314801 0.290089
v 1.000000 0.290825 0.314065
v 1.000000 0.304035 0.446079
v 1.000000 0.278042 0.345470
v 1.000000 0.278042 0.364706
v 1.000000 0.287081 0.405150
v 1.000000 0.405886 0.286345
v 1.000000 0.365442 0.277306
v 1.000000 0.355133 0.277306
v 1.000000 0.346207 0.277306
v 1.000000 -0.385641 -0.241185
v 1.000000 -0.230077 -0.396748
v 1.000000 -0.554762 -0.410306
v 1.000000 -0.447398 -0.302942
v 1.000000 -0.430877 -0.286421
v 1.000000 -0.275313 -0.441984
v 1.000000 -0.291835 -0.458506
v 1.000000 -0.576969 -0.445296
v 1.000000 -0.593923 -0.486226
v 1.000000 -0.602962 -0.526670
v 1.000000 -0.399199 -0.565870
v 1.000000 -0.434188 -0.588077
v 1.000000 -0.566203 -0.601286
v 1.000000 -0.590179 -0.577310
v 1.000000 -0.602962 -0.545905
v 1.000000 -0.475118 -0.605031
v 1.000000 -0.515562 -0.614069
v 1.000000 -0.534798 -0.614069
vt -0.012188 1.000379
vt -0.012188 1.000379
vt -0.012188 1.000379
vt -0.012188 1.000379
vt -0.012188 1.000379
vt -0.012188 1.000379
vt -0.012188 1.000379
vt -0.012188 1.000379
vt -0.012188 1.000379
vt -0.012188 1.000379
vt -0.012188 1.000379
vt -0.012188 1.000379
vt -0.012188 1.000379
vt -0.012188 1.000379
vt -0.012188 1.000379
vt -0.012188 1.000379
vt -0.012188 1.000379
vt -0.012188 1.000379
vt -0.012188 1.000379
vt -0.012188 1.000379
vt -0.012188 1.000379
vt -0.012188 1.000379
vt -0.012188 1.000379
vt -0.012188 1.000379
vt -0.012188 1.000379
vt -0.012188 1.000379
vt -0.012188 1.000379
vt -0.012188 1.000379
vt -0.012188 1.000379
vt -0.012188 1.000379
vt -0.012188 1.000379
vt -0.012188 1.000379
vt -0.012188 1.000379
vt -0.012188 1.000379
vt -0.012188 1.000379
vt -0.012188 1.000379
vt -0.012188 1.000379
vt -0.012188 1.000379
vt -0.012188 1.000379
vt -0.012188 1.000379
vt -0.012188 1.000379
vt -0.012188 1.000379
vt -0.012188 1.000379
vt -0.012188 1.000379
vt -0.012188 1.000379
vt -0.012188 1.000379
vt -0.012188 1.000379
vt -0.012188 1.000379
vt -0.012188 1.000379
vt -0.012188 1.000379
vt -0.012188 1.000379
vt -0.012188 1.000379
vt -0.012188 1.000379
vt -0.012188 1.000379
vt -0.012188 1.000379
vt -0.012188 1.000379
vt -0.012188 1.000379
vt -0.012188 1.000379
vt -0.012188 1.000379
vt -0.012188 1.000379
vt -0.012188 1.000379
vt -0.012188 1.000379
vt -0.012188 1.000379
vt -0.012188 1.000379
vt -0.012188 1.000379
vt -0.012188 1.000379
vt -0.012188 1.000379
vt -0.012188 1.000379
vt -0.012188 1.000379
vt -0.012188 1.000379
vt -0.012188 1.000379
vt -0.012188 1.000379
vt -0.012188 1.000379
vt -0.012188 1.000379
vt -0.012188 1.000379
vt -0.012188 1.000379
vt -0.012188 1.000379
vt -0.012188 1.000379
vt -0.012188 1.000379
vt -0.012188 1.000379
vt -0.012188 1.000379
vt -0.012188 1.000379
vt -0.012188 1.000379
vt -0.012188 1.000379
vt -0.012188 1.000379
vt -0.012188 1.000379
vt -0.012188 1.000379
vt -0.012188 1.000379
vt -0.012188 1.000379
vt -0.012188 1.000379
vt -0.012188 1.000379
vt -0.012188 1.000379
vt -0.012188 1.000379
vt -0.012188 1.000379
vt -0.012188 1.000379
vt -0.012188 1.000379
vt -0.012188 1.000379
vt -0.012188 1.000379
vt -0.012188 1.000379
vt -0.012188 1.000379
vt -0.012188 1.000379
vt -0.012188 1.000379
vt -0.012188 1.000379
vt -0.012188 1.000379
vt -0.012188 1.000379
vt -0.012188 1.000379
vt -0.012188 1.000379
vt -0.012188 1.000379
vt -0.012188 1.000379
vt -0.012188 1.000379
vt -0.012188 1.000379
vt -0.012188 1.000379
vt -0.012188 1.000379
vt -0.012188 1.000379
vt -0.012188 1.000379
vt -0.012188 1.000379
vt -0.012188 1.000379
vt -0.012188 1.000379
vt -0.012188 1.000379
vt -0.012188 1.000379
vt -0.012188 1.000379
vt -0.012188 1.000379
vt -0.012188 1.000379
vt -0.012188 1.000379
vt -0.012188 1.000379
vt -0.012188 1.000379
vt -0.012188 1.000379
vt -0.012188 1.000379
vt -0.012188 1.000379
vt -0.012188 1.000379
vt -0.012188 1.000379
vt -0.012188 1.000379
vt -0.012188 1.000379
vt -0.012188 1.000379
vt -0.012188 1.000379
vt -0.012188 1.000379
vt -0.012188 1.000379
vt -0.012188 1.000379
vt -0.012188 1.000379
vt -0.012188 1.000379
vt -0.012188 1.000379
vt -0.012188 1.000379
vt -0.012188 1.000379
vt -0.012188 1.000379
vt -0.012188 1.000379
vt -0.012188 1.000379
vt -0.012188 1.000379
vt -0.012188 1.000379
vt -0.012188 1.000379
vt -0.012188 1.000379
vt -0.012188 1.000379
vt -0.012188 1.000379
vt -0.012188 1.000379
vt -0.012188 1.000379
vt -0.012188 1.000379
vt -0.012188 1.000379
vt -0.012188 1.000379
vt -0.012188 1.000379
vt -0.012188 1.000379
vt -0.012188 1.000379
vt -0.012188 1.000379
vt -0.012188 1.000379
vt -0.012188 1.000379
vt -0.012188 1.000379
vt -0.012188 1.000379
vt -0.012188 1.000379
vt -0.012188 1.000379
vt -0.012188 1.000379
vt -0.012188 1.000379
vt -0.012188 1.000379
vt -0.012188 1.000379
vt -0.008530 -0.010346
vt -0.008654 -0.010370
vt -0.008658 -0.010387
vt -0.008781 -0.010398
vt -0.008662 -0.010215
vt -0.008788 -0.010405
vt -0.009014 -0.010734
vt -0.008743 -0.010487
vt -0.009014 -0.010726
vt -0.009271 -0.010824
vt -0.009103 -0.010851
vt -0.009167 -0.010787
vt -0.009141 -0.010762
vt -0.009097 -0.010718
vt -0.009271 -0.010346
vt -0.012188 1.000379
vt -0.012188 1.000379
vt -0.012188 1.000379
vt -0.012188 1.000379
vt -0.012188 1.000379
vt -0.012188 1.000379
vt -0.012188 1.000379
vt -0.012188 1.000379
vt -0.012188 1.000379
vt -0.012188 1.000379
vt -0.008530 -0.010824
vt -0.008674 -0.010418
vt -0.008659 -0.010349
vt -0.008654 -0.010362
vt -0.008682 -0.010334
vt -0.008669 -0.010340
vt -0.008718 -0.010461
vt -0.008662 -0.010956
vt -0.008665 -0.010403
vt -0.008690 -0.010334
vt -0.008725 -0.010468
vt -0.008706 -0.010338
vt -0.008723 -0.010345
vt -0.008738 -0.010354
vt -0.008807 -0.010423
vt -0.009029 -0.010704
vt -0.009018 -0.010751
vt -0.009025 -0.010768
vt -0.009140 -0.010215
vt -0.009046 -0.010699
vt -0.009042 -0.010699
vt -0.009140 -0.010956
vt -0.009078 -0.010826
vt -0.009034 -0.010782
vt -0.009019 -0.010714
vt -0.009148 -0.010769
vt -0.009085 -0.010832
vt -0.009050 -0.010699
vt -0.009066 -0.010702
vt -0.009083 -0.010709
vn -0.0000 -0.7071 -0.7071
vn 0.0000 -0.7071 0.7071
vn -0.0000 0.9239 -0.3827
vn 0.0000 0.3770 0.9262
vn -0.0000 0.7071 -0.7071
vn 0.0000 -0.0000 1.0000
vn 0.0000 -0.3827 0.9239
vn -0.0000 0.9262 0.3770
vn 1.0000 0.0000 -0.0000
vn 0.0000 0.7071 0.7071
vn -0.0000 0.9759 -0.2181
vn 0.0000 -0.5359 0.8443
vn -0.0000 1.0000 -0.0000
vn -0.0000 0.8443 -0.5359
vn 0.0000 -0.2181 0.9759
vn 0.3770 -0.6549 -0.6549
vn 0.7071 -0.5000 -0.5000
vn 0.9262 -0.2666 -0.2666
vn 0.3770 -0.4963 0.7820
vn 0.7071 -0.3789 0.5970
vn 0.9262 -0.2020 0.3183
vn 0.3770 -0.3545 0.8557
vn 0.7071 -0.2706 0.6533
vn 0.9262 -0.1443 0.3483
vn 0.3770 -0.2020 0.9039
vn 0.7071 -0.1542 0.6901
vn 0.9262 -0.0822 0.3679
vn 0.3770 0.3492 0.8579
vn 0.7071 0.2666 0.6549
vn 0.9262 0.1421 0.3492
vn 0.3770 0.6549 0.6549
vn 0.7071 0.5000 0.5000
vn 0.9262 0.2666 0.2666
vn 0.3770 0.8579 0.3492
vn 0.7071 0.6549 0.2666
vn 0.9262 0.3492 0.1421
vn 0.3770 0.9039 -0.2020
vn 0.7071 0.6901 -0.1542
vn 0.9262 0.3679 -0.0822
vn 0.3770 0.8557 -0.3544
vn 0.7071 0.6533 -0.2706
vn 0.9262 0.3483 -0.1443
vn 0.3770 0.7820 -0.4963
vn 0.7071 0.5970 -0.3789
vn 0.9262 0.3183 -0.2020
vn 0.9262 -0.2666 0.2666
vn 0.7071 -0.5000 0.5000
vn 0.3770 -0.6549 0.6549
vn 0.3770 -0.0000 0.9262
vn 0.7071 -0.0000 0.7071
vn 0.9262 0.0000 0.3770
vn 0.3770 0.9262 0.0000
vn 0.7071 0.7071 -0.0000
vn 0.9262 0.3770 0.0000
vn 0.3770 0.6549 -0.6549
vn 0.7071 0.5000 -0.5000
vn 0.9262 0.2666 -0.2666
vn 0.3770 0.8557 -0.3545
vn 0.3770 -0.3544 0.8557
s off
f 173/1/1 69/2/1 58/3/1
f 182/4/2 1/5/2 10/6/2
f 179/7/3 49/8/3 53/9/3
f 184/10/4 26/11/4 33/12/4
f 6/13/5 174/14/5 45/15/5
f 189/16/6 13/17/6 26/11/6
f 187/18/7 17/19/7 21/20/7
f 186/21/8 37/22/8 29/23/8
f 57/24/9 65/25/9 62/26/9
f 37/22/10 184/10/10 33/12/10
f 49/8/11 181/27/11 42/28/11
f 172/29/5 66/30/5 69/2/5
f 183/31/12 10/6/12 17/19/12
f 181/27/13 29/23/13 42/28/13
f 176/32/10 61/33/10 66/30/10
f 174/14/14 53/9/14 45/15/14
f 41/34/9 34/35/9 14/36/9
f 188/37/15 21/20/15 13/17/15
f 8/38/16 1/5/16 6/13/16
f 8/38/17 4/39/17 3/40/17
f 5/41/18 4/39/18 7/42/18
f 12/43/19 17/19/19 10/6/19
f 11/44/20 19/45/20 12/43/20
f 9/46/21 20/47/21 11/44/21
f 19/45/22 21/20/22 17/19/22
f 20/47/23 23/48/23 19/45/23
f 18/49/24 24/50/24 20/47/24
f 21/20/25 15/51/25 13/17/25
f 23/48/26 16/52/26 15/51/26
f 24/50/27 14/36/27 16/52/27
f 26/11/28 35/53/28 33/12/28
f 28/54/29 36/55/29 35/53/29
f 27/56/30 34/35/30 36/55/30
f 35/53/31 37/22/31 33/12/31
f 36/55/32 39/57/32 35/53/32
f 34/35/33 40/58/33 36/55/33
f 39/57/34 29/23/34 37/22/34
f 40/58/35 31/59/35 39/57/35
f 38/60/36 32/61/36 40/58/36
f 44/62/37 49/8/37 42/28/37
f 43/63/38 51/64/38 44/62/38
f 41/34/39 52/65/39 43/63/39
f 49/8/40 55/66/40 53/9/40
f 51/64/41 56/67/41 55/66/41
f 52/65/42 54/68/42 56/67/42
f 53/9/43 47/69/43 45/15/43
f 55/66/44 48/70/44 47/69/44
f 56/67/45 46/71/45 48/70/45
f 11/44/46 2/72/46 9/46/46
f 12/43/47 4/39/47 11/44/47
f 10/6/48 3/40/48 12/43/48
f 13/17/49 28/54/49 26/11/49
f 15/51/50 27/56/50 28/54/50
f 16/52/51 25/73/51 27/56/51
f 31/59/52 42/28/52 29/23/52
f 32/61/53 44/62/53 31/59/53
f 30/74/54 43/63/54 32/61/54
f 45/15/55 8/38/55 6/13/55
f 47/69/56 7/42/56 8/38/56
f 48/70/57 5/41/57 7/42/57
f 1/5/1 175/75/1 6/13/1
f 68/76/55 69/2/55 66/30/55
f 68/76/56 72/77/56 71/78/56
f 67/79/57 70/80/57 72/77/57
f 58/3/48 63/81/48 61/33/48
f 60/82/47 64/83/47 63/81/47
f 57/24/46 64/83/46 59/84/46
f 67/79/33 62/26/33 65/25/33
f 67/79/32 63/81/32 64/83/32
f 66/30/31 63/81/31 68/76/31
f 71/78/16 58/3/16 69/2/16
f 71/78/17 59/84/17 60/82/17
f 72/77/18 57/24/18 59/84/18
f 177/85/2 58/3/2 61/33/2
f 153/86/1 141/87/1 130/88/1
f 159/89/2 73/90/2 82/91/2
f 125/92/3 167/93/3 121/94/3
f 105/95/4 171/96/4 98/97/4
f 157/98/5 117/99/5 78/100/5
f 170/101/6 169/102/6 85/103/6
f 168/104/7 89/105/7 93/106/7
f 165/107/8 109/108/8 101/109/8
f 129/110/9 137/111/9 134/112/9
f 109/108/10 162/113/10 105/95/10
f 167/93/11 114/114/11 121/94/11
f 141/87/5 156/115/5 138/116/5
f 160/117/12 82/91/12 89/105/12
f 166/118/13 101/109/13 114/114/13
f 156/115/10 133/119/10 138/116/10
f 161/120/14 125/92/14 117/99/14
f 113/121/9 106/122/9 86/123/9
f 169/102/15 93/106/15 85/103/15
f 80/124/16 73/90/16 78/100/16
f 80/124/17 76/125/17 75/126/17
f 77/127/18 76/125/18 79/128/18
f 84/129/19 89/105/19 82/91/19
f 83/130/20 91/131/20 84/129/20
f 81/132/21 92/133/21 83/130/21
f 89/105/22 95/134/22 93/106/22
f 92/133/23 95/134/23 91/131/23
f 92/133/24 94/135/24 96/136/24
f 93/106/25 87/137/25 85/103/25
f 95/134/26 88/138/26 87/137/26
f 96/136/27 86/123/27 88/138/27
f 98/97/28 107/139/28 105/95/28
f 100/140/29 108/141/29 107/139/29
f 99/142/30 106/122/30 108/141/30
f 105/95/31 111/143/31 109/108/31
f 107/139/32 112/144/32 111/143/32
f 108/141/33 110/145/33 112/144/33
f 111/143/34 101/109/34 109/108/34
f 112/144/35 103/146/35 111/143/35
f 110/145/36 104/147/36 112/144/36
f 116/148/37 121/94/37 114/114/37
f 115/149/38 123/150/38 116/148/38
f 113/121/39 124/151/39 115/149/39
f 123/150/58 125/92/58 121/94/58
f 123/150/41 128/152/41 127/153/41
f 124/151/42 126/154/42 128/152/42
f 125/92/43 119/155/43 117/99/43
f 127/153/44 120/156/44 119/155/44
f 128/152/45 118/157/45 120/156/45
f 83/130/46 74/158/46 81/132/46
f 84/129/47 76/125/47 83/130/47
f 82/91/48 75/126/48 84/129/48
f 85/103/49 100/140/49 98/97/49
f 87/137/50 99/142/50 100/140/50
f 88/138/51 97/159/51 99/142/51
f 103/146/52 114/114/52 101/109/52
f 104/147/53 116/148/53 103/146/53
f 102/160/54 115/149/54 104/147/54
f 117/99/55 80/124/55 78/100/55
f 119/155/56 79/128/56 80/124/56
f 120/156/57 77/127/57 79/128/57
f 158/161/1 78/100/1 73/90/1
f 138/116/55 143/162/55 141/87/55
f 140/163/56 144/164/56 143/162/56
f 137/111/57 144/164/57 139/165/57
f 132/166/48 133/119/48 130/88/48
f 132/166/47 136/167/47 135/168/47
f 131/169/46 134/112/46 136/167/46
f 137/111/33 136/167/33 134/112/33
f 139/165/32 135/168/32 136/167/32
f 140/163/31 133/119/31 135/168/31
f 143/162/16 130/88/16 141/87/16
f 144/164/17 132/166/17 143/162/17
f 142/170/18 131/169/18 144/164/18
f 154/171/2 130/88/2 133/119/2
f 148/172/9 181/173/9 180/174/9
f 178/175/9 147/176/9 177/177/9
f 166/178/9 172/179/9 165/180/9
f 149/181/9 155/182/9 153/183/9
f 158/184/9 159/185/9 145/186/9
f 173/1/1 172/29/1 69/2/1
f 182/4/2 178/187/2 1/5/2
f 179/7/3 180/188/3 49/8/3
f 184/10/4 189/16/4 26/11/4
f 6/13/5 175/75/5 174/14/5
f 189/16/6 188/37/6 13/17/6
f 187/18/7 183/31/7 17/19/7
f 186/21/8 185/189/8 37/22/8
f 57/24/9 70/80/9 65/25/9
f 37/22/10 185/189/10 184/10/10
f 49/8/11 180/188/11 181/27/11
f 172/29/5 176/32/5 66/30/5
f 183/31/12 182/4/12 10/6/12
f 181/27/13 186/21/13 29/23/13
f 176/32/10 177/85/10 61/33/10
f 174/14/14 179/7/14 53/9/14
f 2/72/9 5/41/9 46/71/9
f 46/71/9 54/68/9 18/49/9
f 54/68/9 50/190/9 18/49/9
f 50/190/9 41/34/9 14/36/9
f 41/34/9 30/74/9 38/60/9
f 34/35/9 41/34/9 38/60/9
f 34/35/9 25/73/9 14/36/9
f 14/36/9 22/191/9 50/190/9
f 22/191/9 18/49/9 50/190/9
f 18/49/9 9/46/9 46/71/9
f 9/46/9 2/72/9 46/71/9
f 188/37/15 187/18/15 21/20/15
f 8/38/16 3/40/16 1/5/16
f 8/38/17 7/42/17 4/39/17
f 5/41/18 2/72/18 4/39/18
f 12/43/19 19/45/19 17/19/19
f 11/44/20 20/47/20 19/45/20
f 9/46/21 18/49/21 20/47/21
f 19/45/59 23/48/59 21/20/59
f 20/47/23 24/50/23 23/48/23
f 18/49/24 22/191/24 24/50/24
f 21/20/25 23/48/25 15/51/25
f 23/48/26 24/50/26 16/52/26
f 24/50/27 22/191/27 14/36/27
f 26/11/28 28/54/28 35/53/28
f 28/54/29 27/56/29 36/55/29
f 27/56/30 25/73/30 34/35/30
f 35/53/31 39/57/31 37/22/31
f 36/55/32 40/58/32 39/57/32
f 34/35/33 38/60/33 40/58/33
f 39/57/34 31/59/34 29/23/34
f 40/58/35 32/61/35 31/59/35
f 38/60/36 30/74/36 32/61/36
f 44/62/37 51/64/37 49/8/37
f 43/63/38 52/65/38 51/64/38
f 41/34/39 50/190/39 52/65/39
f 49/8/58 51/64/58 55/66/58
f 51/64/41 52/65/41 56/67/41
f 52/65/42 50/190/42 54/68/42
f 53/9/43 55/66/43 47/69/43
f 55/66/44 56/67/44 48/70/44
f 56/67/45 54/68/45 46/71/45
f 11/44/46 4/39/46 2/72/46
f 12/43/47 3/40/47 4/39/47
f 10/6/48 1/5/48 3/40/48
f 13/17/49 15/51/49 28/54/49
f 15/51/50 16/52/50 27/56/50
f 16/52/51 14/36/51 25/73/51
f 31/59/52 44/62/52 42/28/52
f 32/61/53 43/63/53 44/62/53
f 30/74/54 41/34/54 43/63/54
f 45/15/55 47/69/55 8/38/55
f 47/69/56 48/70/56 7/42/56
f 48/70/57 46/71/57 5/41/57
f 1/5/1 178/187/1 175/75/1
f 68/76/55 71/78/55 69/2/55
f 68/76/56 67/79/56 72/77/56
f 67/79/57 65/25/57 70/80/57
f 58/3/48 60/82/48 63/81/48
f 60/82/47 59/84/47 64/83/47
f 57/24/46 62/26/46 64/83/46
f 67/79/33 64/83/33 62/26/33
f 67/79/32 68/76/32 63/81/32
f 66/30/31 61/33/31 63/81/31
f 71/78/16 60/82/16 58/3/16
f 71/78/17 72/77/17 59/84/17
f 72/77/18 70/80/18 57/24/18
f 177/85/2 173/1/2 58/3/2
f 153/86/1 155/192/1 141/87/1
f 159/89/2 158/161/2 73/90/2
f 125/92/3 164/193/3 167/93/3
f 105/95/4 162/113/4 171/96/4
f 157/98/5 161/120/5 117/99/5
f 85/103/6 98/97/6 170/101/6
f 98/97/6 171/96/6 170/101/6
f 168/104/7 160/117/7 89/105/7
f 165/107/8 163/194/8 109/108/8
f 129/110/9 142/170/9 137/111/9
f 109/108/10 163/194/10 162/113/10
f 167/93/11 166/118/11 114/114/11
f 141/87/5 155/192/5 156/115/5
f 160/117/12 159/89/12 82/91/12
f 166/118/13 165/107/13 101/109/13
f 156/115/10 154/171/10 133/119/10
f 161/120/14 164/193/14 125/92/14
f 74/158/9 77/127/9 118/157/9
f 118/157/9 126/154/9 90/195/9
f 126/154/9 122/196/9 90/195/9
f 122/196/9 113/121/9 86/123/9
f 113/121/9 102/160/9 110/145/9
f 106/122/9 113/121/9 110/145/9
f 106/122/9 97/159/9 86/123/9
f 86/123/9 94/135/9 122/196/9
f 94/135/9 90/195/9 122/196/9
f 90/195/9 81/132/9 118/157/9
f 81/132/9 74/158/9 118/157/9
f 169/102/15 168/104/15 93/106/15
f 80/124/16 75/126/16 73/90/16
f 80/124/17 79/128/17 76/125/17
f 77/127/18 74/158/18 76/125/18
f 84/129/19 91/131/19 89/105/19
f 83/130/20 92/133/20 91/131/20
f 81/132/21 90/195/21 92/133/21
f 89/105/59 91/131/59 95/134/59
f 92/133/23 96/136/23 95/134/23
f 92/133/24 90/195/24 94/135/24
f 93/106/25 95/134/25 87/137/25
f 95/134/26 96/136/26 88/138/26
f 96/136/27 94/135/27 86/123/27
f 98/97/28 100/140/28 107/139/28
f 100/140/29 99/142/29 108/141/29
f 99/142/30 97/159/30 106/122/30
f 105/95/31 107/139/31 111/143/31
f 107/139/32 108/141/32 112/144/32
f 108/141/33 106/122/33 110/145/33
f 111/143/34 103/146/34 101/109/34
f 112/144/35 104/147/35 103/146/35
f 110/145/36 102/160/36 104/147/36
f 116/148/37 123/150/37 121/94/37
f 115/149/38 124/151/38 123/150/38
f 113/121/39 122/196/39 124/151/39
f 123/150/40 127/153/40 125/92/40
f 123/150/41 124/151/41 128/152/41
f 124/151/42 122/196/42 126/154/42
f 125/92/43 127/153/43 119/155/43
f 127/153/44 128/152/44 120/156/44
f 128/152/45 126/154/45 118/157/45
f 83/130/46 76/125/46 74/158/46
f 84/129/47 75/126/47 76/125/47
f 82/91/48 73/90/48 75/126/48
f 85/103/49 87/137/49 100/140/49
f 87/137/50 88/138/50 99/142/50
f 88/138/51 86/123/51 97/159/51
f 103/146/52 116/148/52 114/114/52
f 104/147/53 115/149/53 116/148/53
f 102/160/54 113/121/54 115/149/54
f 117/99/55 119/155/55 80/124/55
f 119/155/56 120/156/56 79/128/56
f 120/156/57 118/157/57 77/127/57
f 158/161/1 157/98/1 78/100/1
f 138/116/55 140/163/55 143/162/55
f 140/163/56 139/165/56 144/164/56
f 137/111/57 142/170/57 144/164/57
f 132/166/48 135/168/48 133/119/48
f 132/166/47 131/169/47 136/167/47
f 131/169/46 129/110/46 134/112/46
f 137/111/33 139/165/33 136/167/33
f 139/165/32 140/163/32 135/168/32
f 140/163/31 138/116/31 133/119/31
f 143/162/16 132/166/16 130/88/16
f 144/164/17 131/169/17 132/166/17
f 142/170/18 129/110/18 131/169/18
f 154/171/2 153/86/2 130/88/2
f 152/197/9 148/172/9 174/198/9
f 148/172/9 147/176/9 185/199/9
f 186/200/9 148/172/9 185/199/9
f 147/176/9 189/201/9 184/202/9
f 147/176/9 184/202/9 185/199/9
f 175/203/9 151/204/9 152/197/9
f 174/198/9 175/203/9 152/197/9
f 148/172/9 186/200/9 181/173/9
f 179/205/9 174/198/9 148/172/9
f 180/174/9 179/205/9 148/172/9
f 188/206/9 189/201/9 147/176/9
f 176/207/9 172/179/9 151/204/9
f 187/208/9 188/206/9 147/176/9
f 176/207/9 151/204/9 175/203/9
f 176/207/9 175/203/9 177/177/9
f 175/203/9 178/175/9 177/177/9
f 183/209/9 187/208/9 147/176/9
f 182/210/9 183/209/9 147/176/9
f 178/175/9 182/210/9 147/176/9
f 151/204/9 172/179/9 166/178/9
f 172/179/9 173/211/9 162/212/9
f 151/204/9 167/213/9 164/214/9
f 173/211/9 177/177/9 146/215/9
f 177/177/9 147/176/9 146/215/9
f 146/215/9 170/216/9 173/211/9
f 170/216/9 171/217/9 173/211/9
f 150/218/9 151/204/9 157/219/9
f 167/213/9 151/204/9 166/178/9
f 173/211/9 171/217/9 162/212/9
f 161/220/9 157/219/9 151/204/9
f 164/214/9 161/220/9 151/204/9
f 162/212/9 163/221/9 172/179/9
f 163/221/9 165/180/9 172/179/9
f 149/181/9 150/218/9 155/182/9
f 153/183/9 154/222/9 149/181/9
f 154/222/9 145/186/9 149/181/9
f 146/215/9 145/186/9 170/216/9
f 145/186/9 154/222/9 158/184/9
f 156/223/9 155/182/9 150/218/9
f 169/224/9 170/216/9 145/186/9
f 168/225/9 169/224/9 145/186/9
f 156/223/9 150/218/9 157/219/9
f 156/223/9 157/219/9 154/222/9
f 157/219/9 158/184/9 154/222/9
f 160/226/9 168/225/9 145/186/9
f 159/185/9 160/226/9 145/186/9
