# Blender v2.90.1 OBJ File: 'dice5.blend'
# www.blender.org
o Dice.002_Cube.072
v -0.268796 -0.082304 0.196886
v -0.242690 -0.120626 0.170780
v -0.266960 -0.103102 0.195050
v -0.256858 -0.117931 0.184948
v -0.136489 -0.082304 0.196886
v -0.162596 -0.120626 0.170780
v -0.138326 -0.103102 0.195050
v -0.148428 -0.117931 0.184948
v -0.268796 -0.082304 -0.200034
v -0.242690 -0.120626 -0.173927
v -0.266960 -0.103102 -0.198198
v -0.256858 -0.117931 -0.188096
v -0.136489 -0.082304 -0.200034
v -0.162596 -0.120626 -0.173927
v -0.138326 -0.103102 -0.198198
v -0.148428 -0.117931 -0.188096
v -0.268796 -0.082304 -0.067727
v -0.242690 -0.120626 -0.041621
v -0.266960 -0.103102 -0.065891
v -0.256858 -0.117931 -0.055789
v -0.242690 -0.120626 0.038473
v -0.268796 -0.082304 0.064580
v -0.256858 -0.117931 0.052641
v -0.266960 -0.103102 0.062743
v -0.136489 -0.082304 0.064580
v -0.162596 -0.120626 0.038473
v -0.138326 -0.103102 0.062743
v -0.148428 -0.117931 0.052641
v -0.162596 -0.120626 -0.041621
v -0.136489 -0.082304 -0.067727
v -0.148428 -0.117931 -0.055789
v -0.138326 -0.103102 -0.065891
v -0.374996 -0.120626 -0.041621
v -0.401103 -0.082304 -0.067727
v -0.389164 -0.117931 -0.055789
v -0.399267 -0.103102 -0.065891
v -0.401103 -0.082304 0.064580
v -0.374996 -0.120626 0.038473
v -0.399267 -0.103102 0.062743
v -0.389164 -0.117931 0.052641
v -0.030289 -0.120626 0.038473
v -0.004183 -0.082304 0.064580
v -0.016121 -0.117931 0.052641
v -0.006019 -0.103102 0.062743
v -0.004183 -0.082304 -0.067727
v -0.030289 -0.120626 -0.041621
v -0.006019 -0.103102 -0.065891
v -0.016121 -0.117931 -0.055789
v 0.185332 -0.158661 0.300895
v 0.145576 -0.118905 0.261140
v 0.154360 -0.149877 0.269924
v 0.145576 -0.118905 -0.290278
v 0.185332 -0.158661 -0.330034
v 0.154360 -0.149877 -0.299062
v 0.048185 -0.118905 -0.290278
v 0.087941 -0.158661 -0.330034
v 0.056970 -0.149877 -0.299062
v 0.048185 -0.118905 -0.355205
v 0.087941 -0.158661 -0.338738
v 0.056970 -0.149877 -0.351567
v 0.145576 -0.118905 -0.452595
v 0.162043 -0.158661 -0.412840
v 0.149214 -0.149877 -0.443811
v 0.210503 -0.118905 -0.452595
v 0.210503 -0.158661 -0.412840
v 0.210503 -0.149877 -0.443811
v 0.275429 -0.118905 -0.452595
v 0.235674 -0.158661 -0.412840
v 0.266645 -0.149877 -0.443811
v 0.235674 -0.158661 0.301220
v 0.275429 -0.118905 0.261370
v 0.266645 -0.149877 0.270175
v 0.087941 -0.158661 0.300895
v 0.048185 -0.118905 0.261140
v 0.056970 -0.149877 0.269924
v 0.087941 -0.158661 0.318774
v 0.048185 -0.118905 0.358530
v 0.056970 -0.149877 0.349746
v 0.333064 -0.158661 0.318774
v 0.372820 -0.118905 0.358530
v 0.364036 -0.149877 0.349746
v 0.333064 -0.158661 0.300989
v 0.372820 -0.118905 0.261140
v 0.364036 -0.149877 0.269944
v 0.585097 0.000000 -0.907382
v 0.907382 0.000000 -0.585097
v 0.907382 -0.000000 0.585097
v 0.585097 -0.000000 0.907382
v -0.907382 0.000000 -0.585097
v -0.585097 0.000000 -0.907382
v -0.585097 -0.000000 0.907382
v -0.907382 -0.000000 0.585097
v 0.275429 0.000000 -0.452596
v 0.210503 0.000000 -0.452596
v 0.145576 0.000000 -0.452596
v 0.048185 0.000000 -0.355205
v 0.275429 -0.000000 0.261370
v 0.048185 0.000000 -0.290278
v 0.145576 -0.000000 0.061297
v 0.145576 -0.000000 0.261140
v 0.145576 0.000000 -0.290278
v -0.268796 0.000000 -0.067727
v -0.268796 0.000000 -0.200034
v -0.136489 0.000000 -0.200034
v -0.136489 0.000000 -0.067727
v -0.004183 0.000000 -0.067727
v -0.004183 -0.000000 0.064580
v -0.004183 -0.000000 0.006487
v -0.401103 0.000000 -0.067727
v -0.401103 -0.000000 0.064580
v -0.136489 -0.000000 0.064580
v -0.136489 -0.000000 0.196886
v -0.268796 -0.000000 0.196886
v -0.268796 -0.000000 0.064580
v 0.372820 -0.000000 0.358530
v 0.372820 -0.000000 0.261140
v 0.048185 -0.000000 0.358530
v 0.048185 -0.000000 0.261140
vt 0.001056 1.006801
vt 0.001056 1.007041
vt 0.001056 1.007041
vt 0.000101 1.006801
vt 0.000822 1.006404
vt 0.000822 1.006801
vt -0.000134 1.006801
vt -0.000134 1.007041
vt -0.000134 1.006801
vt 0.000101 1.007041
vt 0.000822 1.007041
vt 0.000101 1.007438
vt 0.000822 1.007438
vt 0.001056 1.007120
vt 0.001048 1.007514
vt 0.001056 1.007117
vt 0.000949 1.007481
vt 0.001003 1.007084
vt -0.000134 1.007517
vt 0.001056 1.007517
vt -0.000126 1.007514
vt -0.000027 1.007481
vt -0.000134 1.006723
vt -0.000126 1.006329
vt -0.000134 1.006726
vt -0.000027 1.006362
vt -0.000081 1.006759
vt 0.000101 1.006404
vt -0.000134 1.006326
vt 0.001048 1.006329
vt 0.000949 1.006362
vt 0.001056 1.006723
vt 0.001056 1.006326
vt 0.001056 1.006726
vt 0.001003 1.006759
vt -0.000134 1.007120
vt -0.000134 1.007117
vt -0.000081 1.007084
vt 0.001056 1.007120
vt 0.001056 1.006726
vt 0.001056 1.006723
vt 0.001056 1.007117
vt 0.001056 1.006759
vt 0.001056 1.007084
vt 0.001056 1.006801
vt -0.000134 1.006723
vt -0.000134 1.007117
vt -0.000134 1.007120
vt -0.000134 1.006759
vt -0.000134 1.007084
vt -0.000134 1.007041
vt -0.000134 1.006726
vt 0.001056 1.007517
vt 0.001056 1.007517
vt 0.001056 1.007517
vt 0.001056 1.007517
vt 0.001056 1.007517
vt 0.001056 1.007517
vt 0.001056 1.007517
vt 0.001056 1.007517
vt 0.001056 1.007517
vt 0.001056 1.007517
vt 0.001056 1.007517
vt 0.001056 1.007517
vt 0.001056 1.007517
vt 0.001056 1.007517
vt 0.001056 1.007517
vt 0.001056 1.007517
vt 0.001056 1.007517
vt 0.001056 1.007517
vt 0.001056 1.007517
vt 0.001056 1.007517
vt 0.001056 1.007517
vt 0.001056 1.007517
vt 0.001056 1.007517
vt 0.001056 1.007517
vt 0.001056 1.007517
vt 0.001056 1.007517
vt 0.001056 1.007517
vt 0.001056 1.007517
vt 0.001056 1.007517
vt 0.001056 1.007517
vt 0.001056 1.007517
vt 0.001056 1.007517
vt 0.001056 1.007517
vt 0.001056 1.007517
vt 0.001056 1.007517
vt 0.000514 -0.004900
vt 0.000548 -0.005042
vt 0.000596 -0.004994
vt 0.001056 1.006723
vt 0.001056 1.006723
vt 0.001056 1.007517
vt 0.001056 1.007517
vt 0.001056 1.007517
vt 0.001056 1.007517
vt 0.001056 1.007120
vt 0.001056 1.007517
vt 0.001056 1.007120
vt 0.001056 1.007517
vt -0.000134 1.006723
vt -0.000134 1.006326
vt 0.001056 1.007517
vt 0.001056 1.007517
vt 0.001056 1.007517
vt 0.001056 1.007517
vt 0.001056 1.007517
vt -0.000134 1.007120
vt -0.000134 1.006946
vt 0.001056 1.006326
vt -0.000134 1.007517
vt -0.000134 1.007120
vt 0.001056 1.007517
vt 0.001056 1.007517
vt 0.001056 1.007517
vt 0.000490 -0.004927
vt 0.000490 -0.004947
vt 0.000394 -0.004866
vt 0.000500 -0.004866
vt 0.000500 -0.004852
vt -0.000134 1.006723
vt 0.001056 1.007517
vt 0.000596 -0.004820
vt 0.000548 -0.004772
vt 0.000514 -0.004852
vt 0.000500 -0.004900
vt 0.000500 -0.004885
vt 0.000470 -0.004885
vt 0.000462 -0.004908
vt 0.000471 -0.004908
vt 0.000471 -0.004927
vt 0.000471 -0.004947
vt 0.000471 -0.004967
vt 0.000374 -0.005042
vt 0.000451 -0.004967
vt 0.000451 -0.004947
vt 0.000431 -0.004947
vt 0.000431 -0.004927
vt 0.000451 -0.004927
vt 0.000451 -0.004908
vt 0.000418 -0.004885
vt 0.000418 -0.004900
vt 0.000408 -0.004900
vt 0.000394 -0.004885
vt 0.000394 -0.004876
vt 0.000326 -0.004820
vt 0.000326 -0.004994
vt 0.000374 -0.004772
vn 0.0000 1.0000 0.0000
vn 0.9961 0.0879 0.0000
vn 0.8265 0.5630 0.0000
vn 0.1869 0.9824 0.0000
vn 0.0000 0.0879 -0.9961
vn 0.0000 0.5630 -0.8265
vn 0.0000 0.9824 -0.1869
vn -0.9961 0.0879 0.0000
vn -0.8265 0.5630 0.0000
vn -0.1869 0.9824 0.0000
vn 0.0000 0.0879 0.9961
vn 0.0000 0.5630 0.8265
vn 0.0000 0.9824 0.1869
vn 0.9621 0.2729 0.0000
vn 0.2729 0.9621 0.0000
vn 0.0000 0.2729 -0.9621
vn 0.0000 0.9621 -0.2729
vn 0.6803 0.2729 0.6803
vn 0.1929 0.9621 0.1929
vn 0.0000 0.2729 0.9621
vn 0.0000 0.9621 0.2729
vn -0.9621 0.2729 0.0000
vn -0.2729 0.9621 0.0000
vn 0.0023 0.2729 0.9621
vn 0.0006 0.9621 0.2729
vn 0.0000 0.0000 1.0000
vn 1.0000 0.0000 -0.0000
vn -1.0000 0.0000 0.0000
vn 0.0024 0.0000 1.0000
vn 0.0000 -0.0000 -1.0000
vn 0.7071 0.0000 0.7071
s off
f 18/1/1 38/2/1 21/3/1
f 29/4/1 10/5/1 18/6/1
f 29/7/1 41/8/1 46/9/1
f 26/10/1 18/6/1 21/11/1
f 6/12/1 21/11/1 2/13/1
f 22/14/2 3/15/2 24/16/2
f 24/16/3 4/17/3 23/18/3
f 23/18/4 2/13/4 21/11/4
f 5/19/5 3/15/5 1/20/5
f 7/21/6 4/17/6 3/15/6
f 8/22/7 2/13/7 4/17/7
f 30/23/8 15/24/8 32/25/8
f 32/25/9 16/26/9 31/27/9
f 31/27/10 14/28/10 29/4/10
f 13/29/11 11/30/11 15/24/11
f 11/30/12 16/26/12 15/24/12
f 12/31/13 14/28/13 16/26/13
f 17/32/2 11/30/2 9/33/2
f 19/34/3 12/31/3 11/30/3
f 20/35/4 10/5/4 12/31/4
f 25/36/8 7/21/8 5/19/8
f 27/37/9 8/22/9 7/21/9
f 28/38/10 6/12/10 8/22/10
f 37/39/2 36/40/2 34/41/2
f 39/42/3 35/43/3 36/40/3
f 40/44/4 33/45/4 35/43/4
f 17/32/11 36/40/11 19/34/11
f 19/34/12 35/43/12 20/35/12
f 20/35/13 33/45/13 18/1/13
f 22/14/5 39/42/5 37/39/5
f 24/16/6 40/44/6 39/42/6
f 23/18/7 38/2/7 40/44/7
f 45/46/8 44/47/8 42/48/8
f 44/47/9 48/49/9 43/50/9
f 48/49/10 41/8/10 43/50/10
f 25/36/5 44/47/5 27/37/5
f 27/37/6 43/50/6 28/38/6
f 28/38/7 41/8/7 26/51/7
f 30/23/11 47/52/11 45/46/11
f 32/25/12 48/49/12 47/52/12
f 31/27/13 46/9/13 48/49/13
f 51/53/14 52/54/14 50/55/14
f 49/56/15 54/57/15 51/53/15
f 52/54/16 57/58/16 55/59/16
f 54/57/17 56/60/17 57/58/17
f 57/58/14 58/61/14 55/59/14
f 56/60/15 60/62/15 57/58/15
f 58/61/18 63/63/18 61/64/18
f 59/65/19 63/63/19 60/62/19
f 63/63/20 64/66/20 61/64/20
f 62/67/21 66/68/21 63/63/21
f 64/66/20 69/69/20 67/70/20
f 66/68/21 68/71/21 69/69/21
f 75/72/20 50/55/20 74/73/20
f 73/74/21 51/53/21 75/72/21
f 78/75/14 74/73/14 77/76/14
f 76/77/15 75/72/15 78/75/15
f 81/78/16 77/76/16 80/79/16
f 79/80/17 78/75/17 81/78/17
f 84/81/22 80/79/22 83/82/22
f 82/83/23 81/78/23 84/81/23
f 71/84/24 84/81/24 83/82/24
f 72/85/25 82/83/25 84/81/25
f 69/69/22 71/84/22 67/70/22
f 68/71/23 72/85/23 69/69/23
f 53/86/1 49/56/1 70/87/1
f 117/88/1 92/89/1 91/90/1
f 34/41/26 102/91/26 109/92/26
f 52/54/27 101/93/27 99/94/27
f 67/70/28 97/95/28 93/96/28
f 37/39/27 109/92/27 110/97/27
f 71/84/29 116/98/29 97/95/29
f 1/20/27 114/99/27 113/100/27
f 13/29/28 105/101/28 104/102/28
f 80/79/30 117/103/30 115/104/30
f 96/105/31 61/64/31 95/106/31
f 64/66/26 93/96/26 94/107/26
f 42/48/28 107/108/28 108/109/28
f 9/33/26 104/102/26 103/110/26
f 25/36/28 112/111/28 111/112/28
f 52/54/30 98/113/30 101/93/30
f 74/73/26 100/114/26 118/115/26
f 22/14/30 110/97/30 114/99/30
f 102/91/27 9/33/27 103/110/27
f 112/116/1 113/117/1 117/88/1
f 93/118/1 97/119/1 116/120/1
f 83/82/28 115/104/28 116/98/28
f 77/76/27 118/115/27 117/103/27
f 61/64/26 94/107/26 95/106/26
f 30/23/26 106/121/26 105/101/26
f 5/19/30 113/100/30 112/111/30
f 42/48/30 111/112/30 107/108/30
f 98/113/27 58/61/27 96/105/27
f 18/1/1 33/45/1 38/2/1
f 29/4/1 14/28/1 10/5/1
f 29/7/1 26/51/1 41/8/1
f 26/10/1 29/4/1 18/6/1
f 6/12/1 26/10/1 21/11/1
f 22/14/2 1/20/2 3/15/2
f 24/16/3 3/15/3 4/17/3
f 23/18/4 4/17/4 2/13/4
f 5/19/5 7/21/5 3/15/5
f 7/21/6 8/22/6 4/17/6
f 8/22/7 6/12/7 2/13/7
f 30/23/8 13/29/8 15/24/8
f 32/25/9 15/24/9 16/26/9
f 31/27/10 16/26/10 14/28/10
f 13/29/11 9/33/11 11/30/11
f 11/30/12 12/31/12 16/26/12
f 12/31/13 10/5/13 14/28/13
f 17/32/2 19/34/2 11/30/2
f 19/34/3 20/35/3 12/31/3
f 20/35/4 18/6/4 10/5/4
f 25/36/8 27/37/8 7/21/8
f 27/37/9 28/38/9 8/22/9
f 28/38/10 26/10/10 6/12/10
f 37/39/2 39/42/2 36/40/2
f 39/42/3 40/44/3 35/43/3
f 40/44/4 38/2/4 33/45/4
f 17/32/11 34/41/11 36/40/11
f 19/34/12 36/40/12 35/43/12
f 20/35/13 35/43/13 33/45/13
f 22/14/5 24/16/5 39/42/5
f 24/16/6 23/18/6 40/44/6
f 23/18/7 21/3/7 38/2/7
f 45/46/8 47/52/8 44/47/8
f 44/47/9 47/52/9 48/49/9
f 48/49/10 46/9/10 41/8/10
f 25/36/5 42/48/5 44/47/5
f 27/37/6 44/47/6 43/50/6
f 28/38/7 43/50/7 41/8/7
f 30/23/11 32/25/11 47/52/11
f 32/25/12 31/27/12 48/49/12
f 31/27/13 29/7/13 46/9/13
f 51/53/14 54/57/14 52/54/14
f 49/56/15 53/86/15 54/57/15
f 52/54/16 54/57/16 57/58/16
f 54/57/17 53/86/17 56/60/17
f 57/58/14 60/62/14 58/61/14
f 56/60/15 59/65/15 60/62/15
f 58/61/18 60/62/18 63/63/18
f 59/65/19 62/67/19 63/63/19
f 63/63/20 66/68/20 64/66/20
f 62/67/21 65/122/21 66/68/21
f 64/66/20 66/68/20 69/69/20
f 66/68/21 65/122/21 68/71/21
f 75/72/20 51/53/20 50/55/20
f 73/74/21 49/56/21 51/53/21
f 78/75/14 75/72/14 74/73/14
f 76/77/15 73/74/15 75/72/15
f 81/78/16 78/75/16 77/76/16
f 79/80/17 76/77/17 78/75/17
f 84/81/22 81/78/22 80/79/22
f 82/83/23 79/80/23 81/78/23
f 71/84/24 72/85/24 84/81/24
f 72/85/25 70/87/25 82/83/25
f 69/69/22 72/85/22 71/84/22
f 68/71/23 70/87/23 72/85/23
f 49/56/1 73/74/1 76/77/1
f 76/77/1 79/80/1 70/87/1
f 79/80/1 82/83/1 70/87/1
f 70/87/1 68/71/1 53/86/1
f 68/71/1 65/122/1 53/86/1
f 49/56/1 76/77/1 70/87/1
f 65/122/1 62/67/1 53/86/1
f 62/67/1 59/65/1 53/86/1
f 59/65/1 56/60/1 53/86/1
f 91/90/1 88/123/1 117/88/1
f 88/123/1 87/124/1 115/125/1
f 87/124/1 116/120/1 115/125/1
f 115/125/1 117/88/1 88/123/1
f 34/41/26 17/32/26 102/91/26
f 99/94/27 100/114/27 50/55/27
f 50/55/27 52/54/27 99/94/27
f 67/70/28 71/84/28 97/95/28
f 37/39/27 34/41/27 109/92/27
f 71/84/29 83/82/29 116/98/29
f 1/20/27 22/14/27 114/99/27
f 13/29/28 30/23/28 105/101/28
f 80/79/30 77/76/30 117/103/30
f 96/105/31 58/61/31 61/64/31
f 64/66/26 67/70/26 93/96/26
f 108/109/28 106/121/28 45/46/28
f 45/46/28 42/48/28 108/109/28
f 9/33/26 13/29/26 104/102/26
f 25/36/28 5/19/28 112/111/28
f 52/54/30 55/59/30 98/113/30
f 74/73/26 50/55/26 100/114/26
f 22/14/30 37/39/30 110/97/30
f 102/91/27 17/32/27 9/33/27
f 92/89/1 117/88/1 113/117/1
f 117/88/1 118/126/1 112/116/1
f 118/126/1 100/127/1 99/128/1
f 99/128/1 108/129/1 107/130/1
f 107/130/1 111/131/1 112/116/1
f 113/117/1 114/132/1 110/133/1
f 99/128/1 107/130/1 118/126/1
f 107/130/1 112/116/1 118/126/1
f 113/117/1 110/133/1 92/89/1
f 92/89/1 110/133/1 89/134/1
f 110/133/1 109/135/1 89/134/1
f 109/135/1 102/136/1 103/137/1
f 104/138/1 105/139/1 106/140/1
f 106/140/1 108/129/1 99/128/1
f 99/128/1 101/141/1 106/140/1
f 101/141/1 98/142/1 106/140/1
f 104/138/1 106/140/1 98/142/1
f 104/138/1 98/142/1 96/143/1
f 103/137/1 104/138/1 96/143/1
f 95/144/1 94/145/1 85/146/1
f 94/145/1 93/118/1 85/146/1
f 103/137/1 96/143/1 90/147/1
f 96/143/1 95/144/1 90/147/1
f 89/134/1 109/135/1 103/137/1
f 85/146/1 90/147/1 95/144/1
f 90/147/1 89/134/1 103/137/1
f 87/124/1 86/148/1 116/120/1
f 86/148/1 85/146/1 93/118/1
f 116/120/1 86/148/1 93/118/1
f 83/82/28 80/79/28 115/104/28
f 77/76/27 74/73/27 118/115/27
f 61/64/26 64/66/26 94/107/26
f 30/23/26 45/46/26 106/121/26
f 5/19/30 1/20/30 113/100/30
f 42/48/30 25/36/30 111/112/30
f 98/113/27 55/59/27 58/61/27
