# Blender v2.90.1 OBJ File: 'dice4.blend'
# www.blender.org
o OneUp_1_Cube.071
v -0.268796 -0.082304 0.196886
v -0.242690 -0.120626 0.170780
v -0.266960 -0.103102 0.195050
v -0.256858 -0.117931 0.184948
v -0.136489 -0.082304 0.196886
v -0.162596 -0.120626 0.170780
v -0.138326 -0.103102 0.195050
v -0.148428 -0.117931 0.184948
v -0.268796 -0.082304 -0.200034
v -0.242690 -0.120626 -0.173927
v -0.266960 -0.103102 -0.198198
v -0.256858 -0.117931 -0.188096
v -0.136489 -0.082304 -0.200034
v -0.162596 -0.120626 -0.173927
v -0.138326 -0.103102 -0.198198
v -0.148428 -0.117931 -0.188096
v -0.268796 -0.082304 -0.067727
v -0.242690 -0.120626 -0.041621
v -0.266960 -0.103102 -0.065891
v -0.256858 -0.117931 -0.055789
v -0.242690 -0.120626 0.038473
v -0.268796 -0.082304 0.064580
v -0.256858 -0.117931 0.052641
v -0.266960 -0.103102 0.062743
v -0.136489 -0.082304 0.064580
v -0.162596 -0.120626 0.038473
v -0.138326 -0.103102 0.062743
v -0.148428 -0.117931 0.052641
v -0.162596 -0.120626 -0.041621
v -0.136489 -0.082304 -0.067727
v -0.148428 -0.117931 -0.055789
v -0.138326 -0.103102 -0.065891
v -0.374996 -0.120626 -0.041621
v -0.401103 -0.082304 -0.067727
v -0.389164 -0.117931 -0.055789
v -0.399267 -0.103102 -0.065891
v -0.401103 -0.082304 0.064580
v -0.374996 -0.120626 0.038473
v -0.399267 -0.103102 0.062743
v -0.389164 -0.117931 0.052641
v -0.030289 -0.120626 0.038473
v -0.004183 -0.082304 0.064580
v -0.016121 -0.117931 0.052641
v -0.006019 -0.103102 0.062743
v -0.004183 -0.082304 -0.067727
v -0.030289 -0.120626 -0.041621
v -0.006019 -0.103102 -0.065891
v -0.016121 -0.117931 -0.055789
v 0.145576 -0.158661 0.261140
v 0.145576 -0.158661 -0.290278
v 0.048185 -0.158661 -0.290278
v 0.048185 -0.158661 -0.355205
v 0.145576 -0.158661 -0.452596
v 0.210503 -0.158661 -0.452596
v 0.275429 -0.158661 -0.452596
v 0.275429 -0.158661 0.261370
v 0.048185 -0.158661 0.261140
v 0.048185 -0.158661 0.358530
v 0.372820 -0.158661 0.358530
v 0.372820 -0.158661 0.261140
v 0.622416 -0.002967 -0.914192
v 0.585097 -0.003687 -0.936715
v 0.616574 -0.010061 -0.940600
v 0.936715 -0.003687 -0.585097
v 0.914192 -0.002967 -0.622416
v 0.940696 -0.009976 -0.616754
v 0.914192 -0.002967 0.622416
v 0.936715 -0.003687 0.585097
v 0.940600 -0.010061 0.616574
v 0.585097 -0.003687 0.936715
v 0.622416 -0.002967 0.914192
v 0.616754 -0.009976 0.940696
v -0.914192 -0.002967 -0.622416
v -0.936715 -0.003687 -0.585097
v -0.940600 -0.010061 -0.616574
v -0.585097 -0.003687 -0.936715
v -0.622416 -0.002967 -0.914192
v -0.616754 -0.009976 -0.940696
v -0.622416 -0.002967 0.914192
v -0.585097 -0.003687 0.936715
v -0.616574 -0.010061 0.940600
v -0.936715 -0.003687 0.585097
v -0.914192 -0.002967 0.622416
v -0.940696 -0.009976 0.616754
v 0.145576 -0.003687 -0.452596
v 0.210503 -0.003687 -0.452596
v 0.048185 -0.003687 -0.355205
v 0.275429 -0.003687 -0.452596
v 0.275429 -0.003687 0.261370
v 0.048185 -0.003687 -0.290278
v 0.145576 -0.003687 -0.290278
v 0.145576 -0.003687 0.090930
v 0.145576 -0.003687 0.261140
v -0.268796 -0.003687 -0.067727
v -0.136489 -0.003687 -0.067727
v -0.268796 -0.003687 -0.200034
v -0.136489 -0.003687 -0.200034
v -0.004183 -0.003687 -0.067727
v -0.004183 -0.003687 -0.002613
v -0.004183 -0.003687 0.064580
v -0.401103 -0.003687 -0.067727
v -0.401103 -0.003687 0.064580
v 0.372820 -0.003687 0.261140
v 0.372820 -0.003687 0.358530
v 0.048185 -0.003687 0.358530
v 0.048185 -0.003687 0.261140
v -0.136489 -0.003687 0.064580
v -0.136489 -0.003687 0.196886
v -0.268796 -0.003687 0.196886
v -0.268796 -0.003687 0.064580
vt 0.002910 1.002002
vt 0.002910 1.001997
vt 0.002910 1.001997
vt 0.002929 1.002002
vt 0.002915 1.002010
vt 0.002933 1.001997
vt 0.002933 1.002002
vt 0.002929 1.001990
vt 0.002915 1.001990
vt 0.002910 1.001996
vt 0.002910 1.001988
vt 0.002910 1.001996
vt 0.002912 1.001989
vt 0.002911 1.001997
vt 0.002933 1.001988
vt 0.002910 1.001988
vt 0.002933 1.001988
vt 0.002931 1.001989
vt 0.002933 1.002004
vt 0.002933 1.002011
vt 0.002933 1.002004
vt 0.002931 1.002011
vt 0.002932 1.002003
vt 0.002929 1.002010
vt 0.002933 1.002011
vt 0.002910 1.002011
vt 0.002912 1.002011
vt 0.002910 1.002004
vt 0.002910 1.002011
vt 0.002910 1.002004
vt 0.002911 1.002003
vt 0.002933 1.001996
vt 0.002933 1.001996
vt 0.002932 1.001997
vt 0.002910 1.001996
vt 0.002910 1.002004
vt 0.002910 1.002004
vt 0.002910 1.001996
vt 0.002910 1.002003
vt 0.002910 1.001997
vt 0.002910 1.002002
vt 0.002933 1.002004
vt 0.002933 1.001996
vt 0.002933 1.001996
vt 0.002933 1.002004
vt 0.002933 1.001997
vt 0.002933 1.002003
vt 0.002933 1.001997
vt 0.002910 1.001988
vt 0.002910 1.001988
vt 0.002910 1.001988
vt -0.001994 -0.004458
vt -0.001994 -0.004458
vt -0.001994 -0.004458
vt 0.002910 1.002004
vt 0.002910 1.002004
vt 0.002910 1.001988
vt 0.002910 1.001988
vt 0.002910 1.001988
vt 0.002910 1.001988
vt 0.002910 1.001988
vt 0.002910 1.001988
vt 0.002910 1.001996
vt 0.002910 1.001988
vt 0.002910 1.001988
vt 0.002910 1.001996
vt 0.002910 1.001988
vt 0.002933 1.002004
vt 0.002933 1.002011
vt 0.002910 1.001988
vt 0.002910 1.001988
vt 0.002910 1.001988
vt 0.002910 1.001988
vt 0.002910 1.001988
vt 0.002910 1.001988
vt 0.002910 1.001988
vt 0.002910 1.001988
vt 0.002933 1.001996
vt 0.002933 1.002000
vt 0.002910 1.002011
vt 0.002933 1.001988
vt 0.002933 1.001996
vt 0.002910 1.001988
vt 0.002910 1.001988
vt 0.002910 1.001988
vt 0.002910 1.001988
vt 0.002910 1.001988
vt -0.001993 -0.004457
vt -0.001991 -0.004456
vt -0.001991 -0.004456
vt 0.002933 1.002004
vt 0.002910 1.001988
vt -0.001996 -0.004460
vt -0.001996 -0.004460
vt -0.001996 -0.004460
vt -0.001992 -0.004460
vt -0.001992 -0.004460
vt -0.001992 -0.004460
vt -0.001995 -0.004459
vt -0.001994 -0.004459
vt -0.001995 -0.004459
vt -0.001997 -0.004459
vt -0.001997 -0.004459
vt -0.001997 -0.004459
vt -0.001993 -0.004458
vt -0.001991 -0.004459
vt -0.001991 -0.004459
vt -0.001991 -0.004459
vt -0.001993 -0.004457
vt -0.001993 -0.004458
vt -0.001993 -0.004458
vt -0.001995 -0.004457
vt -0.001997 -0.004456
vt -0.001995 -0.004457
vt -0.001994 -0.004459
vt -0.001994 -0.004458
vt -0.001994 -0.004458
vt -0.001994 -0.004458
vt -0.001994 -0.004457
vt -0.001997 -0.004456
vt -0.001997 -0.004456
vt -0.001995 -0.004457
vt -0.001996 -0.004455
vt -0.001994 -0.004457
vt -0.001996 -0.004455
vt -0.001996 -0.004455
vt -0.001994 -0.004457
vt -0.001994 -0.004457
vt -0.001994 -0.004457
vt -0.001992 -0.004455
vt -0.001994 -0.004457
vt -0.001994 -0.004457
vt -0.001992 -0.004455
vt -0.001992 -0.004455
vt -0.001993 -0.004457
vt -0.001991 -0.004456
vn 0.0000 1.0000 0.0000
vn 0.9961 0.0879 0.0000
vn 0.8265 0.5630 0.0000
vn 0.1869 0.9824 0.0000
vn 0.0000 0.0879 -0.9961
vn 0.0000 0.5630 -0.8265
vn 0.0000 0.9824 -0.1869
vn -0.9961 0.0879 0.0000
vn -0.8265 0.5630 0.0000
vn -0.1869 0.9824 0.0000
vn 0.0000 0.0879 0.9961
vn 0.0000 0.5630 0.8265
vn 0.0000 0.9824 0.1869
vn 0.0000 0.0000 1.0000
vn -1.0000 0.0000 0.0000
vn 1.0000 -0.0000 0.0000
vn 0.0000 0.0000 -1.0000
vn 0.0024 0.0000 1.0000
vn 0.7071 0.0000 0.7071
vn -0.0083 0.9999 -0.0143
vn 0.1558 0.9448 -0.2883
vn -0.1525 0.9469 -0.2830
vn -0.0139 0.9999 -0.0089
vn 0.2830 0.9469 -0.1525
vn -0.0009 1.0000 0.0009
vn 0.0153 0.9999 -0.0066
vn 0.0007 1.0000 0.0007
vn -0.2883 0.9448 -0.1558
vn -0.0083 0.9999 0.0143
vn 0.0034 0.9998 0.0172
vn 0.2883 0.9448 0.1558
vn 0.0062 0.9999 -0.0155
vn -0.0009 1.0000 -0.0009
vn -0.0158 0.9999 0.0058
vn 0.1525 0.9469 0.2830
vn -0.1558 0.9448 0.2883
vn 0.0153 0.9999 0.0066
vn 0.0007 1.0000 -0.0007
vn -0.2830 0.9469 0.1525
s off
f 18/1/1 38/2/1 21/3/1
f 29/4/1 10/5/1 18/1/1
f 26/6/1 46/7/1 29/4/1
f 26/6/1 18/1/1 21/3/1
f 6/8/1 21/3/1 2/9/1
f 22/10/2 3/11/2 24/12/2
f 24/12/3 4/13/3 23/14/3
f 23/14/4 2/9/4 21/3/4
f 5/15/5 3/11/5 1/16/5
f 7/17/6 4/13/6 3/11/6
f 8/18/7 2/9/7 4/13/7
f 30/19/8 15/20/8 32/21/8
f 32/21/9 16/22/9 31/23/9
f 31/23/10 14/24/10 29/4/10
f 13/25/11 11/26/11 15/20/11
f 11/26/12 16/22/12 15/20/12
f 12/27/13 14/24/13 16/22/13
f 17/28/2 11/26/2 9/29/2
f 19/30/3 12/27/3 11/26/3
f 20/31/4 10/5/4 12/27/4
f 25/32/8 7/17/8 5/15/8
f 27/33/9 8/18/9 7/17/9
f 28/34/10 6/8/10 8/18/10
f 37/35/2 36/36/2 34/37/2
f 39/38/3 35/39/3 36/36/3
f 40/40/4 33/41/4 35/39/4
f 17/28/11 36/36/11 19/30/11
f 19/30/12 35/39/12 20/31/12
f 20/31/13 33/41/13 18/1/13
f 22/10/5 39/38/5 37/35/5
f 24/12/6 40/40/6 39/38/6
f 23/14/7 38/2/7 40/40/7
f 45/42/8 44/43/8 42/44/8
f 47/45/9 43/46/9 44/43/9
f 48/47/10 41/48/10 43/46/10
f 25/32/5 44/43/5 27/33/5
f 27/33/6 43/46/6 28/34/6
f 28/34/7 41/48/7 26/6/7
f 30/19/11 47/45/11 45/42/11
f 32/21/12 48/47/12 47/45/12
f 31/23/13 46/7/13 48/47/13
f 50/49/1 49/50/1 56/51/1
f 91/52/1 90/53/1 98/54/1
f 101/55/14 17/28/14 94/56/14
f 60/57/15 104/58/15 103/59/15
f 54/60/14 88/61/14 86/62/14
f 37/35/16 101/55/16 102/63/16
f 55/64/15 89/65/15 88/61/15
f 1/16/16 110/66/16 109/67/16
f 13/25/15 95/68/15 97/69/15
f 58/70/16 106/71/16 105/72/16
f 51/73/16 87/74/16 90/75/16
f 53/76/14 86/62/14 85/77/14
f 42/44/15 100/78/15 99/79/15
f 9/29/14 97/69/14 96/80/14
f 25/32/15 108/81/15 107/82/15
f 50/49/16 91/83/16 92/84/16
f 22/10/17 102/63/17 110/66/17
f 57/85/14 93/86/14 106/71/14
f 17/28/16 96/80/16 94/56/16
f 59/87/17 105/72/17 104/58/17
f 56/51/18 103/59/18 89/65/18
f 87/74/19 53/76/19 85/77/19
f 109/88/20 82/89/20 83/90/20
f 95/68/14 45/42/14 98/91/14
f 5/15/17 109/67/17 108/81/17
f 42/44/17 107/82/17 100/78/17
f 50/49/17 90/75/17 91/83/17
f 18/1/1 33/41/1 38/2/1
f 29/4/1 14/24/1 10/5/1
f 26/6/1 41/48/1 46/7/1
f 26/6/1 29/4/1 18/1/1
f 6/8/1 26/6/1 21/3/1
f 22/10/2 1/16/2 3/11/2
f 24/12/3 3/11/3 4/13/3
f 23/14/4 4/13/4 2/9/4
f 5/15/5 7/17/5 3/11/5
f 7/17/6 8/18/6 4/13/6
f 8/18/7 6/8/7 2/9/7
f 30/19/8 13/25/8 15/20/8
f 32/21/9 15/20/9 16/22/9
f 31/23/10 16/22/10 14/24/10
f 13/25/11 9/29/11 11/26/11
f 11/26/12 12/27/12 16/22/12
f 12/27/13 10/5/13 14/24/13
f 17/28/2 19/30/2 11/26/2
f 19/30/3 20/31/3 12/27/3
f 20/31/4 18/1/4 10/5/4
f 25/32/8 27/33/8 7/17/8
f 27/33/9 28/34/9 8/18/9
f 28/34/10 26/6/10 6/8/10
f 37/35/2 39/38/2 36/36/2
f 39/38/3 40/40/3 35/39/3
f 40/40/4 38/2/4 33/41/4
f 17/28/11 34/37/11 36/36/11
f 19/30/12 36/36/12 35/39/12
f 20/31/13 35/39/13 33/41/13
f 22/10/5 24/12/5 39/38/5
f 24/12/6 23/14/6 40/40/6
f 23/14/7 21/3/7 38/2/7
f 45/42/8 47/45/8 44/43/8
f 47/45/9 48/47/9 43/46/9
f 48/47/10 46/7/10 41/48/10
f 25/32/5 42/44/5 44/43/5
f 27/33/6 44/43/6 43/46/6
f 28/34/7 43/46/7 41/48/7
f 30/19/11 32/21/11 47/45/11
f 32/21/12 31/23/12 48/47/12
f 31/23/13 29/4/13 46/7/13
f 49/50/1 57/85/1 58/70/1
f 58/70/1 59/87/1 56/51/1
f 59/87/1 60/57/1 56/51/1
f 56/51/1 55/64/1 50/49/1
f 55/64/1 54/60/1 50/49/1
f 49/50/1 58/70/1 56/51/1
f 54/60/1 53/76/1 50/49/1
f 53/76/1 52/92/1 50/49/1
f 52/92/1 51/73/1 50/49/1
f 61/93/21 63/94/21 62/95/21
f 76/96/22 78/97/22 77/98/22
f 61/93/23 62/95/23 88/99/23
f 62/95/1 76/96/1 85/100/1
f 88/99/1 62/95/1 86/101/1
f 64/102/24 66/103/24 65/104/24
f 65/104/25 61/93/25 88/99/25
f 76/96/26 77/98/26 96/105/26
f 77/98/27 73/106/27 96/105/27
f 73/106/28 75/107/28 74/108/28
f 74/108/1 82/89/1 102/109/1
f 101/110/1 94/111/1 96/105/1
f 74/108/1 102/109/1 101/110/1
f 73/106/29 74/108/29 96/105/29
f 64/102/30 65/104/30 88/99/30
f 103/112/1 68/113/1 64/102/1
f 88/99/1 89/114/1 103/112/1
f 85/100/1 86/101/1 62/95/1
f 85/100/1 76/96/1 87/115/1
f 88/99/1 103/112/1 64/102/1
f 74/108/1 101/110/1 96/105/1
f 97/116/1 95/117/1 98/54/1
f 96/105/1 97/116/1 87/115/1
f 76/96/1 96/105/1 87/115/1
f 98/54/1 99/118/1 92/119/1
f 87/115/1 97/116/1 90/53/1
f 97/116/1 98/54/1 90/53/1
f 92/119/1 91/52/1 98/54/1
f 101/55/14 34/37/14 17/28/14
f 60/57/15 59/87/15 104/58/15
f 54/60/14 55/64/14 88/61/14
f 37/35/16 34/37/16 101/55/16
f 55/64/15 56/51/15 89/65/15
f 1/16/16 22/10/16 110/66/16
f 13/25/15 30/19/15 95/68/15
f 58/70/16 57/85/16 106/71/16
f 51/73/16 52/92/16 87/74/16
f 53/76/14 54/60/14 86/62/14
f 99/79/15 98/91/15 45/42/15
f 45/42/15 42/44/15 99/79/15
f 9/29/14 13/25/14 97/69/14
f 25/32/15 5/15/15 108/81/15
f 92/84/16 93/86/16 49/50/16
f 49/50/16 50/49/16 92/84/16
f 22/10/17 37/35/17 102/63/17
f 57/85/14 49/50/14 93/86/14
f 17/28/16 9/29/16 96/80/16
f 59/87/17 58/70/17 105/72/17
f 56/51/18 60/57/18 103/59/18
f 87/74/19 52/92/19 53/76/19
f 69/120/31 68/113/31 67/121/31
f 68/113/1 103/112/1 104/122/1
f 68/113/32 104/122/32 67/121/32
f 67/121/33 104/122/33 71/123/33
f 104/122/1 105/124/1 70/125/1
f 71/123/34 104/122/34 70/125/34
f 70/125/35 72/126/35 71/123/35
f 106/127/1 93/128/1 92/119/1
f 106/127/1 92/119/1 100/129/1
f 92/119/1 99/118/1 100/129/1
f 80/130/1 70/125/1 105/124/1
f 105/124/1 106/127/1 108/131/1
f 100/129/1 107/132/1 108/131/1
f 106/127/1 100/129/1 108/131/1
f 81/133/36 80/130/36 79/134/36
f 80/130/1 105/124/1 109/88/1
f 79/134/37 80/130/37 109/88/37
f 109/88/1 110/135/1 102/109/1
f 105/124/1 108/131/1 109/88/1
f 83/90/38 79/134/38 109/88/38
f 82/89/39 84/136/39 83/90/39
f 109/88/1 102/109/1 82/89/1
f 95/68/14 30/19/14 45/42/14
f 5/15/17 1/16/17 109/67/17
f 42/44/17 25/32/17 107/82/17
f 50/49/17 51/73/17 90/75/17
