# Blender v2.90.1 OBJ File: 'dice3.blend'
# www.blender.org
o Lightning_1.001_Cube.050
v 0.063418 -0.116031 0.001143
v 0.128095 -0.084184 0.032990
v 0.113804 -0.108994 0.025953
v 0.079825 -0.116031 0.147953
v 0.149068 -0.084184 0.179800
v 0.133768 -0.108994 0.172763
v -0.049230 -0.116031 0.147953
v -0.075078 -0.084184 0.179800
v -0.069367 -0.108994 0.172763
v 0.023230 -0.084184 0.032990
v -0.046012 -0.116031 0.001143
v 0.007931 -0.108994 0.025953
v -0.081634 -0.084184 -0.239658
v -0.019434 -0.116031 -0.106565
v -0.067891 -0.108994 -0.210251
v -0.039688 -0.084184 -0.050902
v 0.000013 -0.116031 -0.019055
v -0.030916 -0.108994 -0.043865
v -0.123580 -0.084184 -0.050902
v -0.084341 -0.116031 -0.019055
v -0.114910 -0.108994 -0.043865
v 0.585097 0.000000 0.907382
v 0.907382 0.000000 0.585097
v 0.585097 -0.000000 -0.907382
v 0.907382 -0.000000 -0.585097
v -0.585097 0.000000 0.907382
v -0.907382 0.000000 0.585097
v -0.585097 -0.000000 -0.907382
v -0.907382 -0.000000 -0.585097
v -0.075078 0.000000 0.179800
v -0.123580 -0.000000 -0.050902
v 0.128095 0.000000 0.032990
v -0.081634 -0.000000 -0.239658
v 0.023230 0.000000 0.032990
v -0.039688 -0.000000 -0.050902
v 0.149068 0.000000 0.179800
vt -0.002461 1.003999
vt -0.002461 1.003999
vt -0.002461 1.003999
vt -0.002461 1.003999
vt -0.002461 1.003999
vt -0.002461 1.003999
vt -0.002461 1.003999
vt -0.002461 1.003999
vt -0.002461 1.003999
vt -0.002461 1.003999
vt -0.002461 1.003999
vt -0.002461 1.003999
vt -0.002461 1.003999
vt -0.002461 1.003999
vt -0.002461 1.003999
vt -0.002461 1.003999
vt -0.002461 1.003999
vt -0.002461 1.003999
vt -0.002461 1.003999
vt -0.002461 1.003999
vt -0.002461 1.003999
vt -0.002461 1.003999
vt -0.002461 1.003999
vt -0.002461 1.003999
vt -0.002461 1.003999
vt -0.002461 1.003999
vt -0.002461 1.003999
vt -0.002461 1.003999
vt -0.001972 -0.006932
vt -0.001972 -0.006935
vt -0.001961 -0.006927
vt -0.001975 -0.006934
vt -0.001985 -0.006927
vt -0.001985 -0.006942
vt -0.001961 -0.006942
vt -0.001966 -0.006923
vt -0.001981 -0.006923
vt -0.001975 -0.006932
vt -0.001966 -0.006947
vt -0.001972 -0.006938
vt -0.001973 -0.006935
vt -0.001974 -0.006934
vt -0.001981 -0.006947
vn 0.0000 -0.0000 -1.0000
vn 0.9786 -0.0000 -0.2057
vn 0.0000 1.0000 -0.0000
vn 0.9762 0.0000 -0.2169
vn 0.0000 0.0000 1.0000
vn -0.7593 0.0000 0.6508
vn -0.7304 0.2729 0.6261
vn -0.2072 0.9621 0.1776
vn -0.7625 0.2729 0.5866
vn -0.2163 0.9621 0.1664
vn -0.0000 0.2729 -0.9621
vn 0.0000 0.9621 -0.2729
vn 0.9391 0.2729 -0.2087
vn 0.2664 0.9621 -0.0592
vn 0.0000 0.2729 0.9621
vn 0.0000 0.9621 0.2729
vn 0.9415 0.2729 -0.1979
vn 0.2670 0.9621 -0.0561
vn -0.7926 0.0000 0.6097
s off
f 10/1/1 32/2/1 2/3/1
f 8/4/1 36/5/1 5/6/1
f 19/7/2 30/8/2 8/4/2
f 11/9/3 17/10/3 20/11/3
f 13/12/4 35/13/4 16/14/4
f 16/14/5 31/15/5 19/7/5
f 5/6/6 34/16/6 10/1/6
f 10/1/7 6/17/7 5/6/7
f 12/18/8 4/19/8 6/17/8
f 2/3/9 15/20/9 3/21/9
f 3/21/10 14/22/10 1/23/10
f 10/1/11 3/21/11 12/18/11
f 12/18/12 1/23/12 11/9/12
f 8/4/11 6/17/11 9/24/11
f 9/24/12 4/19/12 7/25/12
f 16/14/13 15/20/13 13/12/13
f 18/26/14 14/22/14 15/20/14
f 16/14/15 21/27/15 18/26/15
f 18/26/16 20/11/16 17/10/16
f 8/4/17 21/27/17 19/7/17
f 9/24/18 20/11/18 21/27/18
f 2/3/19 33/28/19 13/12/19
f 30/29/3 31/30/3 27/31/3
f 32/32/3 23/33/3 25/34/3
f 10/1/1 34/16/1 32/2/1
f 8/4/1 30/8/1 36/5/1
f 19/7/2 31/15/2 30/8/2
f 7/25/3 4/19/3 11/9/3
f 1/23/3 14/22/3 17/10/3
f 20/11/3 7/25/3 11/9/3
f 11/9/3 1/23/3 17/10/3
f 13/12/4 33/28/4 35/13/4
f 16/14/5 35/13/5 31/15/5
f 5/6/6 36/5/6 34/16/6
f 10/1/7 12/18/7 6/17/7
f 12/18/8 11/9/8 4/19/8
f 2/3/9 13/12/9 15/20/9
f 3/21/10 15/20/10 14/22/10
f 10/1/11 2/3/11 3/21/11
f 12/18/12 3/21/12 1/23/12
f 8/4/11 5/6/11 6/17/11
f 9/24/12 6/17/12 4/19/12
f 16/14/13 18/26/13 15/20/13
f 18/26/14 17/10/14 14/22/14
f 16/14/15 19/7/15 21/27/15
f 18/26/16 21/27/16 20/11/16
f 8/4/17 9/24/17 21/27/17
f 9/24/18 7/25/18 20/11/18
f 2/3/19 32/2/19 33/28/19
f 29/35/3 27/31/3 31/30/3
f 27/31/3 26/36/3 30/29/3
f 26/36/3 22/37/3 30/29/3
f 22/37/3 23/33/3 36/38/3
f 30/29/3 22/37/3 36/38/3
f 28/39/3 29/35/3 33/40/3
f 29/35/3 31/30/3 33/40/3
f 31/30/3 35/41/3 33/40/3
f 32/32/3 34/42/3 36/38/3
f 32/32/3 36/38/3 23/33/3
f 28/39/3 33/40/3 24/43/3
f 33/40/3 32/32/3 25/34/3
f 25/34/3 24/43/3 33/40/3
