# Blender v2.90.1 OBJ File: 'dice3.blend'
# www.blender.org
o Lightning_2.001_Cube.051
v -0.462679 -0.116030 0.492236
v -0.494526 -0.084183 0.556913
v -0.487489 -0.108994 0.542622
v -0.609489 -0.116030 0.508643
v -0.641336 -0.084183 0.577886
v -0.634299 -0.108994 0.562586
v -0.609489 -0.116030 0.379588
v -0.641336 -0.084183 0.353740
v -0.634299 -0.108994 0.359451
v -0.494526 -0.084183 0.452048
v -0.462679 -0.116031 0.382806
v -0.487489 -0.108994 0.436749
v -0.221879 -0.084184 0.347184
v -0.354971 -0.116031 0.409384
v -0.251285 -0.108994 0.360927
v -0.410634 -0.084184 0.389130
v -0.442481 -0.116031 0.428831
v -0.417671 -0.108994 0.397902
v -0.410634 -0.084184 0.305238
v -0.442481 -0.116031 0.344477
v -0.417671 -0.108994 0.313908
v 0.456761 -0.116031 -0.371421
v 0.424914 -0.084184 -0.306744
v 0.431951 -0.108994 -0.321034
v 0.309951 -0.116031 -0.355013
v 0.278104 -0.084184 -0.285771
v 0.285141 -0.108994 -0.301070
v 0.309951 -0.116031 -0.484069
v 0.278104 -0.084184 -0.509917
v 0.285141 -0.108994 -0.504206
v 0.424914 -0.084184 -0.411608
v 0.456761 -0.116031 -0.480851
v 0.431951 -0.108994 -0.426908
v 0.697561 -0.084184 -0.516473
v 0.564469 -0.116031 -0.454273
v 0.668155 -0.108994 -0.502729
v 0.508806 -0.084184 -0.474527
v 0.476959 -0.116031 -0.434826
v 0.501769 -0.108994 -0.465755
v 0.508806 -0.084184 -0.558418
v 0.476959 -0.116031 -0.519180
v 0.501769 -0.108994 -0.549749
v -0.907382 0.000000 -0.585097
v -0.585097 0.000000 -0.907382
v 0.585097 -0.000000 -0.907382
v 0.907382 -0.000000 -0.585097
v -0.907382 0.000000 0.585097
v -0.585097 0.000000 0.907382
v 0.585097 -0.000000 0.907382
v 0.907382 -0.000000 0.585097
v -0.410634 0.000000 0.305238
v -0.641336 0.000000 0.353740
v -0.641336 0.000000 0.577885
v -0.494526 0.000000 0.452048
v -0.494526 0.000000 0.556913
v -0.221878 0.000000 0.347184
v -0.410634 0.000000 0.389130
v 0.508806 -0.000000 -0.558418
v 0.278104 -0.000000 -0.285771
v 0.278104 -0.000000 -0.509917
v 0.424914 -0.000000 -0.411608
v 0.697561 -0.000000 -0.516473
v 0.424914 -0.000000 -0.306744
v 0.508806 -0.000000 -0.474527
vt -0.002461 1.003999
vt -0.002461 1.003999
vt -0.002461 1.003999
vt -0.002461 1.003999
vt -0.002461 1.003999
vt -0.002461 1.003999
vt -0.002461 1.003999
vt -0.002461 1.003999
vt -0.002461 1.003999
vt -0.002461 1.003999
vt -0.002461 1.003999
vt -0.002461 1.003999
vt -0.002461 1.003999
vt -0.002461 1.003999
vt -0.002461 1.003999
vt -0.002461 1.003999
vt -0.002461 1.003999
vt -0.002461 1.003999
vt -0.002461 1.003999
vt -0.002461 1.003999
vt -0.002461 1.003999
vt -0.002461 1.003999
vt -0.002461 1.003999
vt -0.002461 1.003999
vt -0.002461 1.003999
vt -0.002461 1.003999
vt -0.002461 1.003999
vt -0.002461 1.003999
vt -0.002461 1.003999
vt -0.002461 1.003999
vt -0.002461 1.003999
vt -0.002461 1.003999
vt -0.002461 1.003999
vt -0.002461 1.003999
vt -0.002461 1.003999
vt -0.002461 1.003999
vt -0.002461 1.003999
vt -0.002461 1.003999
vt -0.002461 1.003999
vt -0.002461 1.003999
vt -0.002461 1.003999
vt -0.002461 1.003999
vt -0.002461 1.003999
vt -0.002461 1.003999
vt -0.002461 1.003999
vt -0.002461 1.003999
vt -0.002461 1.003999
vt -0.002461 1.003999
vt -0.002461 1.003999
vt -0.002461 1.003999
vt -0.002461 1.003999
vt -0.002461 1.003999
vt -0.002461 1.003999
vt -0.002461 1.003999
vt -0.002461 1.003999
vt -0.002461 1.003999
vt -0.001990 -0.006928
vt -0.001994 -0.006930
vt -0.001988 -0.006942
vt -0.001996 -0.006928
vt -0.001992 -0.006923
vt -0.002007 -0.006923
vt -0.002005 -0.006939
vt -0.002012 -0.006927
vt -0.001988 -0.006927
vt -0.001993 -0.006927
vt -0.001993 -0.006928
vt -0.001994 -0.006929
vt -0.001996 -0.006931
vt -0.001992 -0.006947
vt -0.002007 -0.006947
vt -0.002003 -0.006939
vt -0.002008 -0.006942
vt -0.002012 -0.006942
vt -0.002006 -0.006942
vt -0.002006 -0.006940
vt -0.002005 -0.006940
vt -0.002008 -0.006939
vn 1.0000 0.0000 0.0000
vn 0.2057 0.0000 0.9786
vn 0.0000 1.0000 -0.0000
vn 0.2169 0.0000 0.9762
vn -1.0000 0.0000 0.0000
vn -0.6508 0.0000 -0.7593
vn -0.6261 0.2729 -0.7304
vn -0.1776 0.9621 -0.2072
vn -0.5866 0.2729 -0.7625
vn -0.1664 0.9621 -0.2163
vn 0.9621 0.2729 0.0000
vn 0.2729 0.9621 -0.0000
vn 0.2087 0.2729 0.9391
vn 0.0592 0.9621 0.2664
vn -0.9621 0.2729 -0.0000
vn -0.2729 0.9621 0.0000
vn 0.1979 0.2729 0.9415
vn 0.0561 0.9621 0.2670
vn -0.6097 0.0000 -0.7926
s off
f 10/1/1 55/2/1 2/3/1
f 8/4/1 53/5/1 5/6/1
f 19/7/2 52/8/2 8/4/2
f 11/9/3 17/10/3 20/11/3
f 13/12/4 57/13/4 16/14/4
f 16/14/5 51/15/5 19/7/5
f 10/1/6 53/5/6 54/16/6
f 10/1/7 6/17/7 5/6/7
f 12/18/8 4/19/8 6/17/8
f 2/3/9 15/20/9 3/21/9
f 3/21/10 14/22/10 1/23/10
f 10/1/11 3/21/11 12/18/11
f 12/18/12 1/23/12 11/9/12
f 8/4/11 6/17/11 9/24/11
f 9/24/12 4/19/12 7/25/12
f 16/14/13 15/20/13 13/12/13
f 18/26/14 14/22/14 15/20/14
f 16/14/15 21/27/15 18/26/15
f 18/26/16 20/11/16 17/10/16
f 8/4/17 21/27/17 19/7/17
f 9/24/18 20/11/18 21/27/18
f 13/12/19 55/2/19 56/28/19
f 31/29/1 63/30/1 23/31/1
f 29/32/1 59/33/1 26/34/1
f 40/35/2 60/36/2 29/32/2
f 32/37/3 38/38/3 41/39/3
f 34/40/4 64/41/4 37/42/4
f 40/35/5 64/41/5 58/43/5
f 26/34/6 61/44/6 31/29/6
f 31/29/7 27/45/7 26/34/7
f 33/46/8 25/47/8 27/45/8
f 23/31/9 36/48/9 24/49/9
f 24/49/10 35/50/10 22/51/10
f 31/29/11 24/49/11 33/46/11
f 33/46/12 22/51/12 32/37/12
f 29/32/11 27/45/11 30/52/11
f 30/52/12 25/47/12 28/53/12
f 37/42/13 36/48/13 34/40/13
f 39/54/14 35/50/14 36/48/14
f 37/42/15 42/55/15 39/54/15
f 39/54/16 41/39/16 38/38/16
f 29/32/17 42/55/17 40/35/17
f 30/52/18 41/39/18 42/55/18
f 23/31/19 62/56/19 34/40/19
f 62/57/3 63/58/3 50/59/3
f 60/60/3 45/61/3 44/62/3
f 51/63/3 44/62/3 43/64/3
f 10/1/1 54/16/1 55/2/1
f 8/4/1 52/8/1 53/5/1
f 19/7/2 51/15/2 52/8/2
f 7/25/3 4/19/3 11/9/3
f 1/23/3 14/22/3 17/10/3
f 20/11/3 7/25/3 11/9/3
f 11/9/3 1/23/3 17/10/3
f 13/12/4 56/28/4 57/13/4
f 16/14/5 57/13/5 51/15/5
f 10/1/6 5/6/6 53/5/6
f 10/1/7 12/18/7 6/17/7
f 12/18/8 11/9/8 4/19/8
f 2/3/9 13/12/9 15/20/9
f 3/21/10 15/20/10 14/22/10
f 10/1/11 2/3/11 3/21/11
f 12/18/12 3/21/12 1/23/12
f 8/4/11 5/6/11 6/17/11
f 9/24/12 6/17/12 4/19/12
f 16/14/13 18/26/13 15/20/13
f 18/26/14 17/10/14 14/22/14
f 16/14/15 19/7/15 21/27/15
f 18/26/16 21/27/16 20/11/16
f 8/4/17 9/24/17 21/27/17
f 9/24/18 7/25/18 20/11/18
f 13/12/19 2/3/19 55/2/19
f 31/29/1 61/44/1 63/30/1
f 29/32/1 60/36/1 59/33/1
f 40/35/2 58/43/2 60/36/2
f 28/53/3 25/47/3 32/37/3
f 22/51/3 35/50/3 38/38/3
f 41/39/3 28/53/3 32/37/3
f 32/37/3 22/51/3 38/38/3
f 34/40/4 62/56/4 64/41/4
f 40/35/5 37/42/5 64/41/5
f 26/34/6 59/33/6 61/44/6
f 31/29/7 33/46/7 27/45/7
f 33/46/8 32/37/8 25/47/8
f 23/31/9 34/40/9 36/48/9
f 24/49/10 36/48/10 35/50/10
f 31/29/11 23/31/11 24/49/11
f 33/46/12 24/49/12 22/51/12
f 29/32/11 26/34/11 27/45/11
f 30/52/12 27/45/12 25/47/12
f 37/42/13 39/54/13 36/48/13
f 39/54/14 38/38/14 35/50/14
f 37/42/15 40/35/15 42/55/15
f 39/54/16 42/55/16 41/39/16
f 29/32/17 30/52/17 42/55/17
f 30/52/18 28/53/18 41/39/18
f 23/31/19 63/30/19 62/56/19
f 46/65/3 45/61/3 62/57/3
f 45/61/3 58/66/3 62/57/3
f 58/66/3 64/67/3 62/57/3
f 63/58/3 61/68/3 59/69/3
f 63/58/3 59/69/3 50/59/3
f 59/69/3 49/70/3 50/59/3
f 46/65/3 62/57/3 50/59/3
f 48/71/3 49/70/3 56/72/3
f 49/70/3 59/69/3 56/72/3
f 60/60/3 58/66/3 45/61/3
f 53/73/3 47/74/3 48/71/3
f 55/75/3 54/76/3 53/73/3
f 51/63/3 57/77/3 56/72/3
f 55/75/3 53/73/3 48/71/3
f 44/62/3 51/63/3 59/69/3
f 51/63/3 56/72/3 59/69/3
f 44/62/3 59/69/3 60/60/3
f 56/72/3 55/75/3 48/71/3
f 43/64/3 47/74/3 52/78/3
f 47/74/3 53/73/3 52/78/3
f 52/78/3 51/63/3 43/64/3
