# Blender v2.90.1 OBJ File: ''
# www.blender.org
o Cone
v 0.000000 0.700000 0.000000
v -0.000000 -1.000000 -0.395588
v 0.000000 -0.900275 -0.470669
v 0.077175 -1.000000 -0.387986
v 0.091823 -0.900275 -0.461625
v 0.151385 -1.000000 -0.365475
v 0.180117 -0.900275 -0.434841
v 0.219777 -1.000000 -0.328919
v 0.261490 -0.900275 -0.391347
v 0.279723 -1.000000 -0.279723
v 0.332813 -0.900275 -0.332813
v 0.328919 -1.000000 -0.219777
v 0.391347 -0.900275 -0.261490
v 0.365475 -1.000000 -0.151385
v 0.434841 -0.900275 -0.180117
v 0.387986 -1.000000 -0.077175
v 0.461625 -0.900275 -0.091823
v 0.395588 -1.000000 -0.000000
v 0.470669 -0.900275 -0.000000
v 0.387986 -1.000000 0.077175
v 0.461625 -0.900275 0.091823
v 0.365475 -1.000000 0.151385
v 0.434841 -0.900275 0.180117
v 0.328919 -1.000000 0.219777
v 0.391347 -0.900275 0.261490
v 0.279723 -1.000000 0.279723
v 0.332813 -0.900275 0.332813
v 0.219777 -1.000000 0.328919
v 0.261490 -0.900275 0.391347
v 0.151385 -1.000000 0.365475
v 0.180117 -0.900275 0.434841
v 0.077175 -1.000000 0.387987
v 0.091823 -0.900275 0.461625
v -0.000000 -1.000000 0.395588
v -0.000000 -0.900275 0.470669
v -0.077176 -1.000000 0.387986
v -0.091823 -0.900275 0.461625
v -0.151385 -1.000000 0.365475
v -0.180117 -0.900275 0.434841
v -0.219777 -1.000000 0.328919
v -0.261490 -0.900275 0.391347
v -0.279723 -1.000000 0.279723
v -0.332813 -0.900275 0.332813
v -0.328919 -1.000000 0.219776
v -0.391347 -0.900275 0.261489
v -0.365475 -1.000000 0.151384
v -0.434842 -0.900275 0.180117
v -0.387987 -1.000000 0.077175
v -0.461625 -0.900275 0.091823
v -0.395588 -1.000000 -0.000000
v -0.470669 -0.900275 -0.000000
v -0.387986 -1.000000 -0.077176
v -0.461625 -0.900275 -0.091823
v -0.365475 -1.000000 -0.151385
v -0.434841 -0.900275 -0.180118
v -0.328919 -1.000000 -0.219777
v -0.391347 -0.900275 -0.261490
v -0.279722 -1.000000 -0.279723
v -0.332813 -0.900275 -0.332814
v -0.219776 -1.000000 -0.328919
v -0.261489 -0.900275 -0.391347
v -0.151384 -1.000000 -0.365475
v -0.180117 -0.900275 -0.434842
v -0.077175 -1.000000 -0.387987
v -0.091822 -0.900275 -0.461625
vt 0.750000 0.439882
vt 0.787044 0.436234
vt 0.822665 0.425428
vt 0.855493 0.407881
vt 0.884267 0.384267
vt 0.907881 0.355493
vt 0.925428 0.322665
vt 0.936233 0.287044
vt 0.939882 0.250000
vt 0.936234 0.212956
vt 0.925428 0.177335
vt 0.907881 0.144507
vt 0.884267 0.115733
vt 0.855493 0.092119
vt 0.822665 0.074572
vt 0.787044 0.063766
vt 0.750000 0.060118
vt 0.712956 0.063767
vt 0.677335 0.074572
vt 0.644507 0.092119
vt 0.615733 0.115733
vt 0.592119 0.144507
vt 0.574572 0.177335
vt 0.563766 0.212956
vt 0.560118 0.250000
vt 0.563767 0.287044
vt 0.574572 0.322665
vt 0.592119 0.355493
vt 0.615733 0.384267
vt 0.644507 0.407881
vt 0.677336 0.425428
vt 0.712956 0.436234
vt 0.205925 0.471580
vt 0.250000 0.250000
vt 0.250000 0.475921
vt 0.336456 0.458724
vt 0.375515 0.437847
vt 0.409750 0.409750
vt 0.437847 0.375515
vt 0.458724 0.336456
vt 0.471580 0.294075
vt 0.475921 0.250000
vt 0.471580 0.205925
vt 0.458724 0.163544
vt 0.437847 0.124485
vt 0.409750 0.090250
vt 0.375515 0.062153
vt 0.336456 0.041276
vt 0.294075 0.028420
vt 0.250000 0.024079
vt 0.205925 0.028420
vt 0.163544 0.041276
vt 0.124485 0.062154
vt 0.090250 0.090250
vt 0.062153 0.124485
vt 0.041276 0.163544
vt 0.028420 0.205925
vt 0.024079 0.250000
vt 0.028420 0.294075
vt 0.041276 0.336456
vt 0.062154 0.375515
vt 0.090250 0.409751
vt 0.124485 0.437847
vt 0.163544 0.458724
vt 0.294075 0.471580
vt 0.291933 0.485870
vt 0.254889 0.489519
vt 0.337143 0.473157
vt 0.301523 0.483962
vt 0.379005 0.451868
vt 0.346176 0.469415
vt 0.415908 0.422822
vt 0.387134 0.446436
vt 0.446436 0.387134
vt 0.422822 0.415908
vt 0.469415 0.346176
vt 0.451868 0.379004
vt 0.483962 0.301523
vt 0.473157 0.337143
vt 0.489518 0.254889
vt 0.485870 0.291933
vt 0.485870 0.208067
vt 0.489518 0.245111
vt 0.473157 0.162857
vt 0.483962 0.198477
vt 0.451868 0.120996
vt 0.469415 0.153824
vt 0.422822 0.084092
vt 0.446436 0.112866
vt 0.387134 0.053564
vt 0.415908 0.077178
vt 0.346176 0.030585
vt 0.379004 0.048132
vt 0.301522 0.016038
vt 0.337143 0.026843
vt 0.254889 0.010482
vt 0.291933 0.014130
vt 0.208067 0.014130
vt 0.245111 0.010482
vt 0.162857 0.026843
vt 0.198477 0.016038
vt 0.120995 0.048132
vt 0.153824 0.030585
vt 0.084092 0.077178
vt 0.112866 0.053564
vt 0.053564 0.112866
vt 0.077178 0.084092
vt 0.030585 0.153824
vt 0.048132 0.120996
vt 0.016037 0.198478
vt 0.026843 0.162857
vt 0.010482 0.245111
vt 0.014130 0.208067
vt 0.014130 0.291933
vt 0.010482 0.254889
vt 0.026843 0.337143
vt 0.016038 0.301523
vt 0.048132 0.379005
vt 0.030585 0.346177
vt 0.077178 0.415908
vt 0.053564 0.387134
vt 0.112866 0.446436
vt 0.084092 0.422822
vt 0.153824 0.469416
vt 0.120996 0.451869
vt 0.198478 0.483963
vt 0.162857 0.473157
vt 0.245111 0.489518
vt 0.208067 0.485870
vn 0.0000 -1.0000 0.0000
vn -0.1921 -0.1739 -0.9658
vn 0.0000 1.0000 0.0000
vn 0.0000 -0.1739 -0.9847
vn 0.3768 -0.1739 -0.9098
vn 0.5471 -0.1739 -0.8188
vn 0.6963 -0.1739 -0.6963
vn 0.8188 -0.1739 -0.5471
vn 0.9098 -0.1739 -0.3768
vn 0.9658 -0.1739 -0.1921
vn 0.9847 -0.1739 0.0000
vn 0.9658 -0.1739 0.1921
vn 0.9098 -0.1739 0.3768
vn 0.8188 -0.1739 0.5471
vn 0.6963 -0.1739 0.6963
vn 0.5471 -0.1739 0.8188
vn 0.3768 -0.1739 0.9098
vn 0.1921 -0.1739 0.9658
vn 0.0000 -0.1739 0.9847
vn -0.1921 -0.1739 0.9658
vn -0.3768 -0.1739 0.9098
vn -0.5471 -0.1739 0.8188
vn -0.6963 -0.1739 0.6963
vn -0.8188 -0.1739 0.5471
vn -0.9098 -0.1739 0.3768
vn -0.9658 -0.1739 0.1921
vn -0.9847 -0.1739 0.0000
vn -0.9658 -0.1739 -0.1921
vn -0.9098 -0.1739 -0.3768
vn -0.8188 -0.1739 -0.5471
vn -0.6963 -0.1739 -0.6963
vn -0.5471 -0.1739 -0.8188
vn -0.3768 -0.1739 -0.9098
vn 0.1921 -0.1739 -0.9658
vn 0.0913 -0.8836 -0.4592
vn 0.0000 -0.8836 -0.4682
vn 0.1791 -0.8836 -0.4325
vn 0.2601 -0.8836 -0.3893
vn 0.3310 -0.8836 -0.3310
vn 0.3893 -0.8836 -0.2601
vn 0.4325 -0.8836 -0.1791
vn 0.4592 -0.8836 -0.0913
vn 0.4682 -0.8836 0.0000
vn 0.4592 -0.8836 0.0913
vn 0.4325 -0.8836 0.1791
vn 0.3893 -0.8836 0.2601
vn 0.3310 -0.8836 0.3310
vn 0.2601 -0.8836 0.3893
vn 0.1791 -0.8836 0.4325
vn 0.0913 -0.8836 0.4592
vn 0.0000 -0.8836 0.4682
vn -0.0913 -0.8836 0.4592
vn -0.1791 -0.8836 0.4325
vn -0.2601 -0.8836 0.3893
vn -0.3310 -0.8836 0.3310
vn -0.3893 -0.8836 0.2601
vn -0.4325 -0.8836 0.1791
vn -0.4592 -0.8836 0.0913
vn -0.4682 -0.8836 0.0000
vn -0.4592 -0.8836 -0.0913
vn -0.4325 -0.8836 -0.1791
vn -0.3893 -0.8836 -0.2601
vn -0.3310 -0.8836 -0.3310
vn -0.2601 -0.8836 -0.3893
vn -0.1791 -0.8836 -0.4325
vn -0.0913 -0.8836 -0.4592
s off
f 2/1/1 4/2/1 6/3/1 8/4/1 10/5/1 12/6/1 14/7/1 16/8/1 18/9/1 20/10/1 22/11/1 24/12/1 26/13/1 28/14/1 30/15/1 32/16/1 34/17/1 36/18/1 38/19/1 40/20/1 42/21/1 44/22/1 46/23/1 48/24/1 50/25/1 52/26/1 54/27/1 56/28/1 58/29/1 60/30/1 62/31/1 64/32/1
s 1
f 65/33/2 1/34/3 3/35/4
f 7/36/5 1/34/3 9/37/6
f 9/37/6 1/34/3 11/38/7
f 11/38/7 1/34/3 13/39/8
f 13/39/8 1/34/3 15/40/9
f 15/40/9 1/34/3 17/41/10
f 17/41/10 1/34/3 19/42/11
f 19/42/11 1/34/3 21/43/12
f 21/43/12 1/34/3 23/44/13
f 23/44/13 1/34/3 25/45/14
f 25/45/14 1/34/3 27/46/15
f 27/46/15 1/34/3 29/47/16
f 29/47/16 1/34/3 31/48/17
f 31/48/17 1/34/3 33/49/18
f 33/49/18 1/34/3 35/50/19
f 35/50/19 1/34/3 37/51/20
f 37/51/20 1/34/3 39/52/21
f 39/52/21 1/34/3 41/53/22
f 41/53/22 1/34/3 43/54/23
f 43/54/23 1/34/3 45/55/24
f 45/55/24 1/34/3 47/56/25
f 47/56/25 1/34/3 49/57/26
f 49/57/26 1/34/3 51/58/27
f 51/58/27 1/34/3 53/59/28
f 53/59/28 1/34/3 55/60/29
f 55/60/29 1/34/3 57/61/30
f 57/61/30 1/34/3 59/62/31
f 59/62/31 1/34/3 61/63/32
f 61/63/32 1/34/3 63/64/33
f 63/64/33 1/34/3 65/33/2
f 3/35/4 1/34/3 5/65/34
f 5/65/34 1/34/3 7/36/5
f 3/35/4 5/65/34 4/66/35 2/67/36
f 5/65/34 7/36/5 6/68/37 4/69/35
f 7/36/5 9/37/6 8/70/38 6/71/37
f 9/37/6 11/38/7 10/72/39 8/73/38
f 11/38/7 13/39/8 12/74/40 10/75/39
f 13/39/8 15/40/9 14/76/41 12/77/40
f 15/40/9 17/41/10 16/78/42 14/79/41
f 17/41/10 19/42/11 18/80/43 16/81/42
f 19/42/11 21/43/12 20/82/44 18/83/43
f 21/43/12 23/44/13 22/84/45 20/85/44
f 23/44/13 25/45/14 24/86/46 22/87/45
f 25/45/14 27/46/15 26/88/47 24/89/46
f 27/46/15 29/47/16 28/90/48 26/91/47
f 29/47/16 31/48/17 30/92/49 28/93/48
f 31/48/17 33/49/18 32/94/50 30/95/49
f 33/49/18 35/50/19 34/96/51 32/97/50
f 35/50/19 37/51/20 36/98/52 34/99/51
f 37/51/20 39/52/21 38/100/53 36/101/52
f 39/52/21 41/53/22 40/102/54 38/103/53
f 41/53/22 43/54/23 42/104/55 40/105/54
f 43/54/23 45/55/24 44/106/56 42/107/55
f 45/55/24 47/56/25 46/108/57 44/109/56
f 47/56/25 49/57/26 48/110/58 46/111/57
f 49/57/26 51/58/27 50/112/59 48/113/58
f 51/58/27 53/59/28 52/114/60 50/115/59
f 53/59/28 55/60/29 54/116/61 52/117/60
f 55/60/29 57/61/30 56/118/62 54/119/61
f 57/61/30 59/62/31 58/120/63 56/121/62
f 59/62/31 61/63/32 60/122/64 58/123/63
f 61/63/32 63/64/33 62/124/65 60/125/64
f 63/64/33 65/33/2 64/126/66 62/127/65
f 65/33/2 3/35/4 2/128/36 64/129/66
