# Blender v2.90.1 OBJ File: 'dice3.blend'
# www.blender.org
o DiceFacesBullet_1.001_Cube.018
v -0.133099 -0.094113 -0.049451
v -0.101986 -0.116113 -0.049451
v -0.127264 -0.104249 -0.049451
v -0.116320 -0.111988 -0.049451
v 0.022465 -0.116113 -0.173902
v 0.022465 -0.094113 -0.205014
v 0.022465 -0.111988 -0.188236
v 0.022465 -0.104249 -0.199180
v -0.011895 -0.116113 0.040640
v -0.025734 -0.094113 0.057913
v -0.018271 -0.111988 0.048598
v -0.023139 -0.104249 0.054674
v 0.090629 -0.094113 0.106113
v 0.093058 -0.116113 0.084113
v 0.091085 -0.104249 0.101987
v 0.091939 -0.111988 0.094249
v 0.009255 -0.094113 0.080120
v 0.019435 -0.116113 0.060524
v 0.011164 -0.104249 0.076446
v 0.014745 -0.111988 0.069553
v 0.050185 -0.094113 0.097074
v 0.056843 -0.116113 0.076019
v 0.051433 -0.104249 0.093126
v 0.053775 -0.111988 0.085720
v 0.105559 -0.116113 0.084113
v 0.109864 -0.094113 0.106113
v 0.107542 -0.111988 0.094249
v 0.109057 -0.104249 0.101987
v 0.178029 -0.094113 0.037948
v 0.156029 -0.116113 0.033643
v 0.173903 -0.104249 0.037141
v 0.166165 -0.111988 0.035626
v 0.141270 -0.094113 0.093330
v 0.128858 -0.116113 0.074629
v 0.138942 -0.104249 0.089823
v 0.134576 -0.111988 0.083245
v 0.165246 -0.094113 0.069354
v 0.146545 -0.116113 0.056942
v 0.161739 -0.104249 0.067026
v 0.155161 -0.111988 0.062660
v 0.156028 -0.116113 0.021142
v 0.178028 -0.094113 0.018713
v 0.166165 -0.111988 0.020023
v 0.173903 -0.104249 0.019169
v 0.129829 -0.094113 -0.097650
v 0.112556 -0.116113 -0.083811
v 0.126590 -0.104249 -0.095055
v 0.120514 -0.111988 -0.090187
v 0.168990 -0.094113 -0.021731
v 0.147935 -0.116113 -0.015073
v 0.165042 -0.104249 -0.020483
v 0.157636 -0.111988 -0.018141
v 0.152036 -0.094113 -0.062661
v 0.132440 -0.116113 -0.052481
v 0.148362 -0.104249 -0.060752
v 0.141469 -0.111988 -0.057171
v -0.163744 -0.116113 -0.111209
v -0.194856 -0.094113 -0.111209
v -0.178078 -0.111988 -0.111209
v -0.189022 -0.104249 -0.111209
v -0.149620 -0.094113 -0.065972
v -0.149620 -0.116113 -0.097085
v -0.149620 -0.104249 -0.071807
v -0.149620 -0.111988 -0.082750
v -0.025169 -0.116113 -0.221536
v 0.005944 -0.094113 -0.221536
v -0.010835 -0.111988 -0.221536
v 0.000109 -0.104249 -0.221536
v -0.039293 -0.094113 -0.266772
v -0.039293 -0.116113 -0.235659
v -0.039293 -0.104249 -0.260938
v -0.039293 -0.111988 -0.249994
v 0.585097 0.001601 0.851214
v 0.907382 0.001601 0.528930
v 0.585097 0.001601 -0.963549
v 0.907382 0.001601 -0.641264
v -0.585097 0.001601 0.851214
v -0.907382 0.001601 0.528930
v -0.585097 0.001601 -0.963549
v -0.907382 0.001601 -0.641264
v 0.022465 0.001601 -0.205014
v 0.129829 0.001601 -0.097650
v -0.039293 0.001601 -0.266772
v 0.005944 0.001601 -0.221536
v -0.194856 0.001601 -0.111209
v -0.149620 0.001601 -0.065972
v 0.178029 0.001601 0.037948
v 0.168990 0.001601 -0.021731
v 0.178028 0.001601 0.018713
v 0.152036 0.001601 -0.062661
v -0.025734 0.001601 0.057913
v -0.133099 0.001601 -0.049451
v 0.165246 0.001601 0.069354
v 0.141270 0.001601 0.093330
v 0.109864 0.001601 0.106113
v 0.090629 0.001601 0.106113
v 0.050185 0.001601 0.097074
v 0.009255 0.001601 0.080120
vt -0.005152 1.004411
vt -0.005152 1.004411
vt -0.005152 1.004411
vt -0.005152 1.004411
vt -0.005152 1.004411
vt -0.005152 1.004411
vt -0.005152 1.004411
vt -0.005152 1.004411
vt -0.005152 1.004411
vt -0.005152 1.004411
vt -0.005152 1.004411
vt -0.005152 1.004411
vt -0.005152 1.004411
vt -0.005152 1.004411
vt -0.005152 1.004411
vt -0.005152 1.004411
vt -0.005152 1.004411
vt -0.005152 1.004411
vt -0.005152 1.004411
vt -0.005152 1.004411
vt -0.005152 1.004411
vt -0.005152 1.004411
vt -0.005152 1.004411
vt -0.005152 1.004411
vt -0.005152 1.004411
vt -0.005152 1.004411
vt -0.005152 1.004411
vt -0.005152 1.004411
vt -0.005152 1.004411
vt -0.005152 1.004411
vt -0.005152 1.004411
vt -0.005152 1.004411
vt -0.005152 1.004411
vt -0.005152 1.004411
vt -0.005152 1.004411
vt -0.005152 1.004411
vt -0.005152 1.004411
vt -0.005152 1.004411
vt -0.005152 1.004411
vt -0.005152 1.004411
vt -0.005152 1.004411
vt -0.005152 1.004411
vt -0.005152 1.004411
vt -0.005152 1.004411
vt -0.005152 1.004411
vt -0.005152 1.004411
vt -0.005152 1.004411
vt -0.005152 1.004411
vt -0.005152 1.004411
vt -0.005152 1.004411
vt -0.005152 1.004411
vt -0.005152 1.004411
vt -0.005152 1.004411
vt -0.005152 1.004411
vt -0.005152 1.004411
vt -0.005152 1.004411
vt -0.005152 1.004411
vt -0.005152 1.004411
vt -0.005152 1.004411
vt -0.005152 1.004411
vt -0.005152 1.004411
vt -0.005152 1.004411
vt -0.005152 1.004411
vt -0.005152 1.004411
vt -0.005152 1.004411
vt -0.005152 1.004411
vt -0.005152 1.004411
vt -0.005152 1.004411
vt -0.005152 1.004411
vt -0.005152 1.004411
vt -0.005152 1.004411
vt -0.005152 1.004411
vt -0.005152 1.004411
vt -0.005152 1.004411
vt -0.005152 1.004411
vt -0.005152 1.004411
vt -0.005152 1.004411
vt -0.005152 1.004411
vt -0.005152 1.004411
vt -0.005152 1.004411
vt -0.005152 1.004411
vt -0.005152 1.004411
vt -0.005152 1.004411
vt -0.005152 1.004411
vt -0.005152 1.004411
vt -0.005152 1.004411
vt -0.005152 1.004411
vt -0.005152 1.004411
vt -0.005152 1.004411
vt -0.005152 1.004411
vt -0.010291 -0.009986
vt -0.010302 -0.009974
vt -0.010386 -0.010033
vt -0.010351 -0.010067
vt -0.010226 -0.010067
vt -0.010284 -0.009992
vt -0.010351 -0.009872
vt -0.010300 -0.009952
vt -0.010298 -0.009952
vt -0.010191 -0.010033
vt -0.010191 -0.009907
vt -0.010268 -0.009975
vt -0.010274 -0.009969
vt -0.010272 -0.009971
vt -0.010386 -0.009907
vt -0.010308 -0.009961
vt -0.010289 -0.009987
vt -0.010308 -0.009959
vt -0.010307 -0.009966
vt -0.010305 -0.009970
vt -0.010304 -0.009953
vt -0.010306 -0.009956
vt -0.010226 -0.009872
vt -0.010286 -0.009957
vt -0.010290 -0.009955
vt -0.010294 -0.009953
vn 0.7071 -0.0000 0.7071
vn 0.7071 0.0000 -0.7071
vn -0.9239 -0.0000 0.3827
vn -0.3770 0.0000 -0.9262
vn -0.7071 0.0000 0.7071
vn 0.0000 0.0000 -1.0000
vn 0.3827 0.0000 -0.9239
vn -0.9262 -0.0000 -0.3770
vn -0.0000 1.0000 0.0000
vn -0.7071 0.0000 -0.7071
vn -0.9759 -0.0000 0.2181
vn 0.5359 0.0000 -0.8443
vn -1.0000 0.0000 0.0000
vn -0.8443 0.0000 0.5359
vn 0.2181 0.0000 -0.9759
vn 0.6549 0.3770 0.6549
vn 0.5000 0.7071 0.5000
vn 0.2666 0.9262 0.2666
vn 0.4963 0.3770 -0.7820
vn 0.3789 0.7071 -0.5970
vn 0.2020 0.9262 -0.3183
vn 0.3545 0.3770 -0.8557
vn 0.2706 0.7071 -0.6533
vn 0.1443 0.9262 -0.3483
vn 0.2020 0.3770 -0.9039
vn 0.1542 0.7071 -0.6901
vn 0.0822 0.9262 -0.3679
vn -0.3492 0.3770 -0.8579
vn -0.2666 0.7071 -0.6549
vn -0.1421 0.9262 -0.3492
vn -0.6549 0.3770 -0.6549
vn -0.5000 0.7071 -0.5000
vn -0.2666 0.9262 -0.2666
vn -0.8579 0.3770 -0.3492
vn -0.6549 0.7071 -0.2666
vn -0.3492 0.9262 -0.1421
vn -0.9039 0.3770 0.2020
vn -0.6901 0.7071 0.1542
vn -0.3679 0.9262 0.0822
vn -0.8557 0.3770 0.3545
vn -0.6533 0.7071 0.2706
vn -0.3483 0.9262 0.1443
vn -0.7820 0.3770 0.4963
vn -0.5970 0.7071 0.3789
vn -0.3183 0.9262 0.2020
vn 0.2666 0.9262 -0.2666
vn 0.5000 0.7071 -0.5000
vn 0.6549 0.3770 -0.6549
vn 0.0000 0.3770 -0.9262
vn 0.0000 0.7071 -0.7071
vn 0.0000 0.9262 -0.3770
vn -0.9262 0.3770 0.0000
vn -0.7071 0.7071 0.0000
vn -0.3770 0.9262 0.0000
vn -0.6549 0.3770 0.6549
vn -0.5000 0.7071 0.5000
vn -0.2666 0.9262 0.2666
vn -0.8557 0.3770 0.3544
s off
f 69/1/1 85/2/1 58/3/1
f 10/4/2 92/5/2 91/6/2
f 49/7/3 90/8/3 53/9/3
f 26/10/4 94/11/4 33/12/4
f 45/13/5 81/14/5 6/15/5
f 13/16/6 95/17/6 26/10/6
f 17/18/7 97/19/7 21/20/7
f 37/21/8 87/22/8 29/23/8
f 65/24/9 57/25/9 62/26/9
f 33/12/10 93/27/10 37/21/10
f 42/28/11 88/29/11 49/7/11
f 69/1/5 84/30/5 83/31/5
f 17/18/12 91/6/12 98/32/12
f 29/23/13 89/33/13 42/28/13
f 61/34/10 84/30/10 66/35/10
f 53/9/14 82/36/14 45/13/14
f 54/37/9 46/38/9 18/39/9
f 21/20/15 96/40/15 13/16/15
f 6/15/16 3/41/16 8/42/16
f 8/42/17 4/43/17 7/44/17
f 7/44/18 2/45/18 5/46/18
f 17/18/19 12/47/19 10/4/19
f 19/48/20 11/49/20 12/47/20
f 20/50/21 9/51/21 11/49/21
f 17/18/22 23/52/22 19/48/22
f 23/52/23 20/50/23 19/48/23
f 24/53/24 18/39/24 20/50/24
f 21/20/25 15/54/25 23/52/25
f 23/52/26 16/55/26 24/53/26
f 24/53/27 14/56/27 22/57/27
f 26/10/28 35/58/28 28/59/28
f 28/59/29 36/60/29 27/61/29
f 27/61/30 34/62/30 25/63/30
f 33/12/31 39/64/31 35/58/31
f 35/58/32 40/65/32 36/60/32
f 36/60/33 38/66/33 34/62/33
f 29/23/34 39/64/34 37/21/34
f 31/67/35 40/65/35 39/64/35
f 32/68/36 38/66/36 40/65/36
f 49/7/37 44/69/37 42/28/37
f 51/70/38 43/71/38 44/69/38
f 52/72/39 41/73/39 43/71/39
f 53/9/40 51/70/40 49/7/40
f 51/70/41 56/74/41 52/72/41
f 52/72/42 54/37/42 50/75/42
f 53/9/43 47/76/43 55/77/43
f 55/77/44 48/78/44 56/74/44
f 56/74/45 46/38/45 54/37/45
f 2/45/46 11/49/46 9/51/46
f 4/43/47 12/47/47 11/49/47
f 3/41/48 10/4/48 12/47/48
f 13/16/49 28/59/49 15/54/49
f 15/54/50 27/61/50 16/55/50
f 16/55/51 25/63/51 14/56/51
f 42/28/52 31/67/52 29/23/52
f 44/69/53 32/68/53 31/67/53
f 43/71/54 30/79/54 32/68/54
f 45/13/55 8/42/55 47/76/55
f 47/76/56 7/44/56 48/78/56
f 48/78/57 5/46/57 46/38/57
f 6/15/1 92/5/1 1/80/1
f 69/1/55 68/81/55 66/35/55
f 71/82/56 67/83/56 68/81/56
f 67/83/57 70/84/57 65/24/57
f 58/3/48 63/85/48 60/86/48
f 60/86/47 64/87/47 59/88/47
f 64/87/46 57/25/46 59/88/46
f 62/26/33 67/83/33 65/24/33
f 67/83/32 63/85/32 68/81/32
f 63/85/31 66/35/31 68/81/31
f 58/3/16 71/82/16 69/1/16
f 60/86/17 72/89/17 71/82/17
f 59/88/18 70/84/18 72/89/18
f 61/34/2 85/2/2 86/90/2
f 81/91/9 82/92/9 76/93/9
f 75/94/9 79/95/9 83/96/9
f 73/97/9 95/98/9 96/99/9
f 69/1/1 83/31/1 85/2/1
f 10/4/2 1/80/2 92/5/2
f 49/7/3 88/29/3 90/8/3
f 26/10/4 95/17/4 94/11/4
f 45/13/5 82/36/5 81/14/5
f 13/16/6 96/40/6 95/17/6
f 17/18/7 98/32/7 97/19/7
f 37/21/8 93/27/8 87/22/8
f 65/24/9 70/84/9 57/25/9
f 33/12/10 94/11/10 93/27/10
f 42/28/11 89/33/11 88/29/11
f 69/1/5 66/35/5 84/30/5
f 17/18/12 10/4/12 91/6/12
f 29/23/13 87/22/13 89/33/13
f 61/34/10 86/90/10 84/30/10
f 53/9/14 90/8/14 82/36/14
f 46/38/9 5/46/9 2/45/9
f 2/45/9 9/51/9 46/38/9
f 9/51/9 18/39/9 46/38/9
f 18/39/9 22/57/9 50/75/9
f 22/57/9 14/56/9 50/75/9
f 14/56/9 25/63/9 34/62/9
f 34/62/9 38/66/9 41/73/9
f 38/66/9 30/79/9 41/73/9
f 41/73/9 50/75/9 14/56/9
f 34/62/9 41/73/9 14/56/9
f 50/75/9 54/37/9 18/39/9
f 21/20/15 97/19/15 96/40/15
f 6/15/16 1/80/16 3/41/16
f 8/42/17 3/41/17 4/43/17
f 7/44/18 4/43/18 2/45/18
f 17/18/19 19/48/19 12/47/19
f 19/48/20 20/50/20 11/49/20
f 20/50/21 18/39/21 9/51/21
f 17/18/22 21/20/22 23/52/22
f 23/52/23 24/53/23 20/50/23
f 24/53/24 22/57/24 18/39/24
f 21/20/25 13/16/25 15/54/25
f 23/52/26 15/54/26 16/55/26
f 24/53/27 16/55/27 14/56/27
f 26/10/28 33/12/28 35/58/28
f 28/59/29 35/58/29 36/60/29
f 27/61/30 36/60/30 34/62/30
f 33/12/31 37/21/31 39/64/31
f 35/58/32 39/64/32 40/65/32
f 36/60/33 40/65/33 38/66/33
f 29/23/34 31/67/34 39/64/34
f 31/67/35 32/68/35 40/65/35
f 32/68/36 30/79/36 38/66/36
f 49/7/37 51/70/37 44/69/37
f 51/70/38 52/72/38 43/71/38
f 52/72/39 50/75/39 41/73/39
f 53/9/58 55/77/58 51/70/58
f 51/70/41 55/77/41 56/74/41
f 52/72/42 56/74/42 54/37/42
f 53/9/43 45/13/43 47/76/43
f 55/77/44 47/76/44 48/78/44
f 56/74/45 48/78/45 46/38/45
f 2/45/46 4/43/46 11/49/46
f 4/43/47 3/41/47 12/47/47
f 3/41/48 1/80/48 10/4/48
f 13/16/49 26/10/49 28/59/49
f 15/54/50 28/59/50 27/61/50
f 16/55/51 27/61/51 25/63/51
f 42/28/52 44/69/52 31/67/52
f 44/69/53 43/71/53 32/68/53
f 43/71/54 41/73/54 30/79/54
f 45/13/55 6/15/55 8/42/55
f 47/76/56 8/42/56 7/44/56
f 48/78/57 7/44/57 5/46/57
f 6/15/1 81/14/1 92/5/1
f 69/1/55 71/82/55 68/81/55
f 71/82/56 72/89/56 67/83/56
f 67/83/57 72/89/57 70/84/57
f 58/3/48 61/34/48 63/85/48
f 60/86/47 63/85/47 64/87/47
f 64/87/46 62/26/46 57/25/46
f 62/26/33 64/87/33 67/83/33
f 67/83/32 64/87/32 63/85/32
f 63/85/31 61/34/31 66/35/31
f 58/3/16 60/86/16 71/82/16
f 60/86/17 59/88/17 72/89/17
f 59/88/18 57/25/18 70/84/18
f 61/34/2 58/3/2 85/2/2
f 80/100/9 78/101/9 85/102/9
f 78/101/9 92/103/9 86/104/9
f 86/104/9 85/102/9 78/101/9
f 74/105/9 76/93/9 89/106/9
f 76/93/9 84/107/9 81/91/9
f 89/106/9 87/108/9 74/105/9
f 88/109/9 89/106/9 76/93/9
f 86/104/9 92/103/9 81/91/9
f 90/110/9 88/109/9 76/93/9
f 82/92/9 90/110/9 76/93/9
f 84/107/9 86/104/9 81/91/9
f 79/95/9 80/100/9 85/102/9
f 83/96/9 84/107/9 75/94/9
f 84/107/9 76/93/9 75/94/9
f 79/95/9 85/102/9 83/96/9
f 73/97/9 74/105/9 94/111/9
f 74/105/9 87/108/9 93/112/9
f 74/105/9 93/112/9 94/111/9
f 78/101/9 77/113/9 91/114/9
f 77/113/9 73/97/9 96/99/9
f 98/115/9 77/113/9 97/116/9
f 91/114/9 92/103/9 78/101/9
f 98/115/9 91/114/9 77/113/9
f 73/97/9 94/111/9 95/98/9
f 97/116/9 77/113/9 96/99/9
