# Blender v2.90.1 OBJ File: 'dice5.blend'
# www.blender.org
o Lightning_3_Cube.047
v 0.063418 0.883969 0.001143
v 0.128095 0.915816 0.032990
v 0.113804 0.891006 0.025953
v 0.079825 0.883969 0.147953
v 0.149068 0.915816 0.179800
v 0.133768 0.891006 0.172763
v -0.049230 0.883969 0.147953
v -0.075078 0.915816 0.179800
v -0.069367 0.891006 0.172763
v 0.023230 0.915816 0.032990
v -0.046012 0.883969 0.001143
v 0.007931 0.891006 0.025953
v -0.081634 0.915816 -0.239658
v -0.019434 0.883969 -0.106565
v -0.067891 0.891006 -0.210251
v -0.039688 0.915816 -0.050902
v 0.000013 0.883969 -0.019055
v -0.030916 0.891006 -0.043865
v -0.123580 0.915816 -0.050902
v -0.084341 0.883969 -0.019055
v -0.114910 0.891006 -0.043865
v 0.492236 0.883969 0.462679
v 0.556913 0.915816 0.494526
v 0.542623 0.891006 0.487489
v 0.508644 0.883969 0.609489
v 0.577886 0.915816 0.641336
v 0.562587 0.891006 0.634299
v 0.379588 0.883969 0.609489
v 0.353740 0.915816 0.641336
v 0.359451 0.891006 0.634299
v 0.452049 0.915816 0.494526
v 0.382806 0.883969 0.462679
v 0.436749 0.891006 0.487489
v 0.347184 0.915816 0.221879
v 0.409384 0.883969 0.354971
v 0.360927 0.891006 0.251285
v 0.389130 0.915816 0.410634
v 0.428831 0.883969 0.442481
v 0.397902 0.891006 0.417671
v 0.305239 0.915816 0.410634
v 0.344477 0.883969 0.442481
v 0.313908 0.891006 0.417671
v -0.371421 0.883969 -0.456761
v -0.306744 0.915816 -0.424914
v -0.321034 0.891006 -0.431950
v -0.355013 0.883969 -0.309951
v -0.285771 0.915816 -0.278104
v -0.301070 0.891006 -0.285140
v -0.484069 0.883969 -0.309951
v -0.509917 0.915816 -0.278104
v -0.504205 0.891006 -0.285140
v -0.411608 0.915816 -0.424914
v -0.480851 0.883969 -0.456761
v -0.426907 0.891006 -0.431950
v -0.516473 0.915816 -0.697561
v -0.454273 0.883969 -0.564468
v -0.502730 0.891006 -0.668154
v -0.474527 0.915816 -0.508805
v -0.434826 0.883969 -0.476958
v -0.465755 0.891006 -0.501769
v -0.558418 0.915816 -0.508805
v -0.519180 0.883969 -0.476958
v -0.549749 0.891006 -0.501769
v 0.585097 1.000000 0.907382
v 0.907382 1.000000 0.585097
v 0.585097 1.000000 -0.907382
v 0.907382 1.000000 -0.585097
v -0.907382 1.000000 0.585097
v -0.585097 1.000000 0.907382
v -0.907382 1.000000 -0.585097
v -0.585097 1.000000 -0.907382
v -0.558418 1.000000 -0.508805
v -0.509917 1.000000 -0.278104
v -0.474527 1.000000 -0.508805
v -0.516473 1.000000 -0.697561
v -0.123580 1.000000 -0.050902
v -0.075078 1.000000 0.179800
v 0.128095 1.000000 0.032990
v 0.023230 1.000000 0.032990
v -0.081634 1.000000 -0.239658
v -0.039688 1.000000 -0.050902
v -0.411608 1.000000 -0.424914
v -0.285771 1.000000 -0.278104
v -0.388915 1.000000 -0.278104
v -0.306744 1.000000 -0.424914
v 0.353740 1.000000 0.641336
v 0.305239 1.000000 0.410634
v 0.389130 1.000000 0.410634
v 0.347184 1.000000 0.221879
v 0.149068 1.000000 0.179800
v 0.556913 1.000000 0.494526
v 0.452049 1.000000 0.494526
v 0.577886 1.000000 0.641336
vt -0.002461 1.003999
vt -0.002461 1.003999
vt -0.002461 1.003999
vt -0.002461 1.003999
vt -0.002461 1.003999
vt -0.002461 1.003999
vt -0.002461 1.003999
vt -0.002461 1.003999
vt -0.002461 1.003999
vt -0.002461 1.003999
vt -0.002461 1.003999
vt -0.002461 1.003999
vt -0.002461 1.003999
vt -0.002461 1.003999
vt -0.002461 1.003999
vt -0.002461 1.003999
vt -0.002461 1.003999
vt -0.002461 1.003999
vt -0.002461 1.003999
vt -0.002461 1.003999
vt -0.002461 1.003999
vt -0.002461 1.003999
vt -0.002461 1.003999
vt -0.002461 1.003999
vt -0.002461 1.003999
vt -0.002461 1.003999
vt -0.002461 1.003999
vt -0.002461 1.003999
vt -0.002461 1.003999
vt -0.002461 1.003999
vt -0.002461 1.003999
vt -0.002461 1.003999
vt -0.002461 1.003999
vt -0.002461 1.003999
vt -0.002461 1.003999
vt -0.002461 1.003999
vt -0.002461 1.003999
vt -0.002461 1.003999
vt -0.002461 1.003999
vt -0.002461 1.003999
vt -0.002461 1.003999
vt -0.002461 1.003999
vt -0.002461 1.003999
vt -0.002461 1.003999
vt -0.002461 1.003999
vt -0.002461 1.003999
vt -0.002461 1.003999
vt -0.002461 1.003999
vt -0.002461 1.003999
vt -0.002461 1.003999
vt -0.002461 1.003999
vt -0.002461 1.003999
vt -0.002461 1.003999
vt -0.002461 1.003999
vt -0.002461 1.003999
vt -0.002461 1.003999
vt -0.002461 1.003999
vt -0.002461 1.003999
vt -0.002461 1.003999
vt -0.002461 1.003999
vt -0.002461 1.003999
vt -0.002461 1.003999
vt -0.002461 1.003999
vt -0.002461 1.003999
vt -0.002461 1.003999
vt -0.002461 1.003999
vt -0.002461 1.003999
vt -0.002461 1.003999
vt -0.002461 1.003999
vt -0.002461 1.003999
vt -0.002461 1.003999
vt -0.002461 1.003999
vt -0.002461 1.003999
vt -0.002461 1.003999
vt -0.002461 1.003999
vt -0.002461 1.003999
vt -0.002461 1.003999
vt -0.002461 1.003999
vt -0.002461 1.003999
vt -0.002461 1.003999
vt -0.002461 1.003999
vt -0.002461 1.003999
vt -0.002461 1.003999
vt -0.002461 1.003999
vt -0.002461 1.003999
vt -0.001990 -0.006901
vt -0.001994 -0.006904
vt -0.001988 -0.006916
vt -0.002008 -0.006916
vt -0.002007 -0.006920
vt -0.002006 -0.006915
vt -0.002005 -0.006912
vt -0.002005 -0.006913
vt -0.002003 -0.006913
vt -0.001988 -0.006900
vt -0.001992 -0.006896
vt -0.001993 -0.006901
vt -0.001993 -0.006902
vt -0.001994 -0.006903
vt -0.001996 -0.006904
vt -0.001992 -0.006920
vt -0.001996 -0.006903
vt -0.001999 -0.006906
vt -0.001999 -0.006908
vt -0.001997 -0.006907
vt -0.002000 -0.006910
vt -0.002000 -0.006908
vt -0.002002 -0.006910
vt -0.002006 -0.006914
vt -0.002012 -0.006916
vt -0.002012 -0.006900
vt -0.002008 -0.006913
vt -0.002007 -0.006896
vt -0.001996 -0.006901
vt -0.002002 -0.006907
vn 0.0000 -0.0000 -1.0000
vn 0.9786 0.0000 -0.2057
vn 0.0000 1.0000 0.0000
vn 0.9762 -0.0000 -0.2169
vn 0.0000 0.0000 1.0000
vn -0.7593 -0.0000 0.6508
vn -0.7304 0.2729 0.6261
vn -0.2072 0.9621 0.1776
vn -0.7625 0.2729 0.5866
vn -0.2163 0.9621 0.1664
vn -0.0000 0.2729 -0.9621
vn 0.0000 0.9621 -0.2729
vn 0.9391 0.2729 -0.2087
vn 0.2664 0.9621 -0.0592
vn -0.0000 0.2729 0.9621
vn 0.0000 0.9621 0.2729
vn 0.9415 0.2729 -0.1979
vn 0.2670 0.9621 -0.0561
vn -0.7926 0.0000 0.6097
vn 0.0000 0.9621 0.2728
vn 0.0000 0.9621 -0.2728
s off
f 10/1/1 78/2/1 2/3/1
f 8/4/1 90/5/1 5/6/1
f 19/7/2 77/8/2 8/4/2
f 11/9/3 17/10/3 20/11/3
f 13/12/4 81/13/4 16/14/4
f 16/14/5 76/15/5 19/7/5
f 5/6/6 79/16/6 10/1/6
f 10/1/7 6/17/7 5/6/7
f 12/18/8 4/19/8 6/17/8
f 2/3/9 15/20/9 3/21/9
f 3/21/10 14/22/10 1/23/10
f 10/1/11 3/21/11 12/18/11
f 12/18/12 1/23/12 11/9/12
f 8/4/11 6/17/11 9/24/11
f 9/24/12 4/19/12 7/25/12
f 16/14/13 15/20/13 13/12/13
f 18/26/14 14/22/14 15/20/14
f 16/14/15 21/27/15 18/26/15
f 18/26/16 20/11/16 17/10/16
f 8/4/17 21/27/17 19/7/17
f 9/24/18 20/11/18 21/27/18
f 2/3/19 80/28/19 13/12/19
f 31/29/1 91/30/1 23/31/1
f 29/32/1 93/33/1 26/34/1
f 40/35/2 86/36/2 29/32/2
f 32/37/3 38/38/3 41/39/3
f 34/40/4 88/41/4 37/42/4
f 37/42/5 87/43/5 40/35/5
f 31/29/6 93/33/6 92/44/6
f 31/29/7 27/45/7 26/34/7
f 33/46/8 25/47/8 27/45/8
f 23/31/9 36/48/9 24/49/9
f 24/49/10 35/50/10 22/51/10
f 31/29/11 24/49/11 33/46/11
f 33/46/12 22/51/12 32/37/12
f 29/32/11 27/45/11 30/52/11
f 30/52/12 25/47/12 28/53/12
f 37/42/13 36/48/13 34/40/13
f 39/54/14 35/50/14 36/48/14
f 37/42/15 42/55/15 39/54/15
f 39/54/16 41/39/16 38/38/16
f 29/32/17 42/55/17 40/35/17
f 30/52/18 41/39/18 42/55/18
f 23/31/19 89/56/19 34/40/19
f 52/57/1 85/58/1 44/59/1
f 50/60/1 73/61/1 84/62/1
f 61/63/2 73/61/2 50/60/2
f 53/64/3 59/65/3 62/66/3
f 55/67/4 74/68/4 58/69/4
f 58/69/5 72/70/5 61/63/5
f 52/57/6 83/71/6 82/72/6
f 52/57/7 48/73/7 47/74/7
f 54/75/8 46/76/8 48/73/8
f 44/59/9 57/77/9 45/78/9
f 45/78/10 56/79/10 43/80/10
f 52/57/11 45/78/11 54/75/11
f 54/75/12 43/80/12 53/64/12
f 50/60/11 48/73/11 51/81/11
f 51/81/12 46/76/12 49/82/12
f 58/69/13 57/77/13 55/67/13
f 60/83/14 56/79/14 57/77/14
f 58/69/15 63/84/15 60/83/15
f 60/83/16 62/66/16 59/65/16
f 50/60/17 63/84/17 61/63/17
f 51/81/18 62/66/18 63/84/18
f 44/59/19 75/85/19 55/67/19
f 75/86/3 85/87/3 66/88/3
f 93/89/3 65/90/3 91/91/3
f 87/92/3 88/93/3 89/94/3
f 10/1/1 79/16/1 78/2/1
f 8/4/1 77/8/1 90/5/1
f 19/7/2 76/15/2 77/8/2
f 7/25/3 4/19/3 11/9/3
f 1/23/3 14/22/3 17/10/3
f 20/11/3 7/25/3 11/9/3
f 11/9/3 1/23/3 17/10/3
f 13/12/4 80/28/4 81/13/4
f 16/14/5 81/13/5 76/15/5
f 5/6/6 90/5/6 79/16/6
f 10/1/7 12/18/7 6/17/7
f 12/18/8 11/9/8 4/19/8
f 2/3/9 13/12/9 15/20/9
f 3/21/10 15/20/10 14/22/10
f 10/1/11 2/3/11 3/21/11
f 12/18/12 3/21/12 1/23/12
f 8/4/11 5/6/11 6/17/11
f 9/24/12 6/17/12 4/19/12
f 16/14/13 18/26/13 15/20/13
f 18/26/14 17/10/14 14/22/14
f 16/14/15 19/7/15 21/27/15
f 18/26/16 21/27/16 20/11/16
f 8/4/17 9/24/17 21/27/17
f 9/24/18 7/25/18 20/11/18
f 2/3/19 78/2/19 80/28/19
f 31/29/1 92/44/1 91/30/1
f 29/32/1 86/36/1 93/33/1
f 40/35/2 87/43/2 86/36/2
f 28/53/3 25/47/3 32/37/3
f 22/51/3 35/50/3 38/38/3
f 41/39/3 28/53/3 32/37/3
f 32/37/3 22/51/3 38/38/3
f 34/40/4 89/56/4 88/41/4
f 37/42/5 88/41/5 87/43/5
f 31/29/6 26/34/6 93/33/6
f 31/29/7 33/46/7 27/45/7
f 33/46/8 32/37/8 25/47/8
f 23/31/9 34/40/9 36/48/9
f 24/49/10 36/48/10 35/50/10
f 31/29/11 23/31/11 24/49/11
f 33/46/12 24/49/12 22/51/12
f 29/32/11 26/34/11 27/45/11
f 30/52/12 27/45/12 25/47/12
f 37/42/13 39/54/13 36/48/13
f 39/54/14 38/38/14 35/50/14
f 37/42/15 40/35/15 42/55/15
f 39/54/20 42/55/20 41/39/20
f 29/32/17 30/52/17 42/55/17
f 30/52/18 28/53/18 41/39/18
f 23/31/19 91/30/19 89/56/19
f 52/57/1 82/72/1 85/58/1
f 83/71/1 47/74/1 84/62/1
f 47/74/1 50/60/1 84/62/1
f 61/63/2 72/70/2 73/61/2
f 49/82/3 46/76/3 53/64/3
f 43/80/3 56/79/3 59/65/3
f 62/66/3 49/82/3 53/64/3
f 53/64/3 43/80/3 59/65/3
f 55/67/4 75/85/4 74/68/4
f 58/69/5 74/68/5 72/70/5
f 52/57/6 47/74/6 83/71/6
f 52/57/7 54/75/7 48/73/7
f 54/75/8 53/64/8 46/76/8
f 44/59/9 55/67/9 57/77/9
f 45/78/10 57/77/10 56/79/10
f 52/57/11 44/59/11 45/78/11
f 54/75/12 45/78/12 43/80/12
f 50/60/11 47/74/11 48/73/11
f 51/81/21 48/73/21 46/76/21
f 58/69/13 60/83/13 57/77/13
f 60/83/14 59/65/14 56/79/14
f 58/69/15 61/63/15 63/84/15
f 60/83/16 63/84/16 62/66/16
f 50/60/17 51/81/17 63/84/17
f 51/81/18 49/82/18 62/66/18
f 44/59/19 85/58/19 75/85/19
f 71/95/3 70/96/3 75/86/3
f 70/96/3 72/97/3 75/86/3
f 72/97/3 74/98/3 75/86/3
f 85/87/3 82/99/3 83/100/3
f 85/87/3 83/100/3 66/88/3
f 83/100/3 67/101/3 66/88/3
f 71/95/3 75/86/3 66/88/3
f 83/100/3 84/102/3 76/103/3
f 76/103/3 81/104/3 80/105/3
f 78/106/3 79/107/3 90/108/3
f 83/100/3 76/103/3 80/105/3
f 78/106/3 90/108/3 89/94/3
f 67/101/3 83/100/3 80/105/3
f 80/105/3 78/106/3 67/101/3
f 78/106/3 89/94/3 67/101/3
f 91/91/3 92/109/3 93/89/3
f 67/101/3 89/94/3 65/90/3
f 89/94/3 91/91/3 65/90/3
f 64/110/3 65/90/3 93/89/3
f 69/111/3 64/110/3 86/112/3
f 64/110/3 93/89/3 86/112/3
f 70/96/3 68/113/3 73/114/3
f 68/113/3 69/111/3 77/115/3
f 73/114/3 68/113/3 77/115/3
f 73/114/3 72/97/3 70/96/3
f 76/103/3 84/102/3 73/114/3
f 89/94/3 90/108/3 87/92/3
f 90/108/3 77/115/3 87/92/3
f 77/115/3 76/103/3 73/114/3
f 69/111/3 86/112/3 77/115/3
f 86/112/3 87/92/3 77/115/3
