# Blender v2.90.1 OBJ File: 'dice3.blend'
# www.blender.org
o Lightning_5_Cube.046
v -0.883969 0.001143 0.063418
v -0.915816 0.032990 0.128095
v -0.891006 0.025953 0.113805
v -0.883969 0.147953 0.079826
v -0.915816 0.179800 0.149068
v -0.891006 0.172764 0.133769
v -0.883969 0.147953 -0.049230
v -0.915816 0.179800 -0.075078
v -0.891006 0.172763 -0.069367
v -0.915816 0.032990 0.023231
v -0.883969 0.001143 -0.046012
v -0.891006 0.025953 0.007931
v -0.915816 -0.239657 -0.081634
v -0.883969 -0.106564 -0.019434
v -0.891006 -0.210250 -0.067891
v -0.915816 -0.050901 -0.039688
v -0.883969 -0.019055 0.000013
v -0.891006 -0.043865 -0.030916
v -0.915816 -0.050901 -0.123579
v -0.883969 -0.019055 -0.084341
v -0.891006 -0.043865 -0.114910
v -0.883969 0.462679 -0.371421
v -0.915816 0.494526 -0.306744
v -0.891006 0.487490 -0.321034
v -0.883969 0.609489 -0.355013
v -0.915816 0.641336 -0.285771
v -0.891006 0.634300 -0.301070
v -0.883969 0.609489 -0.484069
v -0.915816 0.641336 -0.509916
v -0.891006 0.634300 -0.504205
v -0.915816 0.494526 -0.411608
v -0.883969 0.462679 -0.480850
v -0.891006 0.487490 -0.426907
v -0.915816 0.221879 -0.516473
v -0.883969 0.354972 -0.454273
v -0.891006 0.251286 -0.502729
v -0.915816 0.410635 -0.474527
v -0.883969 0.442482 -0.434826
v -0.891006 0.417671 -0.465755
v -0.915816 0.410635 -0.558418
v -0.883969 0.442481 -0.519180
v -0.891006 0.417671 -0.549749
v -0.883969 0.462679 0.492236
v -0.915816 0.494526 0.556913
v -0.891006 0.487490 0.542623
v -0.883969 0.609489 0.508644
v -0.915816 0.641336 0.577886
v -0.891006 0.634300 0.562587
v -0.883969 0.609489 0.379588
v -0.915816 0.641336 0.353740
v -0.891006 0.634300 0.359452
v -0.915816 0.494526 0.452049
v -0.883969 0.462679 0.382806
v -0.891006 0.487490 0.436750
v -0.915816 0.221879 0.347184
v -0.883969 0.354972 0.409384
v -0.891006 0.251286 0.360927
v -0.915816 0.410635 0.389130
v -0.883969 0.442482 0.428831
v -0.891006 0.417671 0.397902
v -0.915816 0.410635 0.305239
v -0.883969 0.442482 0.344477
v -0.891006 0.417671 0.313908
v -0.883969 -0.456760 -0.371421
v -0.915816 -0.424914 -0.306744
v -0.891006 -0.431950 -0.321034
v -0.883969 -0.309950 -0.355013
v -0.915816 -0.278103 -0.285771
v -0.891006 -0.285140 -0.301070
v -0.883969 -0.309950 -0.484069
v -0.915816 -0.278104 -0.509916
v -0.891006 -0.285140 -0.504205
v -0.915816 -0.424914 -0.411608
v -0.883970 -0.456760 -0.480850
v -0.891006 -0.431950 -0.426907
v -0.915816 -0.697561 -0.516472
v -0.883970 -0.564468 -0.454273
v -0.891006 -0.668154 -0.502729
v -0.915816 -0.508805 -0.474527
v -0.883970 -0.476958 -0.434826
v -0.891006 -0.501768 -0.465755
v -0.915816 -0.508805 -0.558418
v -0.883970 -0.476958 -0.519180
v -0.891006 -0.501768 -0.549748
v -0.883969 -0.456760 0.492236
v -0.915816 -0.424913 0.556913
v -0.891006 -0.431950 0.542623
v -0.883969 -0.309950 0.508644
v -0.915816 -0.278103 0.577886
v -0.891006 -0.285140 0.562587
v -0.883969 -0.309950 0.379588
v -0.915816 -0.278103 0.353741
v -0.891006 -0.285140 0.359452
v -0.915816 -0.424913 0.452049
v -0.883969 -0.456760 0.382807
v -0.891006 -0.431950 0.436750
v -0.915816 -0.697561 0.347185
v -0.883969 -0.564468 0.409384
v -0.891006 -0.668154 0.360928
v -0.915816 -0.508805 0.389130
v -0.883969 -0.476958 0.428831
v -0.891006 -0.501768 0.397902
v -0.915816 -0.508805 0.305239
v -0.883969 -0.476958 0.344477
v -0.891006 -0.501768 0.313908
v -1.000000 0.585097 -0.907382
v -1.000000 0.907382 -0.585097
v -1.000000 -0.585097 -0.907382
v -1.000000 -0.907382 -0.585097
v -1.000000 0.585097 0.907382
v -1.000000 0.907382 0.585097
v -1.000000 -0.585097 0.907382
v -1.000000 -0.907382 0.585097
v -1.000000 0.410635 -0.558418
v -1.000000 0.641336 -0.509916
v -1.000000 0.410635 -0.474527
v -1.000000 -0.278103 -0.509916
v -1.000000 -0.508805 -0.558418
v -1.000000 -0.508805 -0.474527
v -1.000000 0.641336 -0.285771
v -1.000000 0.494526 -0.306744
v -1.000000 0.221879 -0.516473
v -1.000000 -0.278103 -0.406772
v -1.000000 -0.278103 -0.285771
v -1.000000 -0.424913 -0.306744
v -1.000000 -0.697561 -0.516472
v -1.000000 0.494526 -0.411608
v -1.000000 -0.424913 -0.411608
v -1.000000 0.179800 -0.075078
v -1.000000 0.179800 0.149068
v -1.000000 -0.050901 -0.123579
v -1.000000 0.032990 0.128095
v -1.000000 -0.239657 -0.081634
v -1.000000 -0.050901 -0.039688
v -1.000000 0.410635 0.305239
v -1.000000 0.641336 0.353740
v -1.000000 0.410635 0.389130
v -1.000000 0.032990 0.023231
v -1.000000 -0.508805 0.305239
v -1.000000 0.641336 0.577886
v -1.000000 0.221879 0.347184
v -1.000000 0.494526 0.556913
v -1.000000 -0.278103 0.353741
v -1.000000 -0.424913 0.556913
v -1.000000 -0.697561 0.347185
v -1.000000 -0.508805 0.389130
v -1.000000 -0.278103 0.577886
v -1.000000 0.494526 0.452049
v -1.000000 -0.424913 0.452049
vt -0.002461 1.003999
vt -0.002461 1.003999
vt -0.002461 1.003999
vt -0.002461 1.003999
vt -0.002461 1.003999
vt -0.002461 1.003999
vt -0.002461 1.003999
vt -0.002461 1.003999
vt -0.002461 1.003999
vt -0.002461 1.003999
vt -0.002461 1.003999
vt -0.002461 1.003999
vt -0.002461 1.003999
vt -0.002461 1.003999
vt -0.002461 1.003999
vt -0.002461 1.003999
vt -0.002461 1.003999
vt -0.002461 1.003999
vt -0.002461 1.003999
vt -0.002461 1.003999
vt -0.002461 1.003999
vt -0.002461 1.003999
vt -0.002461 1.003999
vt -0.002461 1.003999
vt -0.002461 1.003999
vt -0.002461 1.003999
vt -0.002461 1.003999
vt -0.002461 1.003999
vt -0.002461 1.003999
vt -0.002461 1.003999
vt -0.002461 1.003999
vt -0.002461 1.003999
vt -0.002461 1.003999
vt -0.002461 1.003999
vt -0.002461 1.003999
vt -0.002461 1.003999
vt -0.002461 1.003999
vt -0.002461 1.003999
vt -0.002461 1.003999
vt -0.002461 1.003999
vt -0.002461 1.003999
vt -0.002461 1.003999
vt -0.002461 1.003999
vt -0.002461 1.003999
vt -0.002461 1.003999
vt -0.002461 1.003999
vt -0.002461 1.003999
vt -0.002461 1.003999
vt -0.002461 1.003999
vt -0.002461 1.003999
vt -0.002461 1.003999
vt -0.002461 1.003999
vt -0.002461 1.003999
vt -0.002461 1.003999
vt -0.002461 1.003999
vt -0.002461 1.003999
vt -0.002461 1.003999
vt -0.002461 1.003999
vt -0.002461 1.003999
vt -0.002461 1.003999
vt -0.002461 1.003999
vt -0.002461 1.003999
vt -0.002461 1.003999
vt -0.002461 1.003999
vt -0.002461 1.003999
vt -0.002461 1.003999
vt -0.002461 1.003999
vt -0.002461 1.003999
vt -0.002461 1.003999
vt -0.002461 1.003999
vt -0.002461 1.003999
vt -0.002461 1.003999
vt -0.002461 1.003999
vt -0.002461 1.003999
vt -0.002461 1.003999
vt -0.002461 1.003999
vt -0.002461 1.003999
vt -0.002461 1.003999
vt -0.002461 1.003999
vt -0.002461 1.003999
vt -0.002461 1.003999
vt -0.002461 1.003999
vt -0.002461 1.003999
vt -0.002461 1.003999
vt -0.002461 1.003999
vt -0.002461 1.003999
vt -0.002461 1.003999
vt -0.002461 1.003999
vt -0.002461 1.003999
vt -0.002461 1.003999
vt -0.002461 1.003999
vt -0.002461 1.003999
vt -0.002461 1.003999
vt -0.002461 1.003999
vt -0.002461 1.003999
vt -0.002461 1.003999
vt -0.002461 1.003999
vt -0.002461 1.003999
vt -0.002461 1.003999
vt -0.002461 1.003999
vt -0.002461 1.003999
vt -0.002461 1.003999
vt -0.002461 1.003999
vt -0.002461 1.003999
vt -0.002461 1.003999
vt -0.002461 1.003999
vt -0.002461 1.003999
vt -0.002461 1.003999
vt -0.002461 1.003999
vt -0.002461 1.003999
vt -0.002461 1.003999
vt -0.002461 1.003999
vt -0.002461 1.003999
vt -0.002461 1.003999
vt -0.002461 1.003999
vt -0.002461 1.003999
vt -0.002461 1.003999
vt -0.002461 1.003999
vt -0.002461 1.003999
vt -0.002461 1.003999
vt -0.002461 1.003999
vt -0.002461 1.003999
vt -0.002461 1.003999
vt -0.002461 1.003999
vt -0.001990 -0.006877
vt -0.001990 -0.006888
vt -0.001988 -0.006889
vt -0.002006 -0.006886
vt -0.002003 -0.006888
vt -0.002002 -0.006883
vt -0.002008 -0.006885
vt -0.002006 -0.006887
vt -0.001997 -0.006883
vt -0.001999 -0.006883
vt -0.001996 -0.006885
vt -0.002461 1.003999
vt -0.002461 1.003999
vt -0.002461 1.003999
vt -0.002461 1.003999
vt -0.002461 1.003999
vt -0.002461 1.003999
vt -0.002461 1.003999
vt -0.002461 1.003999
vt -0.002461 1.003999
vt -0.002461 1.003999
vt -0.002461 1.003999
vt -0.002461 1.003999
vt -0.002461 1.003999
vt -0.002461 1.003999
vt -0.002461 1.003999
vt -0.002461 1.003999
vt -0.002461 1.003999
vt -0.001988 -0.006874
vt -0.001992 -0.006870
vt -0.001994 -0.006874
vt -0.001996 -0.006874
vt -0.001994 -0.006876
vt -0.001993 -0.006876
vt -0.001993 -0.006878
vt -0.001994 -0.006886
vt -0.001993 -0.006889
vt -0.001992 -0.006894
vt -0.001993 -0.006888
vt -0.002007 -0.006894
vt -0.001996 -0.006888
vt -0.001996 -0.006887
vt -0.002005 -0.006888
vt -0.002005 -0.006889
vt -0.002002 -0.006880
vt -0.002005 -0.006878
vt -0.002003 -0.006877
vt -0.002005 -0.006876
vt -0.002012 -0.006889
vt -0.002008 -0.006888
vt -0.002008 -0.006874
vt -0.002012 -0.006874
vt -0.002008 -0.006877
vt -0.002007 -0.006870
vt -0.002006 -0.006876
vt -0.002006 -0.006874
vt -0.002000 -0.006880
vt -0.002000 -0.006881
vt -0.001996 -0.006877
vt -0.001999 -0.006882
vt -0.001994 -0.006887
vn -0.0000 -1.0000 0.0000
vn 0.0000 -0.2057 0.9786
vn -1.0000 0.0000 0.0000
vn 0.0000 -0.2169 0.9762
vn 0.0000 1.0000 -0.0000
vn 0.0000 0.6508 -0.7593
vn -0.2729 0.6261 -0.7304
vn -0.9621 0.1776 -0.2072
vn -0.2729 0.5866 -0.7625
vn -0.9621 0.1664 -0.2163
vn -0.2729 -0.9621 0.0000
vn -0.9621 -0.2729 0.0000
vn -0.9621 -0.2728 0.0000
vn -0.2729 -0.2087 0.9391
vn -0.9621 -0.0592 0.2664
vn -0.2729 0.9621 -0.0000
vn -0.9621 0.2729 -0.0000
vn -0.2729 -0.1979 0.9415
vn -0.9621 -0.0561 0.2670
vn 0.0000 0.6097 -0.7926
vn -0.2728 0.5866 -0.7625
s off
f 2/1/1 138/2/1 10/3/1
f 5/4/1 129/5/1 8/6/1
f 8/6/2 131/7/2 19/8/2
f 20/9/3 17/10/3 11/11/3
f 134/12/4 13/13/4 16/14/4
f 131/7/5 16/14/5 19/8/5
f 138/2/6 5/4/6 10/3/6
f 6/15/7 10/3/7 5/4/7
f 4/16/8 12/17/8 6/15/8
f 2/1/9 15/18/9 13/13/9
f 3/19/10 14/20/10 15/18/10
f 10/3/11 3/19/11 2/1/11
f 12/17/12 1/21/12 3/19/12
f 8/6/11 6/15/11 5/4/11
f 9/22/13 4/16/13 6/15/13
f 15/18/14 16/14/14 13/13/14
f 14/20/15 18/23/15 15/18/15
f 16/14/16 21/24/16 19/8/16
f 18/23/17 20/9/17 21/24/17
f 21/24/18 8/6/18 19/8/18
f 20/9/19 9/22/19 21/24/19
f 133/25/20 2/1/20 13/13/20
f 23/26/1 127/27/1 31/28/1
f 120/29/1 29/30/1 26/31/1
f 29/30/2 114/32/2 40/33/2
f 41/34/3 38/35/3 32/36/3
f 37/37/4 122/38/4 34/39/4
f 114/32/5 37/37/5 40/33/5
f 127/27/6 26/31/6 31/28/6
f 27/40/7 31/28/7 26/31/7
f 25/41/8 33/42/8 27/40/8
f 23/26/21 36/43/21 34/39/21
f 24/44/10 35/45/10 36/43/10
f 31/28/11 24/44/11 23/26/11
f 33/42/12 22/46/12 24/44/12
f 29/30/11 27/40/11 26/31/11
f 30/47/12 25/41/12 27/40/12
f 36/43/14 37/37/14 34/39/14
f 35/45/15 39/48/15 36/43/15
f 37/37/16 42/49/16 40/33/16
f 39/48/17 41/34/17 42/49/17
f 42/49/18 29/30/18 40/33/18
f 41/34/19 30/47/19 42/49/19
f 122/38/20 23/26/20 34/39/20
f 44/50/1 148/51/1 52/52/1
f 47/53/1 136/54/1 50/55/1
f 136/54/2 61/56/2 50/55/2
f 62/57/3 59/58/3 53/59/3
f 137/60/4 55/61/4 58/62/4
f 135/63/5 58/62/5 61/56/5
f 148/51/6 47/53/6 52/52/6
f 48/64/7 52/52/7 47/53/7
f 46/65/8 54/66/8 48/64/8
f 44/50/9 57/67/9 55/61/9
f 45/68/10 56/69/10 57/67/10
f 52/52/11 45/68/11 44/50/11
f 54/66/12 43/70/12 45/68/12
f 50/55/11 48/64/11 47/53/11
f 51/71/13 46/65/13 48/64/13
f 57/67/14 58/62/14 55/61/14
f 56/69/15 60/72/15 57/67/15
f 58/62/16 63/73/16 61/56/16
f 60/72/17 62/57/17 63/73/17
f 63/73/18 50/55/18 61/56/18
f 62/57/19 51/71/19 63/73/19
f 141/74/20 44/50/20 55/61/20
f 65/75/1 128/76/1 73/77/1
f 123/78/1 117/79/1 71/80/1
f 71/80/2 118/81/2 82/82/2
f 83/83/3 80/84/3 74/85/3
f 79/86/4 126/87/4 76/88/4
f 118/81/5 79/86/5 82/82/5
f 128/76/6 68/89/6 73/77/6
f 69/90/7 73/77/7 68/89/7
f 67/91/8 75/92/8 69/90/8
f 65/75/9 78/93/9 76/88/9
f 66/94/10 77/95/10 78/93/10
f 73/77/11 66/94/11 65/75/11
f 75/92/12 64/96/12 66/94/12
f 71/80/11 69/90/11 68/89/11
f 72/97/12 67/91/12 69/90/12
f 78/93/14 79/86/14 76/88/14
f 77/95/15 81/98/15 78/93/15
f 79/86/16 84/99/16 82/82/16
f 81/98/17 83/83/17 84/99/17
f 84/99/18 71/80/18 82/82/18
f 83/83/19 72/97/19 84/99/19
f 126/87/20 65/75/20 76/88/20
f 86/100/1 149/101/1 94/102/1
f 147/103/1 92/104/1 89/105/1
f 143/106/2 103/107/2 92/104/2
f 104/108/3 101/109/3 95/110/3
f 100/111/4 145/112/4 97/113/4
f 139/114/5 100/111/5 103/107/5
f 149/101/6 89/105/6 94/102/6
f 90/115/7 94/102/7 89/105/7
f 88/116/8 96/117/8 90/115/8
f 86/100/9 99/118/9 97/113/9
f 87/119/10 98/120/10 99/118/10
f 94/102/11 87/119/11 86/100/11
f 96/117/12 85/121/12 87/119/12
f 92/104/11 90/115/11 89/105/11
f 93/122/12 88/116/12 90/115/12
f 99/118/14 100/111/14 97/113/14
f 98/120/15 102/123/15 99/118/15
f 100/111/16 105/124/16 103/107/16
f 102/123/17 104/108/17 105/124/17
f 105/124/18 92/104/18 103/107/18
f 104/108/19 93/122/19 105/124/19
f 145/112/20 86/100/20 97/113/20
f 145/125/3 126/126/3 109/127/3
f 121/128/3 122/129/3 129/130/3
f 120/131/3 127/132/3 121/128/3
f 133/133/3 131/134/3 124/135/3
f 2/1/1 132/136/1 138/2/1
f 5/4/1 130/137/1 129/5/1
f 8/6/2 129/5/2 131/7/2
f 11/11/3 4/16/3 7/138/3
f 17/10/3 14/20/3 1/21/3
f 11/11/3 7/138/3 20/9/3
f 17/10/3 1/21/3 11/11/3
f 134/12/4 133/25/4 13/13/4
f 131/7/5 134/12/5 16/14/5
f 138/2/6 130/137/6 5/4/6
f 6/15/7 12/17/7 10/3/7
f 4/16/8 11/11/8 12/17/8
f 2/1/9 3/19/9 15/18/9
f 3/19/10 1/21/10 14/20/10
f 10/3/11 12/17/11 3/19/11
f 12/17/12 11/11/12 1/21/12
f 8/6/11 9/22/11 6/15/11
f 9/22/12 7/138/12 4/16/12
f 15/18/14 18/23/14 16/14/14
f 14/20/15 17/10/15 18/23/15
f 16/14/16 18/23/16 21/24/16
f 18/23/17 17/10/17 20/9/17
f 21/24/18 9/22/18 8/6/18
f 20/9/19 7/138/19 9/22/19
f 133/25/20 132/136/20 2/1/20
f 23/26/1 121/139/1 127/27/1
f 120/29/1 115/140/1 29/30/1
f 29/30/2 115/140/2 114/32/2
f 32/36/3 25/41/3 28/141/3
f 38/35/3 35/45/3 22/46/3
f 32/36/3 28/141/3 41/34/3
f 38/35/3 22/46/3 32/36/3
f 37/37/4 116/142/4 122/38/4
f 114/32/5 116/142/5 37/37/5
f 127/27/6 120/29/6 26/31/6
f 27/40/7 33/42/7 31/28/7
f 25/41/8 32/36/8 33/42/8
f 23/26/9 24/44/9 36/43/9
f 24/44/10 22/46/10 35/45/10
f 31/28/11 33/42/11 24/44/11
f 33/42/12 32/36/12 22/46/12
f 29/30/11 30/47/11 27/40/11
f 30/47/12 28/141/12 25/41/12
f 36/43/14 39/48/14 37/37/14
f 35/45/15 38/35/15 39/48/15
f 37/37/16 39/48/16 42/49/16
f 39/48/17 38/35/17 41/34/17
f 42/49/18 30/47/18 29/30/18
f 41/34/19 28/141/19 30/47/19
f 122/38/20 121/139/20 23/26/20
f 44/50/1 142/143/1 148/51/1
f 47/53/1 140/144/1 136/54/1
f 136/54/2 135/63/2 61/56/2
f 53/59/3 46/65/3 49/145/3
f 59/58/3 56/69/3 43/70/3
f 53/59/3 49/145/3 62/57/3
f 59/58/3 43/70/3 53/59/3
f 137/60/4 141/74/4 55/61/4
f 135/63/5 137/60/5 58/62/5
f 148/51/6 140/144/6 47/53/6
f 48/64/7 54/66/7 52/52/7
f 46/65/8 53/59/8 54/66/8
f 44/50/9 45/68/9 57/67/9
f 45/68/10 43/70/10 56/69/10
f 52/52/11 54/66/11 45/68/11
f 54/66/12 53/59/12 43/70/12
f 50/55/11 51/71/11 48/64/11
f 51/71/12 49/145/12 46/65/12
f 57/67/14 60/72/14 58/62/14
f 56/69/15 59/58/15 60/72/15
f 58/62/16 60/72/16 63/73/16
f 60/72/17 59/58/17 62/57/17
f 63/73/18 51/71/18 50/55/18
f 62/57/19 49/145/19 51/71/19
f 141/74/20 142/143/20 44/50/20
f 65/75/1 125/146/1 128/76/1
f 71/80/1 68/89/1 123/78/1
f 68/89/1 124/147/1 123/78/1
f 71/80/2 117/79/2 118/81/2
f 74/85/3 67/91/3 70/148/3
f 80/84/3 77/95/3 64/96/3
f 74/85/3 70/148/3 83/83/3
f 80/84/3 64/96/3 74/85/3
f 79/86/4 119/149/4 126/87/4
f 118/81/5 119/149/5 79/86/5
f 128/76/6 124/147/6 68/89/6
f 69/90/7 75/92/7 73/77/7
f 67/91/8 74/85/8 75/92/8
f 65/75/9 66/94/9 78/93/9
f 66/94/10 64/96/10 77/95/10
f 73/77/11 75/92/11 66/94/11
f 75/92/12 74/85/12 64/96/12
f 71/80/11 72/97/11 69/90/11
f 72/97/12 70/148/12 67/91/12
f 78/93/14 81/98/14 79/86/14
f 77/95/15 80/84/15 81/98/15
f 79/86/16 81/98/16 84/99/16
f 81/98/17 80/84/17 83/83/17
f 84/99/18 72/97/18 71/80/18
f 83/83/19 70/148/19 72/97/19
f 126/87/20 125/146/20 65/75/20
f 86/100/1 144/150/1 149/101/1
f 147/103/1 143/106/1 92/104/1
f 143/106/2 139/114/2 103/107/2
f 95/110/3 88/116/3 91/151/3
f 101/109/3 98/120/3 85/121/3
f 95/110/3 91/151/3 104/108/3
f 101/109/3 85/121/3 95/110/3
f 100/111/4 146/152/4 145/112/4
f 139/114/5 146/152/5 100/111/5
f 149/101/6 147/103/6 89/105/6
f 90/115/7 96/117/7 94/102/7
f 88/116/8 95/110/8 96/117/8
f 86/100/9 87/119/9 99/118/9
f 87/119/10 85/121/10 98/120/10
f 94/102/11 96/117/11 87/119/11
f 96/117/12 95/110/12 85/121/12
f 92/104/11 93/122/11 90/115/11
f 93/122/12 91/151/12 88/116/12
f 99/118/14 102/123/14 100/111/14
f 98/120/15 101/109/15 102/123/15
f 100/111/16 102/123/16 105/124/16
f 102/123/17 101/109/17 104/108/17
f 105/124/18 93/122/18 92/104/18
f 104/108/19 91/151/19 93/122/19
f 145/112/20 144/150/20 86/100/20
f 109/127/3 113/153/3 145/125/3
f 113/153/3 112/154/3 144/155/3
f 145/125/3 113/153/3 144/155/3
f 147/156/3 149/157/3 144/155/3
f 145/125/3 146/158/3 139/159/3
f 112/154/3 147/156/3 144/155/3
f 145/125/3 139/159/3 125/160/3
f 118/161/3 108/162/3 126/126/3
f 108/162/3 109/127/3 126/126/3
f 126/126/3 119/163/3 118/161/3
f 145/125/3 125/160/3 126/126/3
f 106/164/3 108/162/3 122/129/3
f 108/162/3 118/161/3 117/165/3
f 117/165/3 123/166/3 122/129/3
f 123/166/3 131/134/3 122/129/3
f 108/162/3 117/165/3 122/129/3
f 122/129/3 116/167/3 114/168/3
f 114/168/3 106/164/3 122/129/3
f 131/134/3 129/130/3 122/129/3
f 129/130/3 130/169/3 135/170/3
f 130/169/3 141/171/3 135/170/3
f 141/171/3 137/172/3 135/170/3
f 135/170/3 121/128/3 129/130/3
f 107/173/3 106/164/3 115/174/3
f 106/164/3 114/168/3 115/174/3
f 140/175/3 111/176/3 136/177/3
f 111/176/3 107/173/3 120/131/3
f 136/177/3 111/176/3 120/131/3
f 121/128/3 135/170/3 120/131/3
f 135/170/3 136/177/3 120/131/3
f 107/173/3 115/174/3 120/131/3
f 110/178/3 111/176/3 140/175/3
f 140/175/3 148/179/3 142/180/3
f 141/171/3 130/169/3 132/181/3
f 130/169/3 138/182/3 132/181/3
f 110/178/3 140/175/3 142/180/3
f 110/178/3 142/180/3 147/156/3
f 142/180/3 141/171/3 147/156/3
f 147/156/3 112/154/3 110/178/3
f 125/160/3 139/159/3 133/133/3
f 139/159/3 143/183/3 133/133/3
f 143/183/3 147/156/3 141/171/3
f 141/171/3 132/181/3 143/183/3
f 133/133/3 134/184/3 131/134/3
f 132/181/3 133/133/3 143/183/3
f 128/185/3 125/160/3 124/135/3
f 124/135/3 125/160/3 133/133/3
f 131/134/3 123/166/3 124/135/3
